<svg width="21" height="20" viewBox="0 0 21 20" fill="none" xmlns="http://www.w3.org/2000/svg">
<g clip-path="url(#clip0_1704_66199)">
<rect x="1.25" y="1" width="18" height="18" rx="9" fill="white"/>
<g clip-path="url(#clip1_1704_66199)">
<path d="M9.13445 -2.99756C9.25892 -2.84684 9.37238 -2.68597 9.50955 -2.54795C12.5831 0.542578 15.6559 3.63311 18.7405 6.71263C18.9801 6.9514 19.0114 7.0691 18.754 7.32565C15.9565 10.1131 13.1699 12.9123 10.3918 15.7192C10.1861 15.9275 10.0879 15.8962 9.90327 15.7107C7.10063 12.8886 4.29206 10.0716 1.47841 7.25961C1.30652 7.08772 1.26673 6.99712 1.46401 6.80238C2.55036 5.73466 3.62146 4.65171 4.69171 3.56706C4.84158 3.4155 4.9923 3.33929 5.20906 3.34945C5.5596 3.36554 5.91183 3.35369 6.27169 3.35369C6.29455 3.55944 6.12351 3.62379 6.02529 3.7237C5.01431 4.74739 4.00248 5.77023 2.9771 6.77952C2.78151 6.97172 2.78574 7.07502 2.97964 7.26977C5.28526 9.572 7.58495 11.8802 9.87364 14.1993C10.1073 14.4364 10.2157 14.4 10.4282 14.1858C12.6907 11.9005 14.9599 9.62196 17.2418 7.35444C17.4984 7.09958 17.5246 6.97342 17.2511 6.70162C14.6398 4.10642 12.0514 1.48836 9.43927 -1.10514C9.1209 -1.42097 8.95833 -1.73087 9.00829 -2.17285C9.03708 -2.42179 9.01337 -2.67665 9.01337 -2.92813C9.05317 -2.95184 9.09381 -2.9747 9.13445 -2.99756Z" fill="#F4811F"/>
<path d="M8.95174 3.45934C8.39036 4.00971 7.8273 4.55754 7.26931 5.11129C6.70878 5.66759 6.15841 6.23404 5.5928 6.78526C5.42769 6.94613 5.3608 7.04012 5.5674 7.24418C7.02037 8.68276 8.46149 10.134 9.89499 11.5921C10.0906 11.7911 10.1947 11.786 10.3878 11.5904C11.8137 10.1442 13.2463 8.70477 14.6908 7.2772C14.9101 7.06044 14.8762 6.95376 14.6764 6.75562C12.9254 5.01646 11.1939 3.25782 9.43522 1.52628C9.11685 1.21299 8.95089 0.902246 9.00339 0.458565C9.03302 0.209629 9.00847 -0.0452337 9.00847 -0.30179C9.18543 -0.311104 9.24047 -0.175629 9.3226 -0.0934968C11.5944 2.18249 13.8593 4.4644 16.137 6.73445C16.3707 6.96646 16.3665 7.08584 16.1336 7.31615C14.2234 9.21534 12.3225 11.1239 10.4343 13.0451C10.193 13.2906 10.0736 13.2627 9.85011 13.0366C7.94668 11.1112 6.03479 9.19333 4.11358 7.28482C3.9019 7.07399 3.90698 6.969 4.11612 6.76409C5.13388 5.7675 6.14402 4.76329 7.13214 3.73706C7.41071 3.44749 7.69097 3.30524 8.08978 3.34842C8.35226 3.37721 8.61983 3.3535 8.8857 3.3535C8.90771 3.38822 8.92972 3.42378 8.95174 3.45934Z" fill="#F4811F"/>
<path d="M17.6929 22.0865C17.4566 22.0535 17.2179 22.034 16.985 21.9849C16.4931 21.8816 16.4998 21.8698 16.6751 21.4193C16.7454 21.2381 16.8284 21.2373 16.9825 21.2957C17.3178 21.4227 17.6641 21.4616 18.0172 21.3694C18.1611 21.3312 18.2813 21.255 18.3152 21.1026C18.3508 20.9392 18.2424 20.8376 18.1196 20.7614C17.9164 20.6352 17.7047 20.5252 17.5023 20.3982C17.1941 20.2051 17.0146 19.9418 17.0502 19.5574C17.0858 19.1763 17.3084 18.941 17.6344 18.7953C18.206 18.5405 18.7902 18.6226 19.3719 18.7631C19.6098 18.8207 19.4998 18.9816 19.4413 19.09C19.3787 19.2077 19.4574 19.4922 19.1636 19.3846C18.8817 19.2813 18.5946 19.2195 18.2957 19.2619C18.1247 19.2864 17.9579 19.3482 17.9206 19.5464C17.8859 19.7335 18.0282 19.8232 18.1628 19.9028C18.3558 20.0171 18.5616 20.1128 18.7479 20.2373C19.4329 20.6954 19.3744 21.5133 18.6378 21.8842C18.3398 22.0366 18.0222 22.0704 17.6929 22.0865Z" fill="#004085"/>
<path d="M14.7635 22.0832C14.5417 22.0493 14.3173 22.0265 14.0989 21.9799C13.6721 21.8893 13.6129 21.7013 13.8457 21.3279C13.9507 21.1594 14.0447 21.2839 14.1268 21.3085C14.4562 21.4058 14.7839 21.46 15.1243 21.3762C15.2843 21.3364 15.4206 21.2636 15.4502 21.0892C15.4782 20.9257 15.3647 20.8292 15.2411 20.7539C15.037 20.6294 14.8211 20.5244 14.6238 20.3898C13.971 19.9461 14.0303 19.1544 14.7441 18.8106C15.3114 18.538 15.8965 18.6252 16.4798 18.7564C16.7389 18.8149 16.628 18.9791 16.5696 19.1129C16.5137 19.2408 16.5688 19.499 16.2749 19.3796C16.0387 19.284 15.7906 19.2348 15.5324 19.2526C15.3275 19.267 15.12 19.3051 15.0599 19.5303C14.9989 19.759 15.1988 19.8419 15.3546 19.9342C15.5476 20.0494 15.7534 20.1459 15.9354 20.2755C16.5383 20.7056 16.5027 21.4575 15.8668 21.8368C15.5273 22.0392 15.1522 22.0824 14.7635 22.0832Z" fill="#004085"/>
<path d="M6.99727 21.3037C6.75426 22.1267 6.88212 22.0234 6.10144 22.0598C5.03034 22.1089 4.37329 21.5874 4.29878 20.6636C4.22173 19.7068 4.92027 18.805 5.86352 18.6738C6.29534 18.6137 6.73056 18.6213 7.16069 18.7365C7.35713 18.789 7.43418 18.8787 7.32919 19.0531C7.24706 19.1895 7.33681 19.5121 6.9905 19.3935C6.74749 19.3105 6.49686 19.2894 6.242 19.3232C5.6222 19.4054 5.19122 19.9278 5.24964 20.5264C5.30553 21.0988 5.72296 21.4197 6.38509 21.3842C6.57815 21.374 6.76951 21.3342 6.99727 21.3037Z" fill="#014085"/>
<path d="M10.072 21.2625C9.90351 22.0398 9.90351 22.0398 9.18464 22.0627C8.11354 22.0966 7.47596 21.6105 7.39806 20.7012C7.3117 19.6944 7.98653 18.8003 8.95518 18.6707C9.38785 18.6132 9.82392 18.6191 10.254 18.7376C10.4564 18.7935 10.5131 18.8816 10.409 19.0645C10.3269 19.2076 10.4022 19.5098 10.0627 19.3888C9.80698 19.2973 9.53942 19.2846 9.27101 19.3295C8.66137 19.4302 8.27865 19.9518 8.34893 20.5835C8.40651 21.1042 8.8214 21.4082 9.44628 21.3862C9.64018 21.3802 9.83408 21.3608 10.072 21.2625Z" fill="#004085"/>
<path d="M13.5856 6.80725C12.5052 5.73531 11.4316 4.65489 10.3647 3.56855C10.2021 3.40259 10.1098 3.38227 9.93541 3.55924C8.85754 4.65574 7.7712 5.74293 6.67977 6.82419C6.52482 6.97745 6.52228 7.06466 6.67893 7.21961C7.77035 8.30087 8.85246 9.39229 9.9388 10.4795C9.99722 10.5379 10.0607 10.5904 10.1107 10.6353C10.2487 10.6285 10.3012 10.5354 10.3672 10.4685C11.4426 9.3906 12.5111 8.30595 13.5932 7.23569C13.7685 7.06212 13.7507 6.97152 13.5856 6.80725ZM12.0996 7.24416C11.5137 7.814 10.9371 8.39316 10.3681 8.97994C10.2123 9.14081 10.1175 9.184 9.9388 8.99856C9.36472 8.39739 8.77456 7.81146 8.1827 7.22807C8.03961 7.08752 7.9905 6.99861 8.16407 6.83096C8.77202 6.24334 9.36218 5.63709 9.95997 5.0393C10.0184 4.98088 10.0853 4.93092 10.1547 4.87081C10.2275 4.94024 10.2893 4.99527 10.3486 5.05454C10.9354 5.64301 11.5145 6.23995 12.114 6.81657C12.2978 6.99353 12.2622 7.08667 12.0996 7.24416Z" fill="#F4811F"/>
<path d="M2.59799 18.6371C2.45744 18.6346 2.31603 18.6456 2.17548 18.654C1.47185 18.6997 1.47185 18.7006 1.24917 19.4457C1.66999 19.3509 2.03408 19.2408 2.4151 19.2459C2.63355 19.2484 2.83423 19.2891 2.99595 19.4482C3.10433 19.5549 3.15937 19.6963 3.1238 19.8327C3.07808 20.0105 2.91043 19.9182 2.80036 19.9173C2.34821 19.9131 1.89945 19.9106 1.47101 20.0892C0.973136 20.2967 0.712346 20.6641 0.749601 21.1163C0.786857 21.5693 1.10607 21.9359 1.61749 22.0231C2.23475 22.129 2.85201 22.0926 3.44894 21.8707C3.62083 21.8064 3.73175 21.7081 3.7563 21.5134C3.81473 21.0528 3.90363 20.5956 3.94597 20.1332C4.03742 19.1358 3.59627 18.6549 2.59799 18.6371ZM3.02304 20.7945C2.97902 21.3813 2.82068 21.51 2.18903 21.4482C1.90961 21.4211 1.65221 21.3432 1.65898 20.985C1.6666 20.6091 2.12891 20.3881 2.77665 20.4457C3.0476 20.4694 3.0476 20.4694 3.02304 20.7945Z" fill="#004085"/>
<path d="M12.5433 18.6331C11.2978 18.5332 10.3418 19.4925 10.4451 20.7508C10.5053 21.4806 10.976 21.9751 11.7059 22.053C11.9286 22.0767 12.1564 22.0717 12.3807 22.0556C13.0463 22.0073 13.0615 21.9887 13.2156 21.2698C12.8397 21.3409 12.5162 21.4569 12.175 21.4434C11.8219 21.4298 11.4925 21.3443 11.3427 20.9794C11.2521 20.7609 11.2461 20.5772 11.5933 20.589C12.1852 20.6094 12.7779 20.5975 13.3697 20.5924C13.484 20.5916 13.6407 20.65 13.6788 20.462C13.8837 19.4443 13.4815 18.7085 12.5433 18.6331ZM12.5899 20.0243C12.2106 20.0268 11.8321 20.0251 11.418 20.0251C11.617 19.4223 11.9701 19.1699 12.4493 19.2351C12.6644 19.2639 12.8177 19.3706 12.9006 19.5671C13.0344 19.8871 12.9413 20.0217 12.5899 20.0243Z" fill="#014085"/>
</g>
</g>
<rect x="0.75" y="0.5" width="19" height="19" rx="9.5" stroke="#D9D8D5"/>
<defs>
<clipPath id="clip0_1704_66199">
<rect x="1.25" y="1" width="18" height="18" rx="9" fill="white"/>
</clipPath>
<clipPath id="clip1_1704_66199">
<rect width="18.7709" height="25.0841" fill="white" transform="translate(0.75 -3)"/>
</clipPath>
</defs>
</svg>
