<svg width="19" height="18" viewBox="0 0 19 18" fill="none" xmlns="http://www.w3.org/2000/svg">
<g clip-path="url(#clip0_1704_66231)">
<rect x="0.25" width="18" height="18" rx="9" fill="white"/>
<path d="M18.2179 -0.00292969H0.285156V18.0032H18.2179V-0.00292969Z" fill="#B02B40"/>
<path d="M17.857 0.0435305V14.5479C17.8098 14.6096 17.743 14.6242 17.6705 14.6277C17.5886 14.6317 17.5067 14.632 17.4248 14.632C11.9831 14.6322 6.5414 14.6314 1.0997 14.6296C0.959624 14.6295 0.80471 14.6778 0.682022 14.5589C0.653672 14.4973 0.667374 14.432 0.667364 14.3685C0.666634 9.65824 0.666506 4.94796 0.666979 0.237676C0.666998 -0.00185095 0.641929 0.026334 0.886587 0.0263145C6.47433 0.0258697 12.0621 0.026046 17.6498 0.0268434C17.7188 0.0268551 17.7903 0.0095852 17.857 0.0435305Z" fill="#B02B40"/>
<path d="M18.2005 15.0047C18.2005 15.9646 18.1976 16.9246 18.2042 17.8845C18.205 18.0049 18.1794 18.0284 18.0539 18.0283C12.1283 18.0245 6.20274 18.0234 0.277162 18.025C0.25039 17.9882 0.259207 17.9461 0.259188 17.9059C0.258735 16.9708 0.258666 16.0357 0.258982 15.1006C0.258989 15.0657 0.255457 15.0302 0.271808 14.9971C0.30787 14.9386 0.369078 14.932 0.430617 14.9268C0.509745 14.9202 0.589134 14.9207 0.668462 14.9207C6.37443 14.9203 12.0804 14.9203 17.7864 14.9207C17.8657 14.9207 17.945 14.9219 18.0242 14.9262C18.0947 14.9301 18.1554 14.9503 18.2005 15.0047Z" fill="#56B752"/>
<path d="M18.204 15.0047C18.1434 15.0086 18.0828 15.0159 18.0222 15.0159C12.1686 15.0164 6.31504 15.0165 0.461465 15.0162C0.406618 15.0162 0.351772 15.013 0.296925 15.0113C0.276641 15.0327 0.259697 15.0305 0.246094 15.0047V14.5482C0.259078 14.524 0.273704 14.523 0.289973 14.5453C6.23694 14.545 12.1839 14.5447 18.1309 14.5445C18.1552 14.5445 18.1796 14.5469 18.204 14.5482V15.0047Z" fill="#FCFBFB"/>
<path d="M9.07103 0.840822C11.2635 0.838699 13.0426 2.61937 13.044 4.81743C13.0454 6.99173 11.2925 8.74945 9.1193 8.75287C6.93107 8.75631 5.14712 6.97074 5.14453 4.77449C5.14197 2.60266 6.8985 0.842926 9.07103 0.840822Z" fill="#FEDC20"/>
<path d="M5.53612 11.7244C5.55987 11.7418 5.57619 11.7626 5.59625 11.7673C6.20194 11.9071 6.52899 12.4233 6.42049 13.1301C6.32524 13.7506 5.89437 14.1456 5.24079 14.1716C4.55739 14.1989 3.87215 14.18 3.18771 14.1813C3.1256 14.1814 3.07965 14.1824 3.08548 14.088C3.12773 13.4043 3.09372 12.72 3.09165 12.036C3.08919 11.2231 3.07794 10.4101 3.06645 9.5972C3.06536 9.52035 3.08384 9.49285 3.16065 9.49354C3.86251 9.49992 4.56775 9.46266 5.26546 9.51904C6.28494 9.60142 6.45001 10.4075 6.29224 11.0598C6.22465 11.3393 6.03041 11.5232 5.76701 11.6332C5.69322 11.6641 5.61825 11.6921 5.53612 11.7244Z" fill="#FCFCFC"/>
<path d="M7.07747 11.1846C7.07747 10.6583 7.08093 10.1319 7.07425 9.60569C7.07307 9.51242 7.1043 9.49712 7.18201 9.49757C7.50958 9.49949 7.83718 9.50017 8.16474 9.49708C8.25173 9.49626 8.27743 9.51345 8.27684 9.61407C8.27079 10.6318 8.26311 11.6498 8.27803 12.6674C8.28761 13.3205 8.70094 13.6928 9.36235 13.6893C10.0462 13.6856 10.4688 13.2992 10.4765 12.6287C10.4879 11.6287 10.4867 10.6282 10.4517 9.62841C10.4487 9.54128 10.454 9.49661 10.5554 9.50201C10.6954 9.50946 10.8687 9.45669 10.9676 9.52148C11.0802 9.59529 10.9934 9.77831 10.995 9.91222C11.0057 10.7662 11.0056 11.6203 11.0106 12.4743C11.0168 13.5239 10.4685 14.1335 9.42132 14.2382C9.02875 14.2774 8.63848 14.2712 8.25575 14.1628C7.56874 13.9683 7.12028 13.3903 7.11054 12.6762C7.10375 12.1791 7.10923 11.6818 7.10923 11.1846C7.09864 11.1846 7.08806 11.1846 7.07747 11.1846Z" fill="#FCFCFC"/>
<path d="M15.5233 14.1897C15.104 14.1897 14.7121 14.1877 14.3203 14.1912C14.2346 14.192 14.2095 14.1628 14.1835 14.0786C14.0664 13.6991 13.9332 13.3246 13.8079 12.9476C13.7868 12.8838 13.755 12.8559 13.6831 12.8564C13.2383 12.8597 12.7935 12.8596 12.3486 12.8562C12.2706 12.8555 12.2329 12.8837 12.2094 12.9545C12.0845 13.3316 11.9527 13.7066 11.8341 14.0857C11.8096 14.1638 11.7818 14.1894 11.7053 14.1856C11.5485 14.178 11.3914 14.1763 11.2344 14.1722C11.2492 14.0207 11.3285 13.8904 11.3769 13.7503C11.8311 12.4356 12.288 11.1218 12.7475 9.8089C12.8533 9.50481 12.8527 9.50457 13.18 9.50458C13.3498 9.50459 13.5195 9.50392 13.6892 9.50508C13.7459 9.50546 13.7949 9.49887 13.8237 9.57915C14.2517 10.7729 14.6831 11.9654 15.118 13.1566C15.2418 13.4956 15.3438 13.8432 15.5233 14.1897Z" fill="#FCFCFC"/>
<path d="M11.4311 16.5246C11.4311 16.2853 11.4356 16.0458 11.4289 15.8067C11.4261 15.7078 11.4358 15.6605 11.5567 15.6659C11.7543 15.6746 11.9532 15.6606 12.1514 15.6537C12.6455 15.6364 12.954 15.8834 13.0044 16.3382C13.0668 16.9012 12.8166 17.2766 12.3242 17.3707C12.0442 17.4242 11.7653 17.3481 11.4857 17.3761C11.4003 17.3846 11.4314 17.3043 11.4309 17.2599C11.4285 17.0148 11.4298 16.7697 11.4298 16.5246L11.4311 16.5246Z" fill="#FCFCFC"/>
<path d="M9.14166 17.4018C8.58571 17.3947 8.23051 17.061 8.23441 16.5496C8.23864 15.9933 8.61929 15.6302 9.19085 15.6373C9.73541 15.6441 10.098 15.9923 10.0902 16.5011C10.0818 17.0504 9.70414 17.409 9.14166 17.4018Z" fill="#FCFCFC"/>
<path d="M6.07828 17.4018C5.52347 17.4019 5.16394 17.0705 5.16406 16.5592C5.16419 16.0037 5.53102 15.6389 6.09052 15.6377C6.65298 15.6365 7.01298 15.9701 7.01181 16.4914C7.01056 17.0469 6.64674 17.4017 6.07828 17.4018Z" fill="#FCFCFC"/>
<path d="M14.3598 17.0056C14.4453 17.1477 14.5405 17.2704 14.7263 17.2554C14.8531 17.2451 14.9552 17.1996 14.9934 17.0693C15.0302 16.944 14.9712 16.8524 14.8681 16.789C14.7788 16.7341 14.6842 16.6881 14.5919 16.638C14.3103 16.4851 14.205 16.2504 14.2994 15.9864C14.3915 15.7292 14.6594 15.5913 14.9547 15.6494C14.9661 15.6517 14.9772 15.6558 14.9885 15.6585C15.2456 15.7202 15.2515 15.7331 15.128 15.9915C15.0389 15.8773 14.9451 15.7758 14.7842 15.7997C14.6839 15.8146 14.6041 15.8547 14.5735 15.9569C14.5432 16.0583 14.5778 16.1458 14.6624 16.2023C14.764 16.27 14.8739 16.3252 14.9802 16.386C15.2306 16.5291 15.3361 16.7388 15.278 16.978C15.2194 17.2191 15.0086 17.3851 14.7389 17.3982C14.6689 17.402 14.5988 17.3994 14.5293 17.3904C14.2491 17.352 14.2176 17.2829 14.3598 17.0056Z" fill="#FBFCFB"/>
<path d="M3.02297 16.5039C3.02304 16.2644 3.02735 16.0247 3.02076 15.7854C3.01836 15.6983 3.02859 15.6595 3.13032 15.6628C3.36957 15.6705 3.6093 15.6672 3.84874 15.6631C3.92478 15.6618 3.97107 15.6709 3.9683 15.7638C3.96552 15.8569 3.90767 15.8462 3.84834 15.8426C3.84251 15.8422 3.83668 15.8417 3.83084 15.8416C3.28878 15.8334 3.40366 15.7264 3.38819 16.2994C3.38599 16.3809 3.41438 16.4168 3.49905 16.4123C3.60984 16.4065 3.72113 16.4106 3.83198 16.4055C3.90116 16.4023 3.94102 16.4152 3.94107 16.4983C3.94113 16.5886 3.88854 16.5855 3.82621 16.583C3.72697 16.579 3.62727 16.5821 3.5284 16.5742C3.42318 16.5659 3.38099 16.6036 3.38713 16.7126C3.39697 16.8875 3.38936 17.0635 3.4019 17.2381C3.40896 17.3365 3.38718 17.3824 3.28221 17.3705C3.23567 17.3653 3.1887 17.3653 3.14217 17.3705C3.03986 17.3818 3.01613 17.3405 3.01991 17.2399C3.02912 16.9949 3.02291 16.7493 3.02297 16.5039Z" fill="#FBFCFB"/>
<path d="M6.7818 5.86443C7.11461 5.93745 7.43064 5.99513 7.75094 6.02659C7.8285 6.03421 7.86236 6.07988 7.86975 6.15252C7.90404 6.46629 7.95705 6.77772 8.02849 7.08516C8.04767 7.1706 8.0379 7.20439 7.93827 7.18147C7.6532 7.11671 7.37441 7.02687 7.10516 6.913C7.0807 6.90351 7.05839 6.8892 7.03955 6.87093C7.02072 6.85267 7.00574 6.83081 6.9955 6.80665C6.87673 6.53313 6.78397 6.24903 6.71845 5.95813C6.7004 5.8791 6.71239 5.84315 6.7818 5.86443Z" fill="#B02B40"/>
<path d="M10.2481 7.18779C10.1812 7.20276 10.162 7.17293 10.1764 7.11185C10.2529 6.78788 10.299 6.45874 10.338 6.12876C10.3475 6.04827 10.3985 6.03522 10.4563 6.02891C10.7692 5.99404 11.0799 5.942 11.3871 5.87303C11.4715 5.85431 11.5068 5.87037 11.4831 5.96855C11.4159 6.24677 11.3363 6.52053 11.2246 6.7845C11.2036 6.83413 11.1803 6.87952 11.1283 6.90311C10.8455 7.03118 10.5502 7.12037 10.2481 7.18779Z" fill="#B02B40"/>
<path d="M11.3731 3.71675C11.0626 3.64633 10.7483 3.59347 10.4319 3.55841C10.3482 3.54877 10.3243 3.5058 10.317 3.43407C10.2837 3.12599 10.2317 2.82022 10.1614 2.51844C10.1404 2.4259 10.1494 2.38891 10.2604 2.41579C10.5393 2.48167 10.8123 2.57001 11.077 2.67993C11.1041 2.69024 11.1289 2.70603 11.1498 2.72633C11.1706 2.74662 11.187 2.77099 11.198 2.7979C11.3114 3.06114 11.4004 3.33425 11.4638 3.61378C11.4784 3.67906 11.4979 3.75274 11.3731 3.71675Z" fill="#B02B40"/>
<path d="M6.773 3.72067C6.70224 3.73647 6.69125 3.69827 6.70359 3.64182C6.7677 3.33868 6.86246 3.04284 6.98639 2.75886C7.00707 2.71228 7.05017 2.69349 7.09376 2.67473C7.35768 2.56357 7.63077 2.47557 7.90995 2.41175C8.00075 2.39021 8.02896 2.41353 8.00729 2.50598C7.93388 2.81913 7.89029 3.13743 7.85038 3.45617C7.84408 3.5065 7.8373 3.54598 7.77463 3.5529C7.43777 3.58923 7.10332 3.64525 6.773 3.72067Z" fill="#B02B40"/>
<path d="M9.19348 2.88223C9.19348 2.73015 9.19858 2.57784 9.19177 2.42606C9.18685 2.31631 9.231 2.27917 9.33574 2.29053C9.48682 2.30693 9.63825 2.32153 9.78991 2.33054C9.87327 2.3355 9.89712 2.38864 9.91313 2.45426C9.98937 2.76691 10.0411 3.08399 10.0885 3.40208C10.1033 3.50136 10.0669 3.52328 9.97528 3.51709C9.75368 3.50212 9.53163 3.49021 9.30961 3.48671C9.21112 3.48515 9.19253 3.43819 9.19385 3.35601C9.19638 3.19812 9.19458 3.04016 9.19458 2.88223L9.19348 2.88223Z" fill="#B12B40"/>
<path d="M9.21607 6.69471C9.21607 6.54293 9.21874 6.39108 9.215 6.2394C9.21297 6.15725 9.22961 6.10848 9.32724 6.10571C9.55467 6.09926 9.7819 6.08485 10.0091 6.07167C10.0776 6.0677 10.1048 6.0944 10.0983 6.16317C10.0655 6.50586 10.0066 6.84554 9.92215 7.17927C9.92114 7.18503 9.91947 7.19065 9.91717 7.19602C9.8794 7.26887 9.29435 7.34618 9.23793 7.28477C9.20714 7.25125 9.21839 7.20724 9.21806 7.16756C9.21675 7.00995 9.21752 6.85233 9.21752 6.69471L9.21607 6.69471Z" fill="#B02B40"/>
<path d="M7.18818 4.67843C7.03066 4.67851 6.87298 4.6743 6.71567 4.68002C6.61549 4.68367 6.57769 4.64426 6.58741 4.54686C6.60246 4.39607 6.6161 4.24508 6.62672 4.09392C6.63197 4.01933 6.66468 3.98182 6.73957 3.96402C7.05697 3.88753 7.37881 3.83078 7.70324 3.79409C7.78754 3.78481 7.81951 3.80429 7.81381 3.89364C7.79934 4.12056 7.78867 4.34784 7.783 4.57514C7.78076 4.66477 7.73532 4.68032 7.66073 4.67913C7.50325 4.67661 7.3457 4.67836 7.18818 4.67843Z" fill="#B02B40"/>
<path d="M8.97152 2.9031C8.97152 3.05495 8.9686 3.20689 8.97267 3.35864C8.97493 3.44296 8.95473 3.48539 8.85767 3.48679C8.63598 3.48999 8.41426 3.50201 8.19296 3.51654C8.1095 3.52202 8.07745 3.50351 8.08782 3.41232C8.12452 3.0817 8.18165 2.75368 8.25889 2.43013C8.27528 2.36226 8.31152 2.33404 8.37977 2.32953C8.53116 2.31955 8.68252 2.30717 8.8333 2.29046C8.94346 2.27826 8.97581 2.32528 8.97126 2.43009C8.96443 2.58749 8.96948 2.7454 8.96948 2.9031L8.97152 2.9031Z" fill="#B02B40"/>
<path d="M10.9985 4.6799C10.9226 4.67997 10.8466 4.68 10.7707 4.67997C10.4066 4.67997 10.4064 4.67998 10.3878 4.31077C10.382 4.19409 10.3866 4.07614 10.3709 3.96089C10.3502 3.80937 10.4173 3.7812 10.5488 3.801C10.8375 3.8445 11.1246 3.89643 11.4102 3.95678C11.5176 3.9795 11.5547 4.03669 11.5622 4.13452C11.5724 4.26844 11.582 4.40264 11.5994 4.53573C11.613 4.63915 11.5855 4.68694 11.4716 4.68166C11.3142 4.67437 11.1563 4.67983 10.9985 4.6799Z" fill="#B02B40"/>
<path d="M8.99541 6.71651C8.99541 6.87387 8.99181 7.03135 8.99678 7.18856C8.99973 7.28207 8.95961 7.31576 8.87187 7.30711C8.71542 7.29168 8.5591 7.27446 8.40238 7.26247C8.32332 7.25641 8.29315 7.20963 8.27658 7.14153C8.20075 6.82986 8.14926 6.51376 8.10096 6.19698C8.08744 6.10827 8.11372 6.06593 8.21113 6.07243C8.42625 6.08677 8.64165 6.09972 8.85713 6.10473C8.95832 6.10709 8.98662 6.15148 8.98397 6.24438C8.97947 6.40163 8.98273 6.55911 8.98273 6.71649L8.99541 6.71651Z" fill="#B02B40"/>
<path d="M11.0269 4.91666C11.167 4.91666 11.3078 4.92503 11.4472 4.91431C11.5878 4.9035 11.6242 4.96439 11.6004 5.08888C11.5949 5.11747 11.5936 5.14685 11.5904 5.17588C11.5427 5.61891 11.5429 5.62002 11.0934 5.70034C10.8982 5.73523 10.7018 5.76341 10.5063 5.7968C10.4085 5.8135 10.3679 5.78431 10.376 5.67752C10.3923 5.46221 10.4025 5.24646 10.4064 5.03029C10.4082 4.93412 10.4529 4.91253 10.5363 4.9141C10.6998 4.91718 10.8634 4.91501 11.0269 4.91501L11.0269 4.91666Z" fill="#B02B40"/>
<path d="M7.18837 4.91183C7.34002 4.9118 7.49172 4.91448 7.64328 4.91079C7.73319 4.90861 7.78221 4.92963 7.78427 5.03532C7.78849 5.25085 7.80371 5.46628 7.81924 5.68141C7.82597 5.77463 7.79371 5.81013 7.69976 5.79566C7.38877 5.74778 7.0773 5.70281 6.77178 5.62545C6.7382 5.61694 6.70141 5.60889 6.67441 5.58922C6.62221 5.55119 6.56344 4.99134 6.60259 4.94302C6.63267 4.9059 6.67626 4.91266 6.71595 4.91236C6.87342 4.91115 7.0309 4.91186 7.18837 4.91183Z" fill="#B02B40"/>
<path d="M8.973 4.18876C8.973 4.31164 8.96923 4.43467 8.97424 4.55734C8.97793 4.64754 8.94491 4.68226 8.85295 4.68055C8.61313 4.67606 8.37317 4.67723 8.1333 4.67923C8.05513 4.67988 8.01178 4.65596 8.01589 4.56958C8.02702 4.33604 8.01528 4.10178 8.04607 3.86863C8.0561 3.79261 8.0781 3.75148 8.15991 3.74791C8.39945 3.73746 8.63889 3.72433 8.87822 3.70984C8.96297 3.70471 8.97298 3.7541 8.97213 3.82013C8.97054 3.94299 8.97167 4.06588 8.97167 4.18876H8.973Z" fill="#B02B40"/>
<path d="M9.67736 4.67921C9.67153 4.67924 9.6657 4.67925 9.65987 4.67924C9.20931 4.67924 9.20948 4.67924 9.20791 4.21952C9.20745 4.08547 9.20903 3.95129 9.20338 3.81743C9.19978 3.73191 9.23363 3.70464 9.31658 3.71015C9.53746 3.72484 9.75853 3.7363 9.97981 3.74454C10.0845 3.74828 10.1378 3.78502 10.1397 3.89923C10.1431 4.10293 10.1533 4.30686 10.1705 4.50988C10.1811 4.63624 10.1467 4.69454 10.0094 4.68132C9.89965 4.67075 9.7881 4.67918 9.67736 4.67921Z" fill="#B02B40"/>
<path d="M9.21492 5.38309C9.21492 5.37725 9.21493 5.37141 9.21492 5.36556C9.21401 4.91462 9.21404 4.91204 9.65647 4.91598C9.81885 4.91742 10.0284 4.84616 10.1315 4.9455C10.2438 5.05386 10.1645 5.26697 10.163 5.43353C10.1594 5.81905 10.1544 5.82214 9.77579 5.85841C9.63076 5.8723 9.48385 5.86533 9.33809 5.87335C9.24651 5.87839 9.21203 5.84152 9.21531 5.75125C9.21977 5.62868 9.21642 5.50583 9.21642 5.38309H9.21492Z" fill="#B02B40"/>
<path d="M8.49441 4.91195C8.97264 4.91203 8.97264 4.91203 8.97543 5.39667C8.9755 5.40835 8.97557 5.42003 8.97566 5.43171C8.97931 5.89683 8.97931 5.89686 8.50933 5.86674C8.48605 5.86525 8.46284 5.8624 8.43963 5.85986C8.04891 5.81702 8.048 5.81705 8.02709 5.41677C8.021 5.30021 8.02886 5.18258 8.01737 5.06672C8.00455 4.93741 8.06272 4.90324 8.17919 4.91061C8.28387 4.91724 8.38931 4.91201 8.49441 4.91195Z" fill="#B02B40"/>
<path d="M10.4883 8.21934C10.8422 7.90783 11.0995 7.55737 11.299 7.16315C11.328 7.10591 11.3566 7.05151 11.42 7.0197C11.8096 6.82443 12.1585 6.57364 12.4553 6.25257C12.4654 6.24166 12.4855 6.24003 12.5027 6.2334C12.4349 6.86985 11.1453 8.1531 10.4883 8.21934Z" fill="#B12B40"/>
<path d="M5.65234 3.43047C5.79588 2.69036 6.96783 1.49821 7.63824 1.38525C7.66032 1.42973 7.61718 1.44567 7.59725 1.46443C7.30019 1.74411 7.06933 2.07196 6.88469 2.43404C6.86094 2.48063 6.84237 2.53264 6.79198 2.55819C6.36716 2.77363 5.98554 3.0473 5.65234 3.43047Z" fill="#B12B40"/>
<path d="M12.443 3.34668C12.1482 3.03712 11.802 2.78108 11.4196 2.58993C11.3718 2.56623 11.3294 2.53702 11.3044 2.4869C11.0995 2.07885 10.8306 1.70627 10.5078 1.3833C11.421 1.76035 12.0869 2.39331 12.488 3.30211C12.5002 3.34438 12.4805 3.35444 12.443 3.34668Z" fill="#B12B40"/>
<path d="M5.78191 6.29201C6.07534 6.57994 6.39898 6.82609 6.77029 7.00621C6.82815 7.03489 6.87443 7.08254 6.90142 7.14121C7.08359 7.50412 7.326 7.82368 7.60763 8.11461C7.60916 8.18027 7.57447 8.18086 7.52743 8.15926C6.71372 7.7811 6.11964 7.18304 5.73816 6.37212C5.71929 6.32714 5.71691 6.29117 5.78191 6.29201Z" fill="#B12B40"/>
<path d="M6.69597 6.70547C6.12558 6.37299 5.71264 5.96837 5.47656 5.39871C5.48721 5.38962 5.5006 5.38439 5.51458 5.38384C5.52856 5.38329 5.54232 5.38746 5.55365 5.39568C5.80427 5.54981 6.07359 5.66111 6.35392 5.74734C6.40719 5.76373 6.44859 5.78825 6.45998 5.84958C6.51097 6.12407 6.59531 6.39007 6.69597 6.70547Z" fill="#B12C40"/>
<path d="M10.9977 2.39501C10.6754 2.28742 10.3973 2.20742 10.1136 2.14964C10.0575 2.13822 10.0461 2.08784 10.0326 2.04448C9.94091 1.74673 9.81596 1.46024 9.66016 1.19043C10.2535 1.39984 10.6506 1.82687 10.9977 2.39501Z" fill="#B12C40"/>
<path d="M11.5156 6.6869C11.6133 6.39184 11.6896 6.12323 11.7414 5.84868C11.7537 5.78384 11.7985 5.76575 11.8494 5.7498C12.1456 5.65701 12.4304 5.53896 12.6941 5.36279C12.6623 5.75546 12.0464 6.45518 11.5156 6.6869Z" fill="#B12B40"/>
<path d="M10.978 7.23779C10.6805 7.76865 10.2892 8.19281 9.69922 8.3995C9.85362 8.12542 9.97621 7.8346 10.0646 7.5327C10.0818 7.47511 10.1184 7.44714 10.1756 7.43664C10.4447 7.38728 10.7056 7.30623 10.978 7.23779Z" fill="#B12C40"/>
<path d="M6.63988 2.93066C6.57908 3.20712 6.49834 3.47419 6.44654 3.74819C6.4378 3.79443 6.40581 3.81713 6.36435 3.82993C6.08394 3.91649 5.81367 4.02598 5.56136 4.17791C5.54029 4.1906 5.50678 4.18261 5.47266 4.1846C5.70725 3.61722 6.1098 3.22006 6.63988 2.93066Z" fill="#B12C40"/>
<path d="M7.1875 2.35575C7.51026 1.82241 7.90075 1.39715 8.51298 1.16309C8.42828 1.33021 8.35901 1.471 8.28602 1.60984C8.19687 1.77942 8.21109 2.01982 8.06225 2.12736C7.92203 2.22867 7.71053 2.23293 7.52931 2.27527C7.423 2.30011 7.32593 2.36312 7.1875 2.35575Z" fill="#B12C40"/>
<path d="M8.50539 8.38784C7.92691 8.18278 7.54236 7.76691 7.21875 7.24537C7.40585 7.23926 7.54689 7.34468 7.70487 7.35569C8.02238 7.37781 8.20381 7.53001 8.26762 7.85018C8.30538 8.0396 8.43069 8.20256 8.50539 8.38784Z" fill="#B12C40"/>
<path d="M12.6836 4.22719C12.403 4.04439 12.1093 3.92381 11.8039 3.83099C11.7509 3.81486 11.7317 3.77281 11.723 3.72658C11.6726 3.45751 11.5902 3.19709 11.5039 2.93359C11.9165 3.03241 12.6082 3.78397 12.6836 4.22719Z" fill="#B12C40"/>
<path d="M5.92119 4.90497C6.04301 4.92052 6.22762 4.84242 6.33359 4.93841C6.43302 5.02848 6.35574 5.21582 6.39021 5.35613C6.42829 5.51109 6.36835 5.52153 6.24175 5.47093C5.97613 5.36475 5.71036 5.26079 5.50271 5.05338C5.47046 5.02117 5.42027 4.98468 5.43688 4.93825C5.4554 4.8865 5.51765 4.90677 5.56173 4.90579C5.67232 4.90332 5.783 4.90497 5.92119 4.90497Z" fill="#B12E40"/>
<path d="M8.99907 8.0171C8.99904 8.13415 8.99991 8.25122 8.99849 8.36827C8.99809 8.40148 9.00929 8.44523 8.9686 8.46048C8.9315 8.47439 8.90304 8.44232 8.87818 8.41926C8.62866 8.18791 8.51178 7.88194 8.40435 7.57108C8.38461 7.51397 8.41648 7.49659 8.46749 7.50119C8.51424 7.50363 8.56079 7.50904 8.60685 7.51739C8.7307 7.54479 8.8959 7.46653 8.9734 7.57019C9.04949 7.67197 8.9906 7.8309 8.99894 7.96443C9.00003 7.98192 8.99909 7.99954 8.99907 8.0171Z" fill="#B12D40"/>
<path d="M8.9673 1.58182C8.9673 1.59346 8.96719 1.6051 8.96731 1.61675C8.97241 2.11005 8.97247 2.10883 8.47335 2.08801C8.39977 2.08494 8.35946 2.07119 8.38826 1.98808C8.48586 1.70643 8.59451 1.43057 8.8047 1.20948C8.84018 1.17216 8.88115 1.11398 8.93112 1.12884C8.9938 1.14749 8.96121 1.21939 8.96334 1.26751C8.96799 1.37209 8.96478 1.47703 8.96478 1.58182L8.9673 1.58182Z" fill="#B12C40"/>
<path d="M9.72218 7.50923C9.78618 7.49659 9.83057 7.51294 9.8047 7.58923C9.70484 7.8837 9.59208 8.17185 9.36756 8.39872C9.33599 8.43062 9.29903 8.47894 9.25101 8.46134C9.19639 8.44133 9.21999 8.37988 9.2195 8.33666C9.21691 8.10877 9.2192 7.88083 9.21685 7.65294C9.21609 7.57878 9.23086 7.52917 9.31991 7.52753C9.45407 7.52507 9.58809 7.51567 9.72218 7.50923Z" fill="#B12C40"/>
<path d="M9.52273 2.07662C9.19133 2.0547 9.19137 2.0547 9.1904 1.72673C9.18989 1.55742 9.18851 1.38811 9.18921 1.21881C9.18935 1.18623 9.1764 1.14036 9.21965 1.12975C9.24112 1.12448 9.27494 1.14495 9.29515 1.16284C9.55491 1.39265 9.67359 1.70337 9.781 2.0198C9.8005 2.07725 9.76403 2.09138 9.71499 2.08835C9.65091 2.0844 9.58682 2.08049 9.52273 2.07662Z" fill="#B12D40"/>
<path d="M5.87654 4.67787C5.76023 4.67785 5.64392 4.67882 5.52764 4.67723C5.49478 4.67678 5.45075 4.69229 5.43241 4.65676C5.40927 4.61194 5.45216 4.58104 5.4774 4.55277C5.6325 4.37906 5.83548 4.27786 6.04472 4.18818C6.38287 4.04325 6.38327 4.04428 6.37169 4.40105C6.36866 4.43583 6.36829 4.47079 6.37059 4.50562C6.38765 4.64504 6.32589 4.69261 6.19037 4.67983C6.08662 4.67005 5.98121 4.67789 5.87654 4.67787Z" fill="#B12C40"/>
<path d="M12.2774 4.68034C12.154 4.66866 11.9683 4.74073 11.8616 4.65239C11.7595 4.56776 11.8353 4.37496 11.801 4.23489C11.7622 4.07592 11.8198 4.06722 11.9481 4.11776C12.2097 4.22079 12.4703 4.32382 12.6756 4.52566C12.7113 4.56073 12.7699 4.59695 12.7469 4.65341C12.726 4.70456 12.6635 4.67741 12.62 4.67906C12.515 4.68302 12.4098 4.68034 12.2774 4.68034Z" fill="#B12C40"/>
<path d="M11.8132 5.25189C11.8356 4.91517 11.8356 4.91506 12.1697 4.91612C12.3391 4.91666 12.5085 4.91779 12.6779 4.91836C12.7559 4.91862 12.7767 4.95282 12.7253 5.01219C12.4933 5.28019 12.1737 5.39506 11.8516 5.50376C11.8018 5.52059 11.7941 5.48403 11.7976 5.444C11.8032 5.37999 11.8082 5.31594 11.8132 5.25189Z" fill="#B12C40"/>
<path d="M5.78237 6.2919C5.76778 6.3186 5.7532 6.3453 5.73861 6.372C5.69121 6.3206 5.66962 6.25748 5.65234 6.18262C5.72731 6.18824 5.75122 6.24458 5.78237 6.2919Z" fill="#C15342"/>
<path d="M7.52734 8.1589C7.55408 8.14402 7.58081 8.12914 7.60754 8.11426C7.65414 8.13908 7.69436 8.1693 7.71392 8.24499C7.64545 8.23251 7.58127 8.20289 7.52734 8.1589Z" fill="#BC4742"/>
<path d="M12.4453 3.3468C12.4603 3.33196 12.4753 3.3171 12.4903 3.30225C12.5306 3.34491 12.5468 3.39573 12.5528 3.46253C12.4937 3.43232 12.468 3.39093 12.4453 3.3468Z" fill="#C45A44"/>
<path d="M4.26753 12.8501C4.26753 12.6279 4.27134 12.4055 4.26576 12.1834C4.26333 12.0864 4.2926 12.0541 4.39366 12.0505C4.96348 12.0301 5.22713 12.2677 5.25389 12.8408C5.25746 12.9284 5.25456 13.0162 5.24521 13.1034C5.2068 13.481 5.00168 13.6649 4.6204 13.668C4.27032 13.6709 4.27029 13.6709 4.27011 13.3239C4.27003 13.166 4.27002 13.0081 4.27009 12.8501H4.26753Z" fill="#B02B40"/>
<path d="M4.25956 10.7805C4.25956 10.5641 4.263 10.3477 4.25792 10.1314C4.25579 10.0408 4.28478 10.0032 4.37762 10.0101C4.4707 10.0169 4.56483 10.0099 4.65788 10.017C4.94125 10.0387 5.1205 10.1975 5.17604 10.4783C5.22095 10.6971 5.20974 10.9237 5.14346 11.1369C5.04057 11.4675 4.65868 11.661 4.32708 11.5558C4.25266 11.5322 4.26848 11.4781 4.26808 11.4295C4.26628 11.2132 4.2673 10.9968 4.2673 10.7805L4.25956 10.7805Z" fill="#B02B40"/>
<path d="M12.9925 10.6323C13.0808 10.7865 13.1126 10.9348 13.1617 11.0759C13.2919 11.4503 13.4168 11.8266 13.5494 12.2002C13.5842 12.2981 13.5751 12.3354 13.4602 12.3333C13.1567 12.3277 12.853 12.3298 12.5494 12.3323C12.4679 12.333 12.4283 12.3185 12.4603 12.2241C12.6369 11.7016 12.8104 11.1781 12.9925 10.6323Z" fill="#B02B40"/>
<path d="M11.809 16.5077C11.8091 16.3207 11.8101 16.1337 11.8086 15.9467C11.8081 15.8813 11.8199 15.8343 11.8995 15.8276C12.213 15.801 12.539 15.8739 12.6006 16.3097C12.6237 16.4721 12.6147 16.6374 12.574 16.7962C12.4931 17.1165 12.2081 17.2838 11.8876 17.2158C11.802 17.1976 11.8098 17.1427 11.8094 17.0861C11.808 16.8933 11.8089 16.7005 11.809 16.5077Z" fill="#56B752"/>
<path d="M9.68791 16.4833C9.68693 16.6659 9.66597 16.8445 9.5694 17.0052C9.37189 17.334 8.91656 17.3375 8.74141 16.9974C8.57275 16.6699 8.58875 16.3253 8.78038 16.0111C8.96931 15.7013 9.40731 15.7269 9.59037 16.0445C9.66857 16.1801 9.68823 16.3297 9.68791 16.4833Z" fill="#56B752"/>
<path d="M5.56303 16.535C5.56412 16.3634 5.5923 16.1973 5.67788 16.0465C5.76795 15.8878 5.90232 15.7972 6.09032 15.7979C6.28297 15.7986 6.43481 15.8799 6.51628 16.0529C6.67371 16.3873 6.66145 16.7263 6.46831 17.0399C6.28765 17.3333 5.863 17.3166 5.67683 17.0218C5.5832 16.8735 5.55838 16.7072 5.56303 16.535Z" fill="#56B752"/>
</g>
<defs>
<clipPath id="clip0_1704_66231">
<rect x="0.25" width="18" height="18" rx="9" fill="white"/>
</clipPath>
</defs>
</svg>
