<svg width="19" height="18" viewBox="0 0 19 18" fill="none" xmlns="http://www.w3.org/2000/svg">
<g clip-path="url(#clip0_1704_66295)">
<rect x="0.25" width="18" height="18" rx="9" fill="white"/>
<path d="M0.314421 -0.0464963C6.23078 -0.0464963 12.1471 -0.0474363 18.0635 -0.0493163C18.1752 -0.0493763 18.2005 -0.023888 18.2004 0.0890887C18.1973 6.07 18.1963 12.0509 18.1976 18.0318C18.1461 18.06 18.0903 18.0462 18.0367 18.0462C12.1854 18.0469 6.33405 18.047 0.482704 18.0466C0.278243 18.0466 0.299814 18.0682 0.299804 17.8618C0.299517 11.9466 0.299665 6.03144 0.300247 0.116249C0.300253 0.0620449 0.286526 0.0056125 0.314421 -0.0464963Z" fill="#DC6D1D"/>
<path d="M0.322569 0.0361328C0.322571 5.93839 0.321356 11.8407 0.318924 17.7429C0.318815 17.8928 0.353858 17.9279 0.503751 17.9278C6.40442 17.9235 12.3051 17.9223 18.2058 17.9241C18.1993 17.9333 18.2208 17.9552 18.1909 17.9543C18.1512 17.953 18.1114 17.954 18.0716 17.954C12.1901 17.954 6.30847 17.9549 0.426889 17.9567C0.31514 17.9568 0.289914 17.9316 0.289974 17.8198C0.293134 11.9366 0.294678 6.05346 0.294606 0.170293C0.29462 0.126663 0.260232 0.0692047 0.322569 0.0361328Z" fill="#FEFEFE"/>
<path d="M11.6168 12.4737C11.9275 13.0109 12.2318 13.537 12.5377 14.0659C12.4642 14.0999 12.4041 14.0871 12.346 14.0872C11.3575 14.0881 10.3686 14.0707 9.38057 14.0926C8.38038 14.1147 7.66414 13.4739 7.4469 12.7495C7.43772 12.7294 7.42708 12.71 7.41508 12.6914C7.08751 13.2634 6.76844 13.8206 6.44897 14.3785C6.37862 14.3602 6.36971 14.299 6.34461 14.2553C5.83761 13.373 5.33168 12.4901 4.82682 11.6066C4.39036 10.8433 4.44537 10.0624 4.98281 9.36788C4.99163 9.35648 4.9984 9.34349 5.01133 9.323C4.96067 9.2894 4.90572 9.3034 4.8553 9.30327C4.35361 9.30203 3.85189 9.30047 3.35021 9.30409C3.23861 9.3049 3.19289 9.30081 3.26577 9.17347C3.78348 8.26879 4.29189 7.35878 4.80915 6.45385C5.24383 5.69339 6.01876 5.34901 6.88354 5.52119C6.91657 5.52776 6.94999 5.53234 7.00218 5.54099C6.68246 4.98546 6.37129 4.4448 6.0551 3.89539C6.12149 3.85949 6.18114 3.87291 6.23714 3.87286C7.23557 3.87191 8.23401 3.87171 9.23244 3.87226C10.1147 3.87261 10.7341 4.27665 11.0904 5.08439C11.1016 5.10377 11.1141 5.12242 11.1277 5.14021C11.4299 4.61369 11.7262 4.09731 12.0228 3.58057C12.089 3.5983 12.0982 3.65348 12.1207 3.69279C12.6267 4.57559 13.1316 5.45902 13.6354 6.34308C14.0782 7.11946 14.0257 7.88316 13.4823 8.59479C13.4712 8.61255 13.461 8.63091 13.4519 8.64979C13.5134 8.65267 13.5647 8.6571 13.6161 8.65715C14.1376 8.65767 14.6592 8.66002 15.1807 8.65555C15.3008 8.65452 15.3302 8.66853 15.2628 8.78865C14.7501 9.70185 14.2469 10.6204 13.7334 11.5332C13.3108 12.2845 12.5419 12.635 11.6914 12.4776C11.6666 12.475 11.6417 12.4737 11.6168 12.4737Z" fill="#137B99"/>
<path d="M10.3271 13.627C9.94993 13.6093 9.48191 13.6635 9.01769 13.6025C8.38491 13.5193 7.86236 12.9752 7.80106 12.3523C7.73234 11.6541 8.1064 11.0386 8.73869 10.8094C9.35635 10.5855 10.0655 10.804 10.417 11.3606C10.8671 12.0735 11.2916 12.8025 11.7297 13.5229C11.784 13.6122 11.7595 13.6287 11.6669 13.6281C11.2499 13.6255 10.8329 13.627 10.3271 13.627Z" fill="#F9F59A"/>
<path d="M10.625 10.6221C10.6278 9.812 11.2607 9.15739 12.0873 9.14037C12.8618 9.12441 13.6368 9.13748 14.4116 9.13543C14.5016 9.13519 14.5305 9.15109 14.4795 9.24191C14.079 9.9559 13.6912 10.6773 13.2793 11.3846C12.9503 11.9496 12.2794 12.197 11.6543 12.0164C11.0395 11.8388 10.6227 11.2742 10.625 10.6221Z" fill="#F9F59A"/>
<path d="M12.0378 4.51758C12.0721 4.52522 12.0783 4.55824 12.0919 4.58202C12.4931 5.28327 12.9011 5.98082 13.292 6.68784C13.7564 7.5279 13.3134 8.57035 12.3974 8.79844C11.8197 8.94231 11.3193 8.77982 10.939 8.3275C10.5497 7.86454 10.4631 7.31897 10.7394 6.78391C11.1348 6.0183 11.5855 5.28132 12.0132 4.53243C12.0172 4.52536 12.029 4.52269 12.0378 4.51758Z" fill="#F9F59A"/>
<path d="M5.40753 8.82341C4.92865 8.82341 4.53159 8.82068 4.13461 8.82516C4.02232 8.82642 4.00625 8.80366 4.0636 8.704C4.46175 8.01213 4.8499 7.31445 5.25255 6.62522C5.59781 6.03422 6.2963 5.77914 6.93858 5.9925C7.24986 6.09584 7.51668 6.30207 7.69513 6.57725C7.87359 6.85244 7.95303 7.18018 7.9204 7.50654C7.85553 8.18046 7.3208 8.73244 6.6497 8.80465C6.20964 8.852 5.76698 8.81023 5.40753 8.82341Z" fill="#F9F59A"/>
<path d="M6.4329 13.4727C6.29918 13.2394 6.18132 13.034 6.06363 12.8285C5.76526 12.3074 5.45887 11.7908 5.17049 11.2643C4.71328 10.4295 5.155 9.39175 6.06604 9.16233C6.64257 9.01714 7.14615 9.16986 7.52608 9.62856C7.91533 10.0985 8.00399 10.6455 7.72194 11.1879C7.32402 11.953 6.87638 12.6923 6.4329 13.4727Z" fill="#F9F59A"/>
<path d="M6.80859 4.35139C7.06982 4.35139 7.29282 4.35137 7.51583 4.35139C8.13168 4.35144 8.74758 4.3465 9.36336 4.35286C10.0924 4.36038 10.7057 4.90711 10.784 5.60816C10.8681 6.35977 10.4189 7.02872 9.69433 7.20015C9.10131 7.34047 8.56756 7.17955 8.22996 6.681C7.72765 5.93922 7.29229 5.15208 6.80859 4.35139Z" fill="#F9F59A"/>
<path d="M10.1737 10.5001C9.30022 10.1996 9.13491 10.1997 8.32522 10.5067C8.27272 9.87848 7.99585 9.37432 7.47656 8.99779C7.81687 8.76648 8.06648 8.47189 8.2165 8.09845C8.28896 7.91808 8.33911 7.73104 8.34532 7.53541C8.34824 7.44347 8.37414 7.42801 8.45928 7.47146C8.9747 7.73451 9.50401 7.75659 10.0418 7.545C10.1179 7.51503 10.1488 7.50896 10.1626 7.60995C10.2365 8.15331 10.4977 8.58881 10.9393 8.91518C10.9841 8.94827 11.0524 8.96832 10.9622 9.03841C10.4936 9.40278 10.2455 9.88863 10.1872 10.4758C10.1863 10.4843 10.1784 10.492 10.1737 10.5001Z" fill="#DC6E1D"/>
</g>
<defs>
<clipPath id="clip0_1704_66295">
<rect x="0.25" width="18" height="18" rx="9" fill="white"/>
</clipPath>
</defs>
</svg>
