<svg width="21" height="20" viewBox="0 0 21 20" fill="none" xmlns="http://www.w3.org/2000/svg">
<rect x="0.75" y="0.5" width="19" height="19" rx="9.5" fill="white"/>
<rect x="0.75" y="0.5" width="19" height="19" rx="9.5" stroke="#D9D8D5"/>
<path d="M8.92021 7.4405C9.16852 7.28859 9.36562 7.09143 9.47303 6.81501C9.5041 6.77114 9.50563 6.71626 9.52748 6.66895C9.53024 6.6628 9.53256 6.65645 9.53443 6.64997C9.55495 6.61985 9.55349 6.58632 9.54939 6.55286C9.54647 6.5464 9.55465 6.53414 9.53929 6.53425C9.53272 6.54818 9.52098 6.55901 9.50656 6.56445C9.38958 6.7901 9.2256 6.96805 8.99002 7.07332C8.95721 7.03674 8.97976 6.99256 8.97378 6.95228C8.97093 6.93309 8.97645 6.90895 8.95435 6.90054C8.92596 6.88973 8.9156 6.91758 8.90022 6.93323C8.86693 6.95228 8.83879 6.97917 8.81826 7.01157C8.79624 7.03093 8.77686 7.05302 8.75502 7.07257C8.5841 7.2078 8.42063 7.35279 8.23158 7.46404C8.12459 7.52701 8.01558 7.58526 7.89765 7.62483C7.87772 7.63152 7.85367 7.65707 7.83423 7.62955C7.81945 7.60861 7.83479 7.58734 7.84565 7.5652C7.97157 7.30849 8.07757 7.04423 8.13736 6.76347C8.14645 6.72079 8.14878 6.67667 8.15424 6.63321C8.16886 6.58106 8.1646 6.54467 8.09499 6.55919C8.06539 6.56537 8.04059 6.56058 8.03861 6.52234C8.0452 6.34026 8.02026 6.15675 8.06669 5.97693C8.07489 5.95072 8.08309 5.92452 8.09128 5.89832C8.11278 5.86681 8.11444 5.82827 8.1283 5.79405C8.23533 5.49093 8.40848 5.24106 8.69886 5.08558C8.80965 5.04112 8.93328 5.04085 9.04427 5.08484C9.08352 5.11055 9.12913 5.13016 9.16082 5.16313C9.24751 5.25334 9.29946 5.28773 9.20628 5.41834C9.13305 5.52097 9.12355 5.63265 9.18322 5.7499C9.24183 5.86507 9.37467 5.93162 9.49547 5.89209C9.57322 5.86664 9.52777 5.80394 9.52838 5.75575C9.50167 5.64891 9.50189 5.53711 9.52902 5.43038C9.53105 5.42383 9.53307 5.41728 9.5351 5.41074C9.56118 5.36529 9.55937 5.30898 9.59148 5.26588C9.62567 5.1878 9.565 5.14124 9.5316 5.08561C9.50314 5.0426 9.49473 5.01327 9.56597 5.01308C9.62198 5.01292 9.67994 5.02827 9.73446 5.00188C9.88029 4.90234 10.0309 4.81671 10.2166 4.82363C10.2552 4.82507 10.2932 4.82849 10.32 4.85566C10.4094 4.94664 10.5316 5.01755 10.5209 5.17276C10.5165 5.23532 10.5027 5.27712 10.4312 5.22689C10.375 5.18742 10.3204 5.20446 10.2713 5.23899C10.2418 5.25973 10.2017 5.28529 10.2051 5.32327C10.2096 5.37323 10.2593 5.3432 10.2877 5.35205C10.4601 5.4057 10.5594 5.5308 10.6238 5.69055C10.6401 5.73108 10.6503 5.77411 10.667 5.81447C10.6751 5.83407 10.6768 5.86529 10.7073 5.86456C10.7323 5.86397 10.7491 5.84345 10.7628 5.82413C10.8594 5.68794 10.8585 5.5499 10.7691 5.4107C10.73 5.35611 10.722 5.30162 10.7695 5.24728C10.9297 5.05893 11.1437 5.04068 11.3593 5.09031C11.5209 5.12751 11.6393 5.25076 11.7373 5.38455C11.7962 5.46199 11.8475 5.54499 11.8903 5.63236C11.9093 5.65702 11.9141 5.68851 11.9296 5.71484C11.9374 5.74008 11.9452 5.76533 11.953 5.79058C11.9859 5.84197 11.9805 5.90601 12.0085 5.95902C12.0696 6.13382 12.0736 6.31547 12.0745 6.49774C12.0748 6.56399 12.0475 6.58938 11.9889 6.55445C11.9028 6.5031 11.913 6.56417 11.914 6.61432C11.919 6.86202 11.9796 7.09953 12.049 7.33515C12.0726 7.42244 12.1077 7.50616 12.1536 7.58406C12.1686 7.60514 12.1707 7.62522 12.149 7.64346C12.0506 7.65759 11.9707 7.60329 11.8964 7.55792C11.5676 7.35707 11.2976 7.0957 11.1121 6.75363C11.0564 6.73889 11.0766 6.77844 11.0723 6.80534C11.0639 6.85842 11.1128 6.91393 11.0648 6.96464C11.0088 6.98136 10.9597 6.965 10.9135 6.93403C10.8695 6.89416 10.8037 6.88891 10.7662 6.83642C10.7475 6.81029 10.7275 6.83753 10.7239 6.85334C10.7163 6.88958 10.7124 6.92649 10.7121 6.96351C10.7065 7.27261 10.6796 7.57671 10.5204 7.85295C10.5051 7.883 10.4945 7.9152 10.4889 7.94845C10.4756 8.01023 10.4839 8.05619 10.5598 8.077C10.6228 8.09429 10.6904 8.1144 10.7315 8.17513C10.7654 8.30044 10.7632 8.30279 10.6128 8.30332C10.5452 8.30015 10.4794 8.28443 10.4129 8.27355C10.3353 8.23155 10.2441 8.24618 10.1639 8.21493C10.154 8.21112 10.1451 8.20534 10.1376 8.19794C10.1184 8.16058 10.1398 8.13251 10.162 8.10756C10.2434 8.01585 10.2196 7.92273 10.1699 7.82762C10.1281 7.74768 10.0757 7.67248 10.0578 7.58215C10.0559 7.57539 10.0605 7.56288 10.0522 7.5618C10.044 7.56071 10.0442 7.57383 10.0409 7.58121C9.99364 7.70334 9.91063 7.80236 9.835 7.90615C9.80748 7.94393 9.77197 7.97974 9.79103 8.03367C9.83226 8.08942 9.89723 8.05377 9.9475 8.07445C9.97719 8.08419 10.0036 8.10199 10.0238 8.12586C10.0439 8.14973 10.0571 8.17873 10.0617 8.20963C10.0639 8.28167 10.0223 8.30287 9.95947 8.29396C9.87382 8.2818 9.78785 8.28638 9.70202 8.28491C9.62111 8.28211 9.54015 8.2776 9.45942 8.28926C9.45072 8.29066 9.44182 8.28994 9.43346 8.28717C9.4251 8.2844 9.41754 8.27966 9.4114 8.27334C9.35921 8.20308 9.42662 8.1565 9.46086 8.13157C9.54896 8.0674 9.53759 7.99332 9.51718 7.90773C9.50174 7.843 9.46777 7.78368 9.47152 7.70075C9.44396 7.72243 9.42587 7.73198 9.4141 7.74662C9.20822 8.00248 8.94305 7.91212 8.68958 7.86514C8.60625 7.85087 8.52692 7.81897 8.45691 7.77158C8.43481 7.7561 8.4 7.74572 8.39964 7.72033C8.39918 7.68835 8.43538 7.67624 8.46233 7.66365C8.58929 7.60433 8.71635 7.54525 8.84352 7.48639C8.86498 7.46424 8.90208 7.46822 8.92021 7.4405Z" fill="#1B194E"/>
<path d="M10.1437 8.19562C10.147 8.19469 10.1504 8.1943 10.1538 8.19447C10.2318 8.23951 10.3239 8.22231 10.4055 8.25124C10.472 8.25989 10.5385 8.26853 10.6051 8.27718C10.6683 8.29179 10.7378 8.32833 10.769 8.23045C11.0916 8.25921 11.4106 8.32032 11.721 8.41285C11.9014 8.46688 12.0788 8.53059 12.2523 8.60369C12.2844 8.62779 12.3244 8.63686 12.3572 8.65947C12.529 8.72137 12.686 8.81281 12.8406 8.90762C13.0981 9.06551 13.3478 9.23469 13.5661 9.44577C13.5826 9.46178 13.5997 9.4773 13.6165 9.49305C13.6835 9.54743 13.7444 9.60898 13.798 9.67659C13.8096 9.71059 13.8712 9.72962 13.8482 9.76547C13.8256 9.80076 13.7748 9.77654 13.7364 9.76999C13.7166 9.76661 13.6971 9.76119 13.6775 9.7567C13.6285 9.73953 13.5827 9.71454 13.5336 9.69755C13.2343 9.56304 12.9362 9.42552 12.6258 9.31779C12.3313 9.21559 12.0329 9.12663 11.7267 9.06586C11.6726 9.05044 11.6169 9.04188 11.5624 9.02786C11.3612 8.98856 11.1593 8.95467 10.9543 8.94225C10.5146 8.89813 10.0715 8.89797 9.63173 8.94178C9.24023 8.97402 8.85277 9.04411 8.47478 9.15105C8.41447 9.17579 8.34771 9.17929 8.2885 9.20764C8.2436 9.21602 8.1987 9.22441 8.15379 9.2328C8.11331 9.25494 8.06687 9.26289 8.02683 9.28608C8.02056 9.28849 8.01427 9.29082 8.00795 9.29307C7.97588 9.31277 7.93726 9.3139 7.90389 9.3299C7.5504 9.454 7.20742 9.60463 6.85953 9.74286C6.81877 9.75837 6.77645 9.76944 6.73331 9.77588C6.70617 9.78029 6.66926 9.79572 6.65202 9.76265C6.63658 9.73302 6.67539 9.71875 6.6857 9.69535C6.7264 9.64204 6.77773 9.59887 6.82372 9.55062C6.8561 9.52094 6.88321 9.48612 6.91553 9.45637C7.01519 9.37394 7.11486 9.2915 7.21452 9.20907C7.24313 9.19056 7.26992 9.16938 7.29453 9.14581C7.46048 9.01435 7.64401 8.91029 7.82876 8.80908C8.08731 8.66744 8.36175 8.5609 8.63657 8.45581C8.68073 8.43186 8.73224 8.43402 8.77806 8.41595C8.98589 8.35489 9.19416 8.29574 9.4107 8.27328C9.4212 8.27395 9.43169 8.27462 9.44219 8.2753C9.52461 8.24928 9.61067 8.27832 9.69351 8.25872C9.78004 8.25374 9.86854 8.24327 9.95205 8.26673C10.0328 8.2894 10.0479 8.2596 10.0372 8.19048C10.0742 8.161 10.1094 8.16796 10.1437 8.19562Z" fill="#D6261C"/>
<path d="M9.00193 14.7107C8.94313 14.4542 8.88059 14.1987 8.77742 13.9515C8.77742 14.3125 8.77425 14.6736 8.77969 15.0345C8.78102 15.1228 8.76125 15.1537 8.6696 15.1457C8.57848 15.1361 8.48645 15.1398 8.3964 15.1567C8.34151 15.168 8.32131 15.1411 8.32076 15.0913C8.32031 15.0507 8.3198 15.01 8.3214 14.9695C8.34049 14.4858 8.36192 14.0021 8.37765 13.5183C8.38065 13.4261 8.40432 13.3866 8.50517 13.3892C8.68436 13.3938 8.86404 13.3866 9.04327 13.3787C9.10124 13.3761 9.12848 13.393 9.14261 13.4492C9.20257 13.6876 9.26559 13.9252 9.32749 14.1631C9.33437 14.1986 9.35596 14.2297 9.35611 14.2674C9.35563 14.2716 9.35604 14.2758 9.35732 14.2797C9.35859 14.2837 9.3607 14.2874 9.3635 14.2905C9.36629 14.2936 9.36972 14.2961 9.37355 14.2977C9.37738 14.2994 9.38152 14.3002 9.3857 14.3002C9.40619 14.3005 9.4131 14.2854 9.41691 14.2683C9.42481 14.2328 9.43471 14.1979 9.44422 14.1628C9.50299 13.9351 9.5606 13.707 9.62131 13.4798C9.6371 13.4207 9.67092 13.3882 9.74419 13.3896C9.92672 13.3928 10.1095 13.3861 10.2921 13.379C10.3494 13.3767 10.3658 13.3934 10.3685 13.4516C10.393 13.982 10.42 14.5123 10.4496 15.0424C10.454 15.1201 10.439 15.1509 10.3544 15.1455C10.2362 15.1389 10.1176 15.1387 9.99933 15.145C9.92903 15.1481 9.90707 15.1275 9.90771 15.055C9.91048 14.7437 9.90738 14.4324 9.90495 14.1211C9.90462 14.0788 9.9133 14.0342 9.87906 13.976C9.77897 14.3467 9.68291 14.7026 9.58685 15.0584C9.57466 15.0853 9.57344 15.1179 9.54592 15.1368C9.42864 15.1388 9.31124 15.1383 9.19413 15.1439C9.14157 15.1464 9.11315 15.1307 9.10113 15.0783C9.08251 14.9971 9.05963 14.9169 9.03856 14.8363C9.01495 14.7977 9.02102 14.7505 9.00193 14.7107Z" fill="#1B194E"/>
<path d="M8.75234 12.2009C8.53102 11.999 8.30967 11.7972 8.0883 11.5954C8.02725 11.5399 7.96517 11.4855 7.88796 11.4166C7.87882 11.7032 7.8674 11.9687 7.86265 12.2344C7.85709 12.5451 7.85962 12.5452 7.5506 12.5452C7.39567 12.5452 7.39567 12.5452 7.39567 12.393C7.39567 11.7497 7.39605 11.1064 7.3968 10.4631C7.39688 10.4298 7.37299 10.3814 7.41865 10.3643C7.45947 10.3489 7.49698 10.3813 7.52771 10.4054C7.69718 10.5381 7.85221 10.6873 8.01034 10.833C8.23237 11.0376 8.4554 11.2411 8.68472 11.4512C8.70915 11.4078 8.70125 11.3704 8.702 11.3358C8.70846 11.038 8.71589 10.7401 8.71729 10.4422C8.71761 10.3735 8.7396 10.3547 8.80454 10.3571C8.91612 10.3614 9.02802 10.3603 9.13968 10.3575C9.19275 10.3561 9.21901 10.3666 9.21883 10.4289C9.21694 11.1128 9.21667 11.7967 9.21804 12.4806C9.21816 12.5768 9.16415 12.5486 9.11985 12.523C9.00249 12.4552 8.91091 12.3562 8.8167 12.2607C8.79344 12.2427 8.77533 12.2192 8.75234 12.2009Z" fill="#1B194E"/>
<path d="M11.1806 10.3849C11.231 10.4118 11.2804 10.4406 11.332 10.4649C11.3664 10.4811 11.3711 10.5086 11.3708 10.5399C11.3691 10.6753 11.3674 10.8107 11.364 10.946C11.3635 10.9682 11.3698 10.998 11.3441 11.0097C11.3191 11.0212 11.2989 10.9979 11.2833 10.9839C11.194 10.9031 11.0872 10.8552 10.9766 10.8134C10.8159 10.7594 10.6532 10.7607 10.4894 10.7961C10.3243 10.8706 10.197 10.9813 10.1407 11.16C10.1079 11.2187 10.1187 11.2855 10.106 11.3479C10.1062 11.524 10.1129 11.6952 10.222 11.85C10.3733 12.0647 10.6486 12.117 10.8823 12.0549C10.9289 12.0425 10.9087 12.0068 10.9094 11.9804C10.9152 11.7642 10.8407 11.5728 10.7277 11.393C10.7129 11.3694 10.6776 11.3455 10.6986 11.3145C10.7141 11.2916 10.7488 11.3049 10.7747 11.3048C10.9438 11.3039 11.113 11.3073 11.282 11.3029C11.3528 11.301 11.3742 11.3217 11.372 11.3943C11.3632 11.6816 11.3586 11.969 11.3581 12.2565C11.3581 12.3382 11.3297 12.3727 11.2561 12.4139C11.0219 12.5453 10.7736 12.5683 10.5142 12.5578C10.2087 12.5456 9.98828 12.3873 9.81729 12.1526C9.57152 11.8151 9.54836 11.4395 9.65166 11.0474C9.7142 10.7966 9.87327 10.5807 10.0943 10.4466C10.3462 10.2889 10.6228 10.279 10.9064 10.314C10.9365 10.3177 10.9662 10.3251 10.996 10.3308C11.0316 10.3386 11.0629 10.3621 11.1014 10.3587C11.1286 10.3648 11.1552 10.3735 11.1806 10.3849Z" fill="#1B194E"/>
<path d="M16.0171 11.4462C16.0171 11.1145 16.0189 10.7828 16.0156 10.4511C16.015 10.3827 16.0307 10.3561 16.1043 10.357C16.5104 10.3614 16.9166 10.3599 17.3227 10.3635C17.4641 10.3648 17.4707 10.3785 17.423 10.5102C17.3355 10.752 17.2459 10.8155 16.9882 10.8169C16.8528 10.8176 16.7173 10.8193 16.582 10.8162C16.5253 10.8149 16.4936 10.8226 16.4991 10.8915C16.5068 10.9886 16.4687 11.1162 16.5174 11.176C16.5692 11.2396 16.7014 11.1923 16.7984 11.1954C16.9167 11.1991 17.0353 11.1983 17.1537 11.1953C17.205 11.1941 17.2267 11.2078 17.2248 11.2631C17.2211 11.3713 17.2209 11.4798 17.2249 11.5879C17.227 11.6457 17.2009 11.6544 17.152 11.6539C16.9625 11.652 16.7729 11.656 16.5834 11.6517C16.5152 11.6501 16.4951 11.6729 16.4992 11.7384C16.5049 11.8195 16.5048 11.9009 16.4989 11.9819C16.4934 12.0496 16.522 12.0585 16.58 12.0578C16.8068 12.0549 17.0336 12.0587 17.2603 12.0552C17.3216 12.0543 17.3435 12.0705 17.3408 12.1339C17.3361 12.2454 17.3374 12.3573 17.3404 12.4689C17.3419 12.5217 17.3329 12.5471 17.2702 12.5466C16.8776 12.5438 16.485 12.5438 16.0924 12.5464C16.0264 12.5468 16.0155 12.5199 16.0159 12.4615C16.0183 12.1231 16.0171 11.7846 16.0171 11.4462Z" fill="#1B194E"/>
<path d="M13.1583 14.2088C13.1583 14.0554 13.1596 13.9014 13.1578 13.7474C13.1568 13.6527 13.1536 13.5579 13.1466 13.4635C13.1421 13.4033 13.1592 13.3767 13.2242 13.3793C13.3289 13.3834 13.434 13.3831 13.5388 13.3793C13.5984 13.3772 13.6137 13.402 13.6136 13.4571C13.6123 13.9951 13.6124 14.5331 13.6139 15.0711C13.6142 15.1306 13.5927 15.1512 13.537 15.1439C13.5337 15.1434 13.5302 15.1442 13.5269 15.1438C13.4128 15.1282 13.2806 15.1927 13.187 15.1126C13.103 15.0407 13.0541 14.9285 12.9863 14.8367C12.8467 14.6476 12.7047 14.4604 12.5643 14.2718C12.5519 14.255 12.5405 14.2392 12.5171 14.2333C12.4846 14.2539 12.5011 14.2876 12.5018 14.314C12.508 14.5608 12.5144 14.8077 12.5262 15.0543C12.5296 15.1256 12.509 15.1495 12.4372 15.1453C12.3394 15.1395 12.241 15.1417 12.1429 15.1447C12.0905 15.1462 12.0648 15.1376 12.0648 15.0744C12.0652 14.5399 12.0739 14.0052 12.0548 13.4709C12.0528 13.4144 12.0726 13.3909 12.1298 13.3908C12.2109 13.3907 12.294 13.3953 12.3727 13.3798C12.5032 13.3542 12.5675 13.4243 12.633 13.519C12.7867 13.741 12.9477 13.9579 13.1068 14.176C13.1171 14.1901 13.1257 14.2128 13.1583 14.2088Z" fill="#1B194E"/>
<path d="M15.062 11.6862C15.062 11.9467 15.06 12.2073 15.0635 12.4678C15.0643 12.5305 15.047 12.5496 14.9841 12.5466C14.8726 12.5409 14.7608 12.541 14.6493 12.5468C14.5734 12.5512 14.5519 12.5282 14.5524 12.4512C14.5559 11.9505 14.5546 11.4498 14.554 10.949C14.5538 10.7992 14.5706 10.8184 14.4268 10.8174C14.2881 10.8164 14.1493 10.8152 14.0106 10.8182C13.9591 10.8193 13.9393 10.8062 13.9416 10.7509C13.946 10.6428 13.9458 10.5343 13.9417 10.4262C13.9395 10.3709 13.9608 10.3576 14.0114 10.3577C14.5427 10.3588 15.0739 10.3586 15.6051 10.3569C15.6655 10.3567 15.6699 10.3832 15.6689 10.4302C15.6666 10.5351 15.6652 10.6401 15.6694 10.7448C15.6717 10.8015 15.6554 10.82 15.597 10.8185C15.4449 10.8145 15.2925 10.82 15.1403 10.8158C15.0784 10.814 15.0596 10.8309 15.0605 10.8945C15.0641 11.1584 15.062 11.4223 15.062 11.6862Z" fill="#1B194E"/>
<path d="M14.6918 14.454C14.6918 14.6648 14.6902 14.8756 14.693 15.0863C14.6937 15.1371 14.6797 15.1525 14.6288 15.1501C14.5386 15.1455 14.4482 15.1456 14.3579 15.1503C14.2965 15.1538 14.2791 15.1352 14.2795 15.073C14.2824 14.6678 14.2813 14.2626 14.2808 13.8575C14.2806 13.7363 14.2943 13.7518 14.1779 13.751C14.0656 13.7502 13.9534 13.7492 13.8412 13.7516C13.7995 13.7525 13.7835 13.7419 13.7853 13.6972C13.7889 13.6097 13.7887 13.5219 13.7854 13.4344C13.7836 13.3897 13.8009 13.3789 13.8418 13.379C14.2717 13.3799 14.7015 13.3797 15.1313 13.3784C15.1801 13.3782 15.1837 13.3997 15.1829 13.4377C15.1811 13.5226 15.1799 13.6075 15.1833 13.6923C15.1852 13.7381 15.172 13.7531 15.1248 13.7519C15.0016 13.7487 14.8783 13.7531 14.7552 13.7497C14.7051 13.7483 14.6899 13.7619 14.6906 13.8134C14.6936 14.0269 14.6919 14.2404 14.6918 14.454Z" fill="#1B194E"/>
<path d="M7.50317 14.0405C7.66172 14.0579 7.82078 14.0468 7.97952 14.0465C8.04381 14.0464 8.06715 14.0602 8.06604 14.1298C8.06136 14.4236 8.0629 14.4244 7.77296 14.4339C7.76282 14.4342 7.75267 14.4345 7.74251 14.4347C7.50945 14.4386 7.51218 14.4385 7.51501 14.674C7.51581 14.7401 7.53844 14.752 7.59825 14.7489C7.75704 14.7408 7.91625 14.7409 8.07509 14.7335C8.13006 14.731 8.15486 14.7425 8.14994 14.8034C8.14315 14.8876 8.14457 14.9725 8.14116 15.057C8.13895 15.112 8.11632 15.1394 8.05349 15.1401C7.71849 15.1436 7.38352 15.1499 7.04858 15.159C6.98508 15.1606 6.96883 15.1382 6.96891 15.0774C6.96967 14.5393 6.96831 14.0012 6.96485 13.463C6.96434 13.3941 6.9867 13.3779 7.05154 13.3784C7.37306 13.3812 7.6946 13.3812 8.01616 13.3785C8.08357 13.3779 8.11178 13.3935 8.11276 13.4679C8.11647 13.7514 8.11902 13.7514 7.83508 13.7597C7.81818 13.7602 7.80125 13.76 7.78434 13.7602C7.71458 13.779 7.64339 13.7682 7.57312 13.7674C7.51926 13.7669 7.49877 13.79 7.49945 13.8388C7.5004 13.906 7.49263 13.9735 7.50317 14.0405Z" fill="#1B194E"/>
<path d="M11.2391 14.0397C11.3905 14.0589 11.5426 14.0481 11.6943 14.0464C11.7705 14.0455 11.7877 14.0735 11.7789 14.1414C11.7362 14.471 11.8141 14.4181 11.4776 14.4346C11.464 14.4352 11.4505 14.4349 11.437 14.435C11.2109 14.4366 11.213 14.4365 11.2281 14.6634C11.2318 14.7192 11.2467 14.7387 11.3044 14.7372C11.4532 14.7334 11.6023 14.7399 11.751 14.7344C11.8321 14.7314 11.8629 14.7481 11.8561 14.8396C11.8341 15.1378 11.8381 15.1381 11.5361 15.1411C11.2857 15.1437 11.0353 15.1445 10.785 15.15C10.7097 15.1516 10.6809 15.1324 10.6807 15.049C10.6794 14.5347 10.6739 14.0204 10.6641 13.5061C10.6624 13.4149 10.6921 13.3903 10.7787 13.3903C11.0934 13.3903 11.4081 13.3853 11.7227 13.3785C11.7864 13.3771 11.8138 13.39 11.809 13.4606C11.8023 13.5583 11.8065 13.6567 11.8061 13.7548C11.7776 13.7885 11.7382 13.7787 11.7024 13.779C11.5713 13.7802 11.4402 13.7811 11.3091 13.7788C11.2489 13.7777 11.2212 13.7986 11.2281 13.8609C11.2346 13.9202 11.2173 13.9812 11.2391 14.0397Z" fill="#1B194E"/>
<path d="M6.6845 14.6795C6.74301 14.6437 6.77757 14.6494 6.77518 14.7287C6.77192 14.8367 6.76877 14.9448 6.76984 15.0529C6.77043 15.113 6.72516 15.1303 6.68628 15.1368C6.44148 15.1779 6.18932 15.2022 5.95194 15.1336C5.68352 15.056 5.49789 14.858 5.44699 14.5795C5.4072 14.3617 5.41649 14.1358 5.46216 13.9147C5.48418 13.808 5.55211 13.7294 5.60988 13.6438C5.63086 13.6238 5.65068 13.6025 5.66926 13.5802C5.80397 13.463 5.95627 13.3815 6.13399 13.3516C6.21669 13.3183 6.30262 13.3407 6.387 13.3369C6.4826 13.3789 6.58804 13.3833 6.68648 13.4147C6.73809 13.4183 6.7671 13.4442 6.76632 13.4977C6.76484 13.5988 6.7665 13.7003 6.75891 13.801C6.75564 13.8444 6.75019 13.8987 6.67183 13.8619C6.26621 13.6712 5.99893 13.8657 5.99576 14.2634C5.99374 14.5156 6.09404 14.6644 6.31718 14.7395C6.3918 14.7627 6.46643 14.7691 6.54106 14.7395L6.62069 14.7153C6.64124 14.7021 6.66553 14.6955 6.6845 14.6795Z" fill="#1B194E"/>
<path d="M4.9845 11.8154C5.03249 11.5677 5.02716 11.32 4.98438 11.0723C4.9931 11.0817 5.00747 11.09 5.00972 11.1008C5.05726 11.3231 5.05816 11.5529 5.01235 11.7756C5.00933 11.7902 4.99407 11.8022 4.9845 11.8154Z" fill="#54537A"/>
<path d="M11.7852 11.0576C11.7912 11.189 11.7565 11.3173 11.7586 11.4494C11.7604 11.5576 11.7977 11.6618 11.7847 11.7702C11.7174 11.5374 11.7176 11.2903 11.7852 11.0576Z" fill="#1B194E"/>
<path d="M10.4883 10.7969C10.6536 10.72 10.8155 10.7416 10.9755 10.8142C10.8146 10.7865 10.6507 10.7807 10.4883 10.7969Z" fill="#4B4973"/>
<path d="M10.1016 11.3466C10.0979 11.2811 10.0731 11.2118 10.1363 11.1587C10.1442 11.2249 10.114 11.2841 10.1016 11.3466Z" fill="#504F77"/>
<path d="M11.8637 10.8701C11.8611 10.9194 11.8534 10.9666 11.8087 10.9977C11.8079 10.9737 11.8124 10.9498 11.8219 10.9278C11.8315 10.9057 11.8457 10.886 11.8637 10.8701Z" fill="#1B194E"/>
<path d="M12.0112 10.6338C12.0083 10.6744 11.9781 10.6939 11.9492 10.7145C11.9498 10.6721 11.978 10.6511 12.0112 10.6338Z" fill="#1B194E"/>
<path d="M4.67612 10.5911C4.63384 10.5926 4.6152 10.5607 4.59375 10.5327C4.63561 10.5319 4.65623 10.561 4.67612 10.5911Z" fill="#706F90"/>
<path d="M6.19531 12.1374C6.23206 12.1295 6.2615 12.1386 6.27972 12.1737C6.24237 12.183 6.21792 12.1624 6.19531 12.1374Z" fill="#55547B"/>
<path d="M7.11154 12.4611C7.07567 12.4439 7.06545 12.4147 7.07232 12.3774C7.08675 12.3856 7.09827 12.398 7.1053 12.413C7.11233 12.428 7.11451 12.4448 7.11154 12.4611Z" fill="#494872"/>
<path d="M8.75391 12.1982C8.76901 12.2016 8.78294 12.2089 8.79426 12.2194C8.80558 12.2299 8.81387 12.2433 8.81827 12.2581C8.78056 12.2556 8.76333 12.2311 8.75391 12.1982Z" fill="#636286"/>
<path d="M9.75391 8.05029C9.81588 8.05739 9.88211 8.04658 9.93464 8.09334C9.87249 8.08698 9.80298 8.11151 9.75391 8.05029Z" fill="#5B597F"/>
<path d="M13.7414 11.2382C13.7103 10.8474 13.4189 10.4557 13.0488 10.3249C12.963 10.2883 12.8705 10.285 12.7803 10.2702C12.6408 10.2674 12.509 10.3032 12.3793 10.3496C12.3544 10.3688 12.3232 10.3747 12.2962 10.3894C12.187 10.4537 12.1 10.5436 12.0125 10.6331C11.9923 10.6603 11.97 10.686 11.9505 10.7138C11.9252 10.7679 11.873 10.8074 11.8653 10.871C11.8457 10.913 11.8305 10.9569 11.8103 10.9986C11.8027 11.0186 11.7951 11.0386 11.7874 11.0586C11.7429 11.294 11.7427 11.5357 11.787 11.7712C11.8222 11.8837 11.8612 11.9949 11.9283 12.0929C12.2279 12.5301 12.5471 12.6247 12.9967 12.5324C13.309 12.4683 13.5207 12.2332 13.6515 11.9412C13.7518 11.7174 13.7608 11.4805 13.7414 11.2382ZM13.0733 11.9086C12.8563 12.1422 12.5189 12.0975 12.3584 11.8216C12.2318 11.6039 12.2107 11.3776 12.2989 11.1414C12.3155 11.116 12.3164 11.0833 12.337 11.0597C12.4297 10.8812 12.5675 10.769 12.7775 10.784C12.9988 10.7998 13.1221 10.9401 13.1935 11.1371C13.2328 11.2081 13.2327 11.2884 13.2481 11.3651C13.2596 11.5688 13.2138 11.7574 13.0733 11.9086Z" fill="#1B194E"/>
<path d="M4.98411 11.0733C4.94581 10.8712 4.83251 10.7172 4.67504 10.5916C4.64598 10.5744 4.62353 10.5479 4.59267 10.5332C4.41247 10.4213 4.20604 10.3587 3.99404 10.3517C3.71826 10.3404 3.44267 10.326 3.16665 10.3337C3.10967 10.3353 3.03383 10.3277 3.05415 10.4277C3.07464 10.4623 3.09231 10.4984 3.107 10.5358C3.12982 10.6066 3.17756 10.6617 3.22342 10.7174C3.28893 10.7969 3.32315 10.8799 3.32161 10.9897C3.31475 11.4765 3.32023 11.9634 3.31697 12.4503C3.31647 12.525 3.33393 12.5513 3.41221 12.5471C3.57079 12.5386 3.73016 12.5449 3.88871 12.5361C4.10974 12.5238 4.33455 12.5241 4.5312 12.3959C4.74853 12.2542 4.91873 12.0765 4.98424 11.8165C5.05247 11.5688 5.04858 11.321 4.98411 11.0733ZM4.48874 11.7281C4.49355 11.7724 4.45699 11.7876 4.4311 11.8104C4.26624 12.0254 4.03245 12.0564 3.78546 12.0521C3.7614 12.0303 3.77173 12.0015 3.77168 11.9758C3.77097 11.6286 3.77087 11.2813 3.77138 10.9341C3.77153 10.8277 3.78212 10.8163 3.88964 10.8357C3.97535 10.8512 4.06618 10.8294 4.14765 10.8724C4.48863 10.9828 4.65573 11.3661 4.48874 11.7281Z" fill="#1B194E"/>
<path d="M7.11039 12.4611C7.08895 12.4372 7.08833 12.4034 7.07117 12.3774C7.02382 12.266 6.97749 12.1542 6.92892 12.0433C6.78354 11.7115 6.63765 11.3798 6.49127 11.0484C6.40036 10.8424 6.30756 10.6372 6.21758 10.4308C6.18922 10.3658 6.13753 10.3574 6.07664 10.3579C6.02558 10.3583 5.97987 10.3678 5.96156 10.421C5.92122 10.5382 5.86304 10.6471 5.81172 10.7593C5.60759 11.2055 5.40621 11.653 5.20378 12.1001C5.15272 12.2128 5.09995 12.3248 5.05093 12.4384C5.00545 12.5438 5.02141 12.5624 5.13703 12.5462C5.15365 12.5438 5.17011 12.5404 5.18632 12.5361C5.4151 12.4742 5.59747 12.3535 5.69121 12.1267C5.71698 12.0644 5.75841 12.0468 5.81828 12.059C5.94349 12.0845 6.06839 12.1115 6.19342 12.1379C6.22014 12.1534 6.25166 12.1576 6.27783 12.1743C6.3451 12.212 6.41668 12.2437 6.47879 12.2885C6.64907 12.4114 6.83938 12.4899 7.03853 12.5475C7.13577 12.5756 7.14334 12.5619 7.11039 12.4611ZM6.05824 11.6363C5.90973 11.6002 5.90843 11.5943 5.97346 11.4531C6.00849 11.377 6.04101 11.2998 6.07466 11.2231C6.07705 11.2077 6.07698 11.1865 6.09906 11.1903C6.13101 11.1957 6.13605 11.2211 6.13208 11.2492C6.17037 11.4076 6.26712 11.5439 6.31005 11.7089C6.21186 11.7167 6.14056 11.6564 6.05824 11.6363Z" fill="#1B194E"/>
</svg>
