<svg width="19" height="18" viewBox="0 0 19 18" fill="none" xmlns="http://www.w3.org/2000/svg">
<g clip-path="url(#clip0_1704_66247)">
<rect x="0.25" width="18" height="18" rx="9" fill="white"/>
<path d="M18.2329 17.9995H0.270493C0.256537 17.9735 0.263413 17.9455 0.263411 17.9185C0.263064 11.973 0.263063 6.02757 0.263409 0.0820954C0.26341 0.0550765 0.256571 0.0269666 0.270493 0.000976562H18.2329C18.2468 0.0269077 18.24 0.0549704 18.24 0.0819334C18.2403 6.02746 18.2403 11.973 18.24 17.9185C18.24 17.9455 18.2468 17.9735 18.2329 17.9995Z" fill="#DE4303"/>
<path d="M0.268807 0.000976562C0.268893 5.22336 0.268973 10.4457 0.26905 15.6681C0.269059 16.4452 0.268978 17.2224 0.268807 17.9995C0.264197 17.9962 0.253184 18.007 0.253668 17.992C0.254308 17.972 0.253825 17.952 0.253825 17.932C0.253826 11.9775 0.254134 6.02297 0.254749 0.068471C0.254753 0.046523 0.237475 0.0176146 0.268807 0.000976562Z" fill="#FEFEFE"/>
<path d="M18.2305 17.9992V0.000758362C18.2351 0.00402836 18.2461 -0.00682654 18.2456 0.00826271C18.245 0.0282405 18.2455 0.0482542 18.2455 0.0682527C18.2455 6.02275 18.2451 11.9772 18.2445 17.9317C18.2445 17.9537 18.2618 17.9826 18.2305 17.9992Z" fill="#E04A0B"/>
<path d="M12.8077 2.56034C13.5291 2.56034 14.2506 2.56145 14.972 2.5586C15.0424 2.55832 15.0561 2.5793 15.056 2.64551C15.0541 4.09002 15.0542 5.53453 15.0561 6.97905C15.0562 7.04447 15.0414 7.06172 14.9747 7.06162C13.5293 7.05949 12.084 7.05955 10.6387 7.06178C10.5694 7.0619 10.5586 7.0406 10.5587 6.97785C10.5605 5.53084 10.5604 4.08383 10.5586 2.63681C10.5585 2.57465 10.5734 2.55862 10.636 2.55883C11.3599 2.5612 12.0838 2.56034 12.8077 2.56034Z" fill="#FEFEFE"/>
<path d="M6.24282 13.2243C6.24282 13.5842 6.24298 13.9442 6.24328 14.3041C6.24336 14.3414 6.24183 14.3684 6.19564 14.3803C5.7029 14.507 5.20459 14.5921 4.69387 14.5615C4.26917 14.5361 3.91604 14.3751 3.69268 13.9908C3.58945 13.8107 3.51878 13.6138 3.48391 13.4092C3.37943 12.8249 3.36933 12.2406 3.52214 11.6631C3.64699 11.1912 3.90545 10.8205 4.37223 10.6267C4.65931 10.5076 4.96144 10.4834 5.26817 10.4955C5.52533 10.5072 5.778 10.5672 6.01307 10.6721C6.05868 10.6919 6.07517 10.7169 6.07413 10.7673C6.07069 10.9347 6.07138 11.1023 6.07366 11.2697C6.07439 11.3233 6.06158 11.3326 6.00966 11.3143C5.74639 11.2202 5.47144 11.1626 5.19251 11.1433C4.81279 11.1184 4.52012 11.2937 4.35967 11.6431C4.25804 11.8643 4.21797 12.1001 4.20864 12.3411C4.1945 12.7065 4.20129 13.0706 4.30957 13.4249C4.32993 13.4917 4.35654 13.5565 4.38904 13.6184C4.51398 13.8558 4.70893 13.9644 4.97753 13.9431C5.11689 13.9321 5.25591 13.9205 5.39404 13.898C5.4354 13.8913 5.45138 13.8781 5.4511 13.8322C5.44886 13.4698 5.44882 13.1074 5.45098 12.745C5.45128 12.6943 5.43489 12.6814 5.38692 12.6824C5.24967 12.6851 5.11225 12.6807 4.97506 12.6846C4.92257 12.6862 4.9066 12.6672 4.90261 12.6184C4.88896 12.4516 4.87368 12.2849 4.85547 12.1186C4.84994 12.0681 4.879 12.0748 4.9089 12.0748C5.11611 12.0749 5.32331 12.075 5.53052 12.0749C5.74522 12.0749 5.95995 12.0771 6.17459 12.0734C6.23212 12.0724 6.24448 12.0896 6.2441 12.1446C6.24162 12.5045 6.24282 12.8644 6.24282 13.2243Z" fill="#FEFEFE"/>
<path d="M15.0694 12.5398C15.0733 12.9429 15.0505 13.3441 14.9192 13.73C14.8036 14.0694 14.6151 14.3473 14.2649 14.483C14.1623 14.5224 14.0547 14.5472 13.9452 14.5565C13.7258 14.576 13.5061 14.5798 13.2882 14.5435C12.8704 14.474 12.6033 14.222 12.4466 13.8385C12.3241 13.5387 12.2761 13.2231 12.2583 12.9032C12.2346 12.4784 12.2392 12.0538 12.3281 11.6347C12.3813 11.3838 12.4633 11.1441 12.6172 10.9347C12.7916 10.6974 13.0271 10.5603 13.3161 10.5139C13.5579 10.4728 13.8051 10.4754 14.046 10.5216C14.4564 10.6033 14.7171 10.8622 14.8743 11.2385C15.0021 11.5445 15.0489 11.8674 15.0683 12.1951C15.075 12.3096 15.0694 12.4249 15.0694 12.5398Z" fill="#FEFEFE"/>
<path d="M11.8233 11.2676C11.6567 11.2152 11.4959 11.1726 11.3302 11.1529C11.2587 11.1421 11.1866 11.1359 11.1143 11.1344C10.8796 11.137 10.7043 11.242 10.5932 11.4509C10.4916 11.6419 10.4496 11.8501 10.431 12.0618C10.3953 12.4685 10.3926 12.8753 10.4716 13.2786C10.4932 13.399 10.5329 13.5156 10.5894 13.6241C10.7 13.8292 10.8719 13.9281 11.1037 13.9173C11.3257 13.9079 11.5454 13.8679 11.7565 13.7984C11.8065 13.7817 11.8259 13.7823 11.8246 13.8441C11.821 14.0165 11.8229 14.1889 11.8237 14.3613C11.8239 14.3958 11.8214 14.4206 11.7809 14.4359C11.354 14.5973 10.9191 14.6222 10.4821 14.4945C10.17 14.4032 9.97088 14.1777 9.83879 13.8877C9.71502 13.616 9.66132 13.3269 9.63628 13.0326C9.60103 12.6183 9.60042 12.2042 9.67643 11.7931C9.71516 11.5836 9.77552 11.3811 9.87385 11.1912C10.0794 10.7943 10.4041 10.5631 10.846 10.5036C11.1538 10.4596 11.4677 10.4934 11.759 10.602C11.8097 10.621 11.8255 10.6458 11.8246 10.6988C11.8213 10.8858 11.8233 11.0729 11.8233 11.2676Z" fill="#FEFEFE"/>
<path d="M7.65816 12.8623C7.65816 12.345 7.6564 11.8277 7.66011 11.3104C7.66065 11.2352 7.63829 11.221 7.56844 11.2221C7.30143 11.2263 7.03429 11.2224 6.76723 11.225C6.71422 11.2255 6.69395 11.2164 6.69538 11.1568C6.69983 10.972 6.69853 10.787 6.69593 10.6021C6.69529 10.5565 6.70663 10.5434 6.75358 10.5435C7.62222 10.5449 8.49086 10.5451 9.3595 10.5438C9.4007 10.5437 9.41651 10.5513 9.41002 10.597C9.38229 10.7922 9.35651 10.9878 9.33269 11.1836C9.32632 11.2355 9.29055 11.2234 9.26058 11.2234C9.02096 11.224 8.78128 11.2266 8.54174 11.222C8.47116 11.2207 8.45007 11.2364 8.45027 11.3109C8.45297 12.348 8.4514 13.3851 8.45363 14.4222C8.45379 14.4938 8.44259 14.5211 8.36206 14.5183C8.15762 14.5114 7.9527 14.5129 7.74814 14.5178C7.67799 14.5194 7.65573 14.5042 7.65625 14.4292C7.65987 13.9069 7.65816 13.3846 7.65816 12.8623Z" fill="#FEFEFE"/>
<path d="M14.285 12.5223C14.278 12.8544 14.2728 13.1867 14.1852 13.5106C14.1626 13.6002 14.1277 13.6861 14.0813 13.766C13.8901 14.0845 13.4484 14.0906 13.2496 13.7767C13.1458 13.6128 13.1033 13.4272 13.0791 13.2388C13.0114 12.7281 13.0155 12.2103 13.0914 11.7007C13.1092 11.5695 13.148 11.442 13.2062 11.323C13.2993 11.139 13.4503 11.056 13.6537 11.0542C13.8577 11.0524 14.0095 11.1356 14.1042 11.3178C14.2053 11.5122 14.2348 11.725 14.2582 11.9386C14.2794 12.1324 14.2809 12.3275 14.285 12.5223Z" fill="#DF4403"/>
</g>
<defs>
<clipPath id="clip0_1704_66247">
<rect x="0.25" width="18" height="18" rx="9" fill="white"/>
</clipPath>
</defs>
</svg>
