<svg width="21" height="20" viewBox="0 0 21 20" fill="none" xmlns="http://www.w3.org/2000/svg">
<rect x="0.75" y="0.5" width="19" height="19" rx="9.5" fill="white"/>
<rect x="0.75" y="0.5" width="19" height="19" rx="9.5" stroke="#D9D8D5"/>
<path d="M3.5625 8.39662C3.57096 8.39285 3.56959 8.38393 3.57176 8.37741C3.60104 8.28593 3.67651 8.22635 3.77337 8.22543C3.92317 8.22406 4.07321 8.22177 4.2229 8.22635C4.3663 8.23081 4.47756 8.29748 4.548 8.42372C4.67905 8.65849 4.80793 8.89429 4.93772 9.12975L5.70035 10.5134C5.70456 10.5222 5.71051 10.53 5.71785 10.5363V10.5103C5.71427 9.84221 5.71076 9.17412 5.70733 8.50606C5.70733 8.39948 5.76691 8.31589 5.86239 8.28879C5.88507 8.2828 5.90847 8.28002 5.93192 8.28055H11.126C11.2199 8.28055 11.2827 8.34402 11.2829 8.43836C11.2829 8.50023 11.2829 8.56209 11.2829 8.62407C11.2829 8.72642 11.2215 8.78771 11.119 8.78771H6.40763C6.37333 8.78771 6.37333 8.78771 6.37333 8.82202V11.416C6.37458 11.4453 6.37161 11.4745 6.36452 11.5029C6.35324 11.5451 6.3284 11.5823 6.29384 11.6089C6.25928 11.6354 6.21692 11.6499 6.17332 11.65C6.0202 11.6533 5.86674 11.6589 5.71396 11.6471C5.5964 11.6381 5.50549 11.5793 5.44614 11.4763C5.0451 10.7803 4.66076 10.075 4.27012 9.37321C4.26544 9.36486 4.26029 9.35674 4.25183 9.34245C4.25183 9.35834 4.25183 9.36715 4.25183 9.37595C4.25541 10.0566 4.25899 10.7372 4.26258 11.4177C4.26383 11.4453 4.26121 11.473 4.2548 11.4999C4.24488 11.5391 4.22309 11.5744 4.19239 11.6008C4.16169 11.6273 4.12359 11.6436 4.08327 11.6476C3.97311 11.6565 3.86242 11.6568 3.75221 11.6485C3.65856 11.642 3.59784 11.5873 3.57073 11.4967C3.56925 11.4916 3.57073 11.4843 3.5633 11.4821L3.5625 8.39662Z" fill="#005594"/>
<path d="M14.9937 11.6878C14.961 11.6724 14.9251 11.6724 14.8908 11.6644C14.5502 11.5849 14.2932 11.3924 14.1192 11.0911C13.9625 10.8196 13.9094 10.5251 13.9435 10.2147C13.9739 9.93754 14.0757 9.68985 14.2625 9.48035C14.4479 9.27268 14.6815 9.15158 14.9555 9.10973C15.1942 9.07336 15.4301 9.08926 15.6581 9.17159C15.9744 9.28595 16.1905 9.50539 16.3195 9.81312C16.3737 9.94185 16.4072 10.0784 16.4187 10.2176C16.4237 10.2927 16.4241 10.3681 16.4199 10.4432C16.4173 10.509 16.3576 10.5677 16.2852 10.584C16.254 10.5901 16.2222 10.5928 16.1904 10.592H14.6303C14.5928 10.592 14.5979 10.5887 14.6021 10.6221C14.6385 10.9123 14.8728 11.1595 15.2059 11.1434C15.2867 11.1396 15.366 11.1288 15.4414 11.0993C15.541 11.0601 15.6261 10.9914 15.6854 10.9023C15.7023 10.8757 15.7257 10.8538 15.7535 10.8389C15.7812 10.824 15.8124 10.8165 15.8439 10.8172C15.9679 10.8172 16.0917 10.8184 16.2156 10.8172C16.3071 10.8159 16.3507 10.916 16.3344 10.9786C16.2843 11.1714 16.1743 11.3217 16.0166 11.44C15.8495 11.5658 15.6594 11.6367 15.4551 11.6738C15.4302 11.6784 15.404 11.6771 15.3806 11.6885L14.9937 11.6878Z" fill="#005694"/>
<path d="M10.0989 11.6877C10.0676 11.673 10.0331 11.6743 10.0001 11.6678C9.81099 11.6305 9.63329 11.5648 9.47559 11.4527C9.3601 11.37 9.26495 11.2697 9.21258 11.1348C9.18866 11.0694 9.17937 10.9996 9.18536 10.9303C9.18845 10.8795 9.23819 10.8283 9.29023 10.8194C9.29775 10.8178 9.30541 10.817 9.3131 10.817C9.43523 10.818 9.55759 10.8132 9.67972 10.8197C9.73907 10.8229 9.78881 10.8468 9.81031 10.9049C9.85033 11.0124 9.93107 11.0764 10.0327 11.1151C10.2135 11.1848 10.3976 11.1846 10.5807 11.1249C10.6683 11.0965 10.7271 11.037 10.7408 10.9406C10.7501 10.872 10.7278 10.819 10.6708 10.7805C10.6203 10.7462 10.5624 10.7301 10.5047 10.7127C10.3198 10.6569 10.133 10.6093 9.94433 10.5699C9.79824 10.54 9.65944 10.4818 9.53586 10.3983C9.3872 10.2977 9.28039 10.1649 9.25295 9.98402C9.20972 9.69916 9.30612 9.46805 9.53963 9.29709C9.67022 9.20138 9.81968 9.14843 9.97738 9.1203C10.2245 9.07593 10.4706 9.08016 10.7131 9.14923C10.8953 9.20115 11.0603 9.28462 11.1907 9.42608C11.2807 9.52362 11.3377 9.63661 11.3409 9.772C11.3413 9.78749 11.3386 9.80291 11.333 9.81735C11.3274 9.83179 11.319 9.84497 11.3082 9.85612C11.2975 9.86728 11.2846 9.87618 11.2704 9.88231C11.2561 9.88844 11.2408 9.89168 11.2253 9.89185C11.1131 9.89242 11.001 9.89185 10.8888 9.89185C10.8653 9.89207 10.8419 9.88844 10.8196 9.8811C10.807 9.87756 10.7954 9.87131 10.7855 9.86277C10.7756 9.85423 10.7677 9.84362 10.7624 9.8317C10.7121 9.71242 10.6173 9.64644 10.4968 9.61522C10.3481 9.57657 10.1987 9.5736 10.0522 9.62574C9.95931 9.65891 9.91174 9.73003 9.90808 9.82552C9.9068 9.84813 9.91125 9.87071 9.92102 9.89114C9.9308 9.91157 9.94558 9.9292 9.964 9.94239C10.0027 9.97269 10.0477 9.99065 10.0932 10.0073C10.2033 10.0479 10.3196 10.0653 10.4321 10.0971C10.5767 10.1379 10.7246 10.1672 10.8677 10.2134C11.0139 10.2604 11.1448 10.3345 11.2476 10.4515C11.362 10.5821 11.4116 10.7365 11.4084 10.9083C11.4028 11.2136 11.2435 11.4178 10.9798 11.5514C10.8382 11.6231 10.6863 11.6614 10.5296 11.6825C10.5251 11.6825 10.5192 11.681 10.5171 11.6878L10.0989 11.6877Z" fill="#005694"/>
<path d="M11.6776 10.3056V9.69361C11.6776 9.65622 11.6776 9.65622 11.6389 9.65622C11.6046 9.65622 11.5703 9.65622 11.536 9.65622C11.4998 9.65532 11.4652 9.6408 11.4392 9.61553C11.4131 9.59027 11.3976 9.55613 11.3956 9.51991C11.3942 9.45221 11.3941 9.3844 11.3956 9.3167C11.396 9.28155 11.4102 9.24796 11.4351 9.22311C11.46 9.19826 11.4936 9.18412 11.5287 9.18371C11.5697 9.18222 11.6108 9.18199 11.6518 9.18371C11.6729 9.18462 11.6781 9.17787 11.6781 9.15718C11.6773 8.92309 11.6781 8.68901 11.6774 8.45493C11.6774 8.38631 11.6981 8.32914 11.7536 8.28591C11.7864 8.26069 11.8267 8.24712 11.868 8.24737C11.9626 8.24669 12.0571 8.246 12.1517 8.24737C12.256 8.24898 12.3324 8.3344 12.3326 8.44795C12.3326 8.67796 12.3326 8.90788 12.3326 9.13774C12.3326 9.18348 12.3326 9.18348 12.3784 9.18348C12.5082 9.18348 12.6379 9.18348 12.7672 9.18348C12.8396 9.18348 12.887 9.21961 12.9023 9.2832C12.9052 9.29622 12.9065 9.30954 12.9062 9.32288C12.9067 9.38646 12.9067 9.45 12.9062 9.5135C12.9062 9.59938 12.849 9.65633 12.7627 9.65645C12.6271 9.65645 12.4915 9.65645 12.3558 9.65645C12.3364 9.65645 12.3311 9.66114 12.3311 9.68092C12.3317 10.0438 12.3317 10.4066 12.3311 10.7695C12.3311 10.8445 12.3449 10.9159 12.3839 10.9807C12.4441 11.0806 12.5365 11.1293 12.6501 11.1417C12.6849 11.1455 12.7203 11.1443 12.7554 11.1459C12.8375 11.1497 12.8939 11.2075 12.8948 11.2899C12.8956 11.361 12.8955 11.432 12.8948 11.503C12.8942 11.5842 12.8334 11.6517 12.7523 11.6517C12.621 11.6524 12.4893 11.6589 12.3585 11.6444C12.2045 11.6275 12.0593 11.564 11.9423 11.4625C11.8254 11.361 11.7421 11.2262 11.7037 11.0762C11.6849 11.0014 11.6755 10.9245 11.6759 10.8474C11.677 10.6668 11.6775 10.4862 11.6776 10.3056Z" fill="#005694"/>
<path d="M13.7323 9.95082C13.7323 10.4457 13.7302 10.9407 13.7338 11.4356C13.7347 11.5648 13.6368 11.6556 13.5145 11.6529C13.43 11.6507 13.3454 11.6529 13.2609 11.6529C13.1359 11.6529 13.0567 11.5745 13.0561 11.4498C13.054 10.9924 13.0522 10.5349 13.0507 10.0775C13.0485 9.53835 13.0474 8.99905 13.0431 8.45987C13.0422 8.43167 13.0472 8.4036 13.0577 8.37739C13.0681 8.35118 13.0838 8.32739 13.1038 8.30746C13.1237 8.28754 13.1476 8.27192 13.1738 8.26155C13.2 8.25118 13.2281 8.24629 13.2563 8.24717C13.3478 8.24877 13.4393 8.24717 13.53 8.24774C13.5755 8.24736 13.6199 8.26234 13.6559 8.29027C13.6919 8.31819 13.7174 8.35744 13.7284 8.40166C13.7319 8.42051 13.7332 8.4397 13.7323 8.45884V9.95082Z" fill="#005694"/>
<path d="M15.2003 8.77672H14.2187C14.1844 8.77672 14.1519 8.77078 14.1262 8.74573C14.1153 8.73464 14.1069 8.72143 14.1014 8.70693C14.0958 8.69243 14.0933 8.67695 14.0941 8.66145C14.0941 8.618 14.0934 8.57443 14.0941 8.53109C14.0952 8.45619 14.1339 8.41262 14.2084 8.40473C14.4121 8.38285 14.6159 8.36146 14.8196 8.34057C15.0426 8.3177 15.2656 8.29483 15.4885 8.27196C15.6965 8.251 15.9045 8.23034 16.1125 8.20998C16.1326 8.20893 16.1526 8.20683 16.1724 8.20369C16.2797 8.18082 16.3601 8.27425 16.3628 8.36379C16.3654 8.44647 16.3652 8.52926 16.3628 8.61194C16.3603 8.70491 16.2818 8.77604 16.1848 8.77615C15.9463 8.77615 15.7078 8.77615 15.4693 8.77615L15.2003 8.77672Z" fill="#005694"/>
<path d="M15.182 10.1074H14.6445C14.6102 10.1074 14.6102 10.1074 14.6164 10.0731C14.6507 9.87871 14.7612 9.74217 14.9393 9.66143C15.1968 9.54536 15.5124 9.63342 15.6664 9.86155C15.7114 9.92823 15.7402 10.0045 15.7503 10.0843C15.753 10.1033 15.7483 10.108 15.729 10.1079C15.5468 10.1071 15.3644 10.1074 15.182 10.1074Z" fill="#FEFEFE"/>
<path fill-rule="evenodd" clip-rule="evenodd" d="M7.59641 11.671C7.61944 11.6746 7.64246 11.6781 7.66457 11.6877H8.04571C8.05488 11.681 8.0655 11.6803 8.076 11.6796C8.08017 11.6793 8.08433 11.679 8.08837 11.6784C8.29444 11.6464 8.48644 11.5794 8.65831 11.4583C8.83018 11.3372 8.95266 11.1804 9.00252 10.9726C9.0071 10.9543 9.00751 10.9352 9.00371 10.9167C8.99991 10.8982 8.99201 10.8808 8.98057 10.8658C8.96914 10.8508 8.95448 10.8386 8.93767 10.83C8.92086 10.8214 8.90234 10.8167 8.88347 10.8163C8.80144 10.8158 8.71941 10.816 8.63738 10.8161C8.59637 10.8162 8.55535 10.8163 8.51434 10.8163C8.48238 10.8152 8.45068 10.8224 8.42241 10.8374C8.39414 10.8523 8.37028 10.8744 8.35321 10.9015C8.33667 10.9257 8.31828 10.9487 8.29821 10.9701C8.20478 11.0709 8.08723 11.1225 7.95183 11.1381C7.81643 11.1536 7.68584 11.1392 7.56588 11.0706C7.39653 10.9733 7.30218 10.8243 7.27188 10.6333C7.26525 10.5917 7.26639 10.5917 7.30882 10.5917H8.85683C8.87936 10.5917 8.90166 10.5907 8.92453 10.5887C9.01247 10.5808 9.07216 10.5282 9.09 10.4428C9.09452 10.4206 9.0967 10.3981 9.09652 10.3754C9.09491 10.1789 9.06232 9.98812 8.98536 9.80641C8.86323 9.51881 8.6638 9.3068 8.37151 9.1889C8.12302 9.08861 7.86549 9.06963 7.60248 9.11365C7.31511 9.16168 7.07713 9.29777 6.89348 9.52373C6.71829 9.73917 6.62715 9.98949 6.60634 10.2639C6.58415 10.5558 6.63847 10.8333 6.78576 11.0886C6.96015 11.3906 7.2171 11.584 7.55845 11.6641C7.57101 11.6671 7.58371 11.669 7.59641 11.671ZM7.30246 10.1072H7.85479C7.90076 10.1072 7.94674 10.1072 7.99272 10.1072C8.13077 10.1072 8.26884 10.1071 8.40678 10.1075C8.4253 10.1075 8.42942 10.1021 8.42622 10.0846C8.41369 10.012 8.38708 9.9426 8.34788 9.88025C8.21455 9.6711 7.95485 9.56841 7.70453 9.62616C7.47891 9.67853 7.30955 9.86161 7.27959 10.0836C7.27673 10.1064 7.28473 10.1072 7.30246 10.1072Z" fill="#005694"/>
</svg>
