<svg width="21" height="20" viewBox="0 0 21 20" fill="none" xmlns="http://www.w3.org/2000/svg">
<rect x="0.75" y="0.5" width="19" height="19" rx="9.5" fill="white"/>
<rect x="0.75" y="0.5" width="19" height="19" rx="9.5" stroke="#D9D8D5"/>
<path d="M15.4233 4.10138C14.3829 4.09683 13.3424 4.09824 12.302 4.09824C12.2865 4.11474 12.2683 4.12854 12.2482 4.13906C12.1129 4.13482 11.9807 4.20419 11.8434 4.15762C11.7824 4.15176 11.7228 4.1523 11.6707 4.19138L11.4853 4.20962C11.3383 4.24186 11.1863 4.26053 11.0438 4.3083C10.4206 4.51999 9.88943 4.83786 9.70162 5.5295C9.6823 5.63198 9.63192 5.72903 9.64919 5.8377V6.29496C9.63833 6.35619 9.64506 6.41438 9.68436 6.46486C9.74211 6.87739 9.84438 7.27678 10.0436 7.64665C10.1286 7.89634 10.2662 8.11986 10.3937 8.34838L11.2262 9.98113C11.3695 10.3346 11.5519 10.6683 11.7398 10.9994C11.8798 11.3569 12.0733 11.6875 12.2554 12.0237C12.3492 12.2565 12.4637 12.4803 12.5976 12.6925L13.4226 14.3535C13.5351 13.7992 13.6322 13.3205 13.7293 12.8417C13.8053 12.574 13.8672 12.3035 13.8993 12.0267C13.9937 11.7278 14.0592 11.4205 14.0947 11.1091C14.1936 10.7941 14.2631 10.4707 14.3022 10.1429C14.467 9.53202 14.5934 8.91279 14.7029 8.29009C14.7795 8.04148 14.8411 7.78984 14.863 7.53016C14.9644 7.21534 15.0294 6.89237 15.0718 6.56462C15.1667 6.24914 15.2367 5.92665 15.2809 5.60017C15.2951 5.56185 15.3134 5.52418 15.3229 5.4851C15.4314 5.04152 15.4891 4.58654 15.6281 4.1498C15.582 4.04363 15.4897 4.10204 15.4233 4.10138ZM11.7342 4.2208L11.7319 4.21787C11.7366 4.21574 11.741 4.21304 11.7449 4.20984C11.7422 4.2142 11.7385 4.21794 11.7342 4.2208Z" fill="#EB0000"/>
<path d="M10.3113 12.6746C10.2477 12.4212 10.0828 12.2143 9.99066 11.974C9.83694 11.6672 9.68318 11.3603 9.52938 11.0534L8.70573 9.41612C8.51423 9.01813 8.33012 8.61624 8.0966 8.23997C8.03668 8.03371 7.92225 7.85502 7.81814 7.67079L7.1036 6.24561L7.04867 6.26667C6.94438 6.77031 6.84001 7.27411 6.73558 7.77805L6.62702 8.29208C6.54321 8.6829 6.45944 9.07397 6.3757 9.46529C6.27387 9.94376 6.17189 10.4222 6.06978 10.9007C5.98575 11.2921 5.90165 11.6835 5.81748 12.0749C5.77829 12.2959 5.69806 12.5091 5.69264 12.7371C5.57995 13.0893 5.52035 13.4536 5.45261 13.8153C5.37676 14.1707 5.30077 14.5261 5.22463 14.8815C5.21215 14.9105 5.19413 14.9384 5.18794 14.9683C5.09675 15.4211 5.03595 15.8802 4.88017 16.319C4.8489 16.4743 4.96702 16.4196 5.03215 16.4197C6.14143 16.4219 7.2507 16.4225 8.35997 16.4213C8.38548 16.3577 8.44356 16.3779 8.49024 16.3726C8.8854 16.3262 9.27817 16.2633 9.6488 16.114C10.2584 15.8684 10.7357 15.5001 10.8132 14.7854C10.9118 14.4722 10.8247 14.1691 10.7628 13.8646C10.6739 13.4444 10.5842 13.0249 10.3113 12.6746Z" fill="#EB0000"/>
</svg>
