<svg width="21" height="20" viewBox="0 0 21 20" fill="none" xmlns="http://www.w3.org/2000/svg">
<rect x="0.75" y="0.5" width="19" height="19" rx="9.5" fill="white"/>
<rect x="0.75" y="0.5" width="19" height="19" rx="9.5" stroke="#D9D8D5"/>
<path d="M11.7891 3.57984C12.0881 3.58078 12.3872 3.58171 12.6862 3.58265C13.2237 3.58359 13.7613 3.58437 14.299 3.58499C15.0313 3.58671 15.7637 3.58886 16.4961 3.59144H16.5469L5.67187 12.4347L5.66016 12.4229C7.30652 10.4396 8.95542 8.45333 10.6069 6.46425H10.5272C10.0685 6.46519 9.60989 6.46616 9.15129 6.46718C8.35341 6.46952 7.55553 6.47058 6.75765 6.47596C6.39537 6.47831 6.08217 6.6048 5.83058 6.8708C5.78349 6.92118 5.74256 6.97697 5.70865 7.03701C5.69108 7.03701 5.69412 7.02811 5.69939 7.01757C5.79458 6.67016 5.88981 6.32268 5.98507 5.97512C6.20574 5.1738 6.42661 4.37253 6.64767 3.57129H6.98992C7.07285 3.583 7.15624 3.57387 7.2394 3.57633C7.27454 3.57738 7.30968 3.57633 7.34482 3.57633H11.4443C11.5597 3.57867 11.6751 3.57269 11.7891 3.57984Z" fill="#7F8184"/>
<path d="M4.44922 16.3709C4.50872 16.3115 4.55229 16.2397 4.60149 16.1727C4.9446 15.7082 5.28712 15.2434 5.62906 14.7782C5.63866 14.765 5.64745 14.7513 5.6622 14.7297H5.60141C5.37126 14.7297 5.1411 14.7283 4.91106 14.7307C4.86561 14.7307 4.85776 14.7163 4.86421 14.6759C4.88154 14.5588 4.89934 14.4404 4.91106 14.322C4.91516 14.2812 4.92933 14.2738 4.96611 14.2739C5.30578 14.2751 5.64475 14.2746 5.98407 14.2746H6.59103L5.38637 15.9114C5.40839 15.925 5.42701 15.9197 5.44493 15.9197C5.70027 15.9197 5.95561 15.9211 6.21095 15.919C6.25605 15.919 6.26846 15.9281 6.26108 15.9749C6.24234 16.092 6.22712 16.21 6.2154 16.329C6.2113 16.3699 6.19889 16.3815 6.15789 16.3815C5.58857 16.3803 5.01917 16.3803 4.44969 16.3815L4.44922 16.3709Z" fill="#808184"/>
<path d="M8.02929 3.58173H7.34373C7.34034 3.57962 7.33916 3.5774 7.34022 3.57517C7.34127 3.57295 7.34244 3.57178 7.34362 3.57178H8.02905C8.03233 3.57389 8.0335 3.57599 8.03245 3.57822C8.03139 3.58044 8.03046 3.58173 8.02929 3.58173Z" fill="#949698"/>
<path d="M8.02734 3.58199C8.02734 3.57871 8.02734 3.57555 8.02734 3.57227H8.7129C8.71618 3.57426 8.71723 3.57625 8.71629 3.57836C8.71536 3.58046 8.7143 3.58164 8.71325 3.58164L8.02734 3.58199Z" fill="#A5A7A9"/>
<path d="M8.71484 3.58115C8.71484 3.57799 8.71484 3.57494 8.71484 3.57178H9.4004C9.40356 3.57365 9.40473 3.57564 9.40379 3.57763C9.40286 3.57962 9.4018 3.5808 9.40075 3.5808L8.71484 3.58115Z" fill="#B6B7B9"/>
<path d="M9.39844 3.5808C9.39844 3.57775 9.39844 3.57482 9.39844 3.57178H10.084C10.0872 3.57365 10.0882 3.57553 10.0873 3.57752C10.0863 3.57951 10.0853 3.58044 10.0842 3.58044L9.39844 3.5808Z" fill="#C7C8C9"/>
<path d="M10.0859 3.58044C10.0859 3.57763 10.0859 3.57471 10.0859 3.57178H10.7711C10.7744 3.57353 10.7755 3.57541 10.7745 3.5774C10.7736 3.57939 10.7725 3.58033 10.7715 3.58033L10.0859 3.58044Z" fill="#D8D9D9"/>
<path d="M10.7695 3.58033C10.7695 3.57752 10.7695 3.57459 10.7695 3.57178H11.445C11.4483 3.57353 11.4493 3.57541 11.4483 3.57728C11.4472 3.57916 11.4463 3.58021 11.4452 3.58021L10.7695 3.58033Z" fill="#E9E9EA"/>
<path d="M7.34131 3.57178C7.34131 3.57506 7.34131 3.57845 7.34131 3.58173C7.24093 3.58173 7.14067 3.58173 7.04029 3.58173C7.02272 3.58173 7.00316 3.58841 6.98828 3.57201L7.34131 3.57178Z" fill="#888A8D"/>
<path d="M11.4453 3.58021C11.4453 3.5774 11.4453 3.57459 11.4453 3.57178H11.788C11.788 3.57459 11.788 3.57728 11.788 3.58009L11.4453 3.58021Z" fill="#F6F6F6"/>
<path d="M15.9933 9.76217C15.973 9.93212 15.9389 10.0998 15.908 10.2679C15.751 11.1206 15.5675 11.9675 15.3574 12.8087C15.2989 13.0429 15.235 13.2754 15.1755 13.5093C15.1668 13.5437 15.1521 13.5526 15.117 13.5527C14.4718 13.5554 13.8267 13.559 13.1817 13.5635C11.9635 13.5704 10.7454 13.5772 9.52725 13.5837L7.72347 13.5938L4.8961 13.6098H4.83203C8.53697 10.6103 12.2348 7.61653 15.9254 4.62842L15.9371 4.63955L10.9966 10.6459C11.0044 10.663 11.0179 10.6557 11.0279 10.6557C12.288 10.6525 13.548 10.6461 14.8081 10.6473C15.0631 10.6473 15.2701 10.5528 15.4564 10.3924C15.6742 10.205 15.8463 9.98167 15.9835 9.73019C16.007 9.73453 15.9947 9.74999 15.9933 9.76217Z" fill="#EC1C24"/>
<path d="M9.65239 15.6952C9.65895 15.5907 9.66129 15.4857 9.673 15.3818C9.69901 15.1501 9.72969 14.919 9.75863 14.6878C9.77385 14.5663 9.79107 14.4451 9.80407 14.3234C9.80805 14.2853 9.8207 14.273 9.85971 14.2737C10.0003 14.2761 10.142 14.2758 10.283 14.2737C10.3205 14.2731 10.3326 14.2811 10.3274 14.3206C10.2626 14.8177 10.1987 15.3149 10.1357 15.8123C10.1122 15.9904 10.0888 16.1682 10.0671 16.3462C10.064 16.3715 10.0561 16.3806 10.0302 16.3805C9.87728 16.3796 9.72442 16.379 9.57157 16.3805C9.53737 16.3805 9.52987 16.3579 9.51793 16.3368C9.37538 16.0839 9.23389 15.8304 9.09041 15.5781C8.97609 15.3771 8.85767 15.1781 8.79887 14.9501C8.79559 15.0157 8.79196 15.0813 8.78939 15.1469C8.78165 15.3467 8.74605 15.5435 8.72297 15.7417C8.6999 15.9399 8.67085 16.1374 8.64707 16.3354C8.64297 16.3689 8.63536 16.381 8.5994 16.3805C8.45334 16.3785 8.30658 16.3788 8.16099 16.3805C8.12679 16.3805 8.11777 16.3707 8.1221 16.3375C8.17512 15.9336 8.22764 15.5295 8.27964 15.1254C8.31455 14.8543 8.34871 14.5831 8.38213 14.3118C8.38588 14.281 8.39607 14.273 8.42535 14.2733C8.57488 14.2746 8.72442 14.2746 8.87395 14.2733C8.88532 14.272 8.89678 14.2745 8.9067 14.2802C8.91661 14.2859 8.92446 14.2946 8.92912 14.305C9.12414 14.6517 9.32127 14.9971 9.51547 15.3443C9.56888 15.4397 9.59746 15.5461 9.63189 15.6488C9.63705 15.664 9.64138 15.6796 9.64606 15.6957L9.65239 15.6952Z" fill="#7F8184"/>
<path d="M14.0952 15.0921C14.2006 15.0921 14.3068 15.0909 14.4127 15.0928C14.4448 15.0928 14.4558 15.0828 14.4596 15.051C14.4891 14.8063 14.5212 14.5618 14.5508 14.3172C14.5549 14.283 14.5684 14.2735 14.6019 14.2739C14.7542 14.2756 14.9077 14.2753 15.0606 14.2739C15.0901 14.2739 15.101 14.2779 15.0964 14.312C15.066 14.5397 15.0378 14.7678 15.0093 14.9956C14.974 15.2718 14.9386 15.5478 14.9028 15.8238C14.8804 15.9968 14.8571 16.1696 14.836 16.3427C14.8325 16.3722 14.8233 16.3816 14.7929 16.3812C14.6367 16.3797 14.4804 16.3799 14.3244 16.3812C14.2949 16.3812 14.2881 16.3737 14.2922 16.3436C14.3273 16.081 14.3599 15.8181 14.3947 15.5554C14.3982 15.5293 14.3911 15.5234 14.367 15.5235C14.147 15.5239 13.9269 15.5239 13.7068 15.5235C13.6844 15.5235 13.6748 15.5293 13.6717 15.5536C13.6426 15.7865 13.6106 16.0192 13.5829 16.2522C13.5676 16.3804 13.5712 16.3811 13.4423 16.3811C13.318 16.3811 13.1936 16.3797 13.0694 16.3819C13.032 16.3826 13.0239 16.3702 13.0285 16.3351C13.0646 16.0625 13.1 15.7899 13.1349 15.517C13.1701 15.2426 13.205 14.9682 13.2397 14.6936C13.2563 14.564 13.2739 14.4343 13.2891 14.3044C13.292 14.28 13.3018 14.2742 13.3242 14.2742C13.4839 14.2749 13.6434 14.2752 13.8031 14.2742C13.8333 14.2742 13.8354 14.2867 13.8322 14.3107C13.7999 14.5551 13.7686 14.7996 13.7356 15.0438C13.7307 15.0803 13.7369 15.0943 13.7779 15.0931C13.8834 15.0901 13.9893 15.0921 14.0952 15.0921Z" fill="#7F8184"/>
<path d="M7.42376 14.2749C7.61023 14.2749 7.79658 14.2756 7.98305 14.2749C8.01713 14.2749 8.02849 14.279 8.0224 14.3186C8.00401 14.4378 7.99043 14.5579 7.97754 14.6779C7.97298 14.7207 7.96138 14.7403 7.91148 14.7394C7.7167 14.7359 7.5218 14.7394 7.32689 14.7372C7.28918 14.7372 7.27465 14.7463 7.27114 14.7863C7.26306 14.878 7.25076 14.9696 7.236 15.0605C7.23015 15.0966 7.2408 15.1027 7.27337 15.1025C7.45644 15.1012 7.63963 15.1035 7.8227 15.1008C7.86955 15.1001 7.88396 15.1113 7.8767 15.1586C7.85866 15.2758 7.84261 15.3943 7.82984 15.5126C7.82598 15.5477 7.81333 15.5557 7.7803 15.5554C7.59547 15.5539 7.41076 15.5554 7.22593 15.5537C7.18634 15.5537 7.17111 15.5621 7.16736 15.6038C7.15928 15.6922 7.14593 15.7801 7.13223 15.868C7.1266 15.9038 7.14124 15.9096 7.17275 15.9094C7.37093 15.9083 7.56912 15.9094 7.7673 15.9079C7.81169 15.9079 7.8193 15.9196 7.81263 15.9621C7.79377 16.083 7.78006 16.2047 7.76577 16.3263C7.76144 16.3642 7.75289 16.3832 7.70592 16.3829C7.33298 16.3803 6.96005 16.3811 6.58723 16.3822C6.55209 16.3822 6.5385 16.3789 6.54424 16.3367C6.5891 16.0028 6.63127 15.6684 6.67378 15.3342C6.71244 15.0316 6.75078 14.7289 6.7888 14.4261C6.79372 14.3878 6.80134 14.3497 6.8038 14.3114C6.80579 14.2798 6.82078 14.2748 6.84889 14.2749C7.04075 14.2758 7.23225 14.2749 7.42376 14.2749Z" fill="#808184"/>
<path d="M12.3106 14.2749C12.5338 14.2749 12.7572 14.2759 12.9804 14.2739C13.0223 14.2739 13.0289 14.2839 13.0227 14.3246C13.002 14.4605 12.9855 14.597 12.97 14.7335C12.9665 14.7643 12.9554 14.7721 12.9263 14.7717C12.8055 14.7704 12.6845 14.7717 12.5632 14.7707C12.5307 14.7707 12.5171 14.7782 12.5126 14.814C12.4645 15.1998 12.4141 15.5853 12.3647 15.9709C12.3496 16.089 12.3337 16.2069 12.3218 16.3253C12.3175 16.3694 12.302 16.3829 12.2569 16.382C12.1092 16.3788 11.9614 16.3799 11.8137 16.382C11.7807 16.382 11.7714 16.3752 11.776 16.3405C11.8096 16.088 11.8413 15.8353 11.8734 15.5826C11.9059 15.3266 11.9372 15.0704 11.9715 14.8147C11.977 14.7741 11.962 14.7708 11.9293 14.7711C11.8135 14.7725 11.6975 14.7697 11.5818 14.7727C11.5386 14.7738 11.5315 14.758 11.5366 14.7203C11.5548 14.5875 11.5717 14.4545 11.5877 14.3214C11.5917 14.2886 11.6018 14.2738 11.6403 14.2745C11.8639 14.2758 12.0872 14.2749 12.3106 14.2749Z" fill="#808184"/>
<path d="M11.0476 14.2747C11.1232 14.2747 11.1987 14.2762 11.2743 14.274C11.3075 14.2731 11.3182 14.2823 11.3136 14.3164C11.2639 14.6935 11.2148 15.0709 11.1663 15.4483C11.128 15.746 11.0904 16.0436 11.0535 16.3413C11.0499 16.3705 11.0425 16.3816 11.0114 16.3814C10.8536 16.38 10.6952 16.3802 10.5379 16.3814C10.5108 16.3814 10.5005 16.3783 10.5049 16.3462C10.5467 16.0321 10.5869 15.7178 10.6263 15.4036C10.6682 15.0744 10.7098 14.7451 10.7512 14.4157C10.7529 14.4024 10.7558 14.3892 10.7577 14.376C10.7729 14.2754 10.7729 14.2754 10.8763 14.2754L11.0476 14.2747Z" fill="#808184"/>
<path d="M15.9943 9.76209C15.9914 9.75132 15.9956 9.73867 15.9844 9.73012C15.9879 9.72122 15.9913 9.71243 16.0002 9.68994C16.0053 9.72414 16.005 9.743 15.9943 9.76209Z" fill="#EE3239"/>
</svg>
