<svg width="260" height="44" viewBox="0 0 260 44" fill="none" xmlns="http://www.w3.org/2000/svg">
<rect x="1" y="1.0918" width="258" height="42.0917" rx="8" fill="white"/>
<rect x="1" y="1.0918" width="258" height="42.0917" rx="8" stroke="#0D0D0C" stroke-width="0.5"/>
<circle cx="57" cy="22.1377" r="15" fill="#EDEFF5"/>
<path d="M54.7745 26.1377H52.7972L55.81 17.4104H58.1879L61.1964 26.1377H59.2191L57.033 19.4047H56.9648L54.7745 26.1377ZM54.6509 22.7073H59.3214V24.1476H54.6509V22.7073Z" fill="#0D0D0C"/>
<circle cx="75" cy="22.1377" r="15" fill="#D1F1FF"/>
<path d="M72.3542 26.1377V17.4104H74.1994V24.6164H77.9409V26.1377H72.3542Z" fill="#0D0D0C"/>
<path d="M103.696 26.1377H102.298L105.439 17.4104H106.96L110.101 26.1377H108.703L106.236 18.9956H106.168L103.696 26.1377ZM103.93 22.7201H108.464V23.828H103.93V22.7201ZM114.104 26.2655C113.575 26.2655 113.104 26.1306 112.689 25.8607C112.277 25.588 111.953 25.2002 111.717 24.6974C111.484 24.1917 111.368 23.5851 111.368 22.8778C111.368 22.1704 111.486 21.5653 111.722 21.0624C111.96 20.5596 112.287 20.1746 112.702 19.9076C113.116 19.6405 113.587 19.507 114.112 19.507C114.518 19.507 114.845 19.5752 115.092 19.7116C115.342 19.8451 115.536 20.0013 115.672 20.1803C115.811 20.3593 115.919 20.517 115.996 20.6533H116.072V17.4104H117.347V26.1377H116.102V25.1192H115.996C115.919 25.2584 115.808 25.4175 115.663 25.5965C115.521 25.7755 115.325 25.9317 115.075 26.0653C114.825 26.1988 114.501 26.2655 114.104 26.2655ZM114.385 25.1789C114.751 25.1789 115.061 25.0823 115.314 24.8891C115.57 24.6931 115.763 24.4218 115.893 24.0752C116.027 23.7286 116.094 23.3252 116.094 22.865C116.094 22.4104 116.028 22.0127 115.898 21.6718C115.767 21.3309 115.575 21.0653 115.322 20.8749C115.07 20.6846 114.757 20.5894 114.385 20.5894C114.001 20.5894 113.682 20.6888 113.426 20.8877C113.17 21.0866 112.977 21.3579 112.847 21.7016C112.719 22.0454 112.655 22.4331 112.655 22.865C112.655 23.3025 112.72 23.6959 112.851 24.0454C112.982 24.3948 113.175 24.6718 113.43 24.8763C113.689 25.078 114.007 25.1789 114.385 25.1789ZM122.115 26.2655C121.587 26.2655 121.115 26.1306 120.701 25.8607C120.289 25.588 119.965 25.2002 119.729 24.6974C119.496 24.1917 119.38 23.5851 119.38 22.8778C119.38 22.1704 119.498 21.5653 119.733 21.0624C119.972 20.5596 120.299 20.1746 120.713 19.9076C121.128 19.6405 121.598 19.507 122.124 19.507C122.53 19.507 122.857 19.5752 123.104 19.7116C123.354 19.8451 123.547 20.0013 123.684 20.1803C123.823 20.3593 123.931 20.517 124.007 20.6533H124.084V17.4104H125.358V26.1377H124.114V25.1192H124.007C123.931 25.2584 123.82 25.4175 123.675 25.5965C123.533 25.7755 123.337 25.9317 123.087 26.0653C122.837 26.1988 122.513 26.2655 122.115 26.2655ZM122.397 25.1789C122.763 25.1789 123.073 25.0823 123.326 24.8891C123.581 24.6931 123.775 24.4218 123.905 24.0752C124.039 23.7286 124.105 23.3252 124.105 22.865C124.105 22.4104 124.04 22.0127 123.909 21.6718C123.779 21.3309 123.587 21.0653 123.334 20.8749C123.081 20.6846 122.769 20.5894 122.397 20.5894C122.013 20.5894 121.694 20.6888 121.438 20.8877C121.182 21.0866 120.989 21.3579 120.858 21.7016C120.73 22.0454 120.667 22.4331 120.667 22.865C120.667 23.3025 120.732 23.6959 120.863 24.0454C120.993 24.3948 121.186 24.6718 121.442 24.8763C121.701 25.078 122.019 25.1789 122.397 25.1789ZM131.455 17.4104H133.053L135.831 24.1945H135.934L138.712 17.4104H140.31V26.1377H139.057V19.8224H138.976L136.402 26.1249H135.363L132.789 19.8181H132.708V26.1377H131.455V17.4104ZM146.768 23.4232V19.5922H148.047V26.1377H146.794V25.0042H146.726C146.575 25.3536 146.334 25.6448 146.001 25.8778C145.672 26.1079 145.261 26.2229 144.77 26.2229C144.349 26.2229 143.977 26.1306 143.653 25.9459C143.332 25.7584 143.08 25.4814 142.895 25.115C142.713 24.7485 142.622 24.2954 142.622 23.7556V19.5922H143.896V23.6022C143.896 24.0482 144.02 24.4033 144.267 24.6675C144.514 24.9317 144.835 25.0638 145.23 25.0638C145.469 25.0638 145.706 25.0042 145.942 24.8849C146.18 24.7655 146.378 24.5851 146.534 24.3437C146.693 24.1022 146.771 23.7954 146.768 23.4232ZM151.533 17.4104V26.1377H150.259V17.4104H151.533ZM156.803 19.5922V20.615H153.227V19.5922H156.803ZM154.186 18.0241H155.46V24.2158C155.46 24.463 155.497 24.6491 155.571 24.7741C155.645 24.8962 155.74 24.98 155.857 25.0255C155.976 25.0681 156.105 25.0894 156.244 25.0894C156.347 25.0894 156.436 25.0823 156.513 25.0681C156.589 25.0539 156.649 25.0425 156.692 25.034L156.922 26.0866C156.848 26.115 156.743 26.1434 156.607 26.1718C156.47 26.203 156.3 26.2201 156.095 26.2229C155.76 26.2286 155.447 26.1689 155.158 26.0439C154.868 25.9189 154.634 25.7258 154.455 25.4644C154.276 25.203 154.186 24.8749 154.186 24.48V18.0241ZM158.712 26.1377V19.5922H159.986V26.1377H158.712ZM159.355 18.5823C159.134 18.5823 158.944 18.5084 158.784 18.3607C158.628 18.2101 158.55 18.0312 158.55 17.8238C158.55 17.6135 158.628 17.4346 158.784 17.2868C158.944 17.1363 159.134 17.061 159.355 17.061C159.577 17.061 159.766 17.1363 159.922 17.2868C160.081 17.4346 160.161 17.6135 160.161 17.8238C160.161 18.0312 160.081 18.2101 159.922 18.3607C159.766 18.5084 159.577 18.5823 159.355 18.5823ZM162.2 28.5922V19.5922H163.445V20.6533H163.551C163.625 20.517 163.732 20.3593 163.871 20.1803C164.01 20.0013 164.203 19.8451 164.45 19.7116C164.697 19.5752 165.024 19.507 165.43 19.507C165.959 19.507 166.43 19.6405 166.845 19.9076C167.26 20.1746 167.585 20.5596 167.821 21.0624C168.06 21.5653 168.179 22.1704 168.179 22.8778C168.179 23.5851 168.061 24.1917 167.825 24.6974C167.589 25.2002 167.266 25.588 166.854 25.8607C166.442 26.1306 165.972 26.2655 165.443 26.2655C165.045 26.2655 164.72 26.1988 164.467 26.0653C164.217 25.9317 164.021 25.7755 163.879 25.5965C163.737 25.4175 163.628 25.2584 163.551 25.1192H163.474V28.5922H162.2ZM163.449 22.865C163.449 23.3252 163.516 23.7286 163.649 24.0752C163.783 24.4218 163.976 24.6931 164.229 24.8891C164.482 25.0823 164.791 25.1789 165.158 25.1789C165.538 25.1789 165.857 25.078 166.112 24.8763C166.368 24.6718 166.561 24.3948 166.692 24.0454C166.825 23.6959 166.892 23.3025 166.892 22.865C166.892 22.4331 166.827 22.0454 166.696 21.7016C166.568 21.3579 166.375 21.0866 166.116 20.8877C165.861 20.6888 165.541 20.5894 165.158 20.5894C164.788 20.5894 164.476 20.6846 164.22 20.8749C163.967 21.0653 163.776 21.3309 163.645 21.6718C163.514 22.0127 163.449 22.4104 163.449 22.865ZM171.381 17.4104V26.1377H170.107V17.4104H171.381ZM176.416 26.2698C175.771 26.2698 175.216 26.132 174.75 25.8564C174.287 25.578 173.929 25.1874 173.676 24.6846C173.426 24.1789 173.301 23.5866 173.301 22.9076C173.301 22.2371 173.426 21.6462 173.676 21.1349C173.929 20.6235 174.281 20.2243 174.733 19.9374C175.187 19.6505 175.718 19.507 176.326 19.507C176.696 19.507 177.054 19.5681 177.4 19.6903C177.747 19.8124 178.058 20.0042 178.333 20.2655C178.609 20.5269 178.826 20.8664 178.985 21.284C179.145 21.6988 179.224 22.203 179.224 22.7968V23.2485H174.021V22.2939H177.975C177.975 21.9587 177.907 21.6618 177.771 21.4033C177.635 21.142 177.443 20.936 177.196 20.7854C176.951 20.6349 176.664 20.5596 176.335 20.5596C175.977 20.5596 175.664 20.6476 175.397 20.8238C175.133 20.9971 174.929 21.2243 174.784 21.5056C174.642 21.784 174.571 22.0866 174.571 22.4133V23.159C174.571 23.5965 174.647 23.9687 174.801 24.2755C174.957 24.5823 175.174 24.8167 175.453 24.9786C175.731 25.1377 176.056 25.2172 176.429 25.2172C176.67 25.2172 176.89 25.1831 177.089 25.115C177.288 25.0439 177.46 24.9388 177.605 24.7996C177.75 24.6604 177.86 24.4885 177.937 24.284L179.143 24.5013C179.047 24.8564 178.873 25.1675 178.623 25.4346C178.376 25.6988 178.065 25.9047 177.69 26.0525C177.318 26.1974 176.893 26.2698 176.416 26.2698ZM188.96 23.4232V19.5922H190.238V26.1377H188.985V25.0042H188.917C188.767 25.3536 188.525 25.6448 188.193 25.8778C187.863 26.1079 187.453 26.2229 186.961 26.2229C186.541 26.2229 186.169 26.1306 185.845 25.9459C185.524 25.7584 185.271 25.4814 185.086 25.115C184.904 24.7485 184.814 24.2954 184.814 23.7556V19.5922H186.088V23.6022C186.088 24.0482 186.211 24.4033 186.458 24.6675C186.706 24.9317 187.027 25.0638 187.422 25.0638C187.66 25.0638 187.897 25.0042 188.133 24.8849C188.372 24.7655 188.569 24.5851 188.725 24.3437C188.885 24.1022 188.963 23.7954 188.96 23.4232ZM197.355 21.1903L196.2 21.3948C196.152 21.2471 196.075 21.1064 195.97 20.9729C195.868 20.8394 195.729 20.73 195.553 20.6448C195.376 20.5596 195.156 20.517 194.892 20.517C194.531 20.517 194.23 20.5979 193.989 20.7599C193.747 20.9189 193.626 21.1249 193.626 21.3778C193.626 21.5965 193.707 21.7726 193.869 21.9062C194.031 22.0397 194.293 22.1491 194.653 22.2343L195.693 22.4729C196.295 22.6121 196.744 22.8266 197.04 23.1164C197.335 23.4062 197.483 23.7826 197.483 24.2456C197.483 24.6377 197.369 24.9871 197.142 25.2939C196.918 25.5979 196.604 25.8366 196.2 26.0099C195.8 26.1831 195.335 26.2698 194.807 26.2698C194.074 26.2698 193.476 26.1135 193.013 25.801C192.55 25.4857 192.266 25.0383 192.161 24.4587L193.392 24.2712C193.469 24.5922 193.626 24.8351 193.865 24.9999C194.104 25.1618 194.415 25.2428 194.798 25.2428C195.216 25.2428 195.55 25.1562 195.8 24.9829C196.05 24.8067 196.175 24.5922 196.175 24.3394C196.175 24.1349 196.098 23.963 195.945 23.8238C195.794 23.6846 195.562 23.5795 195.25 23.5084L194.142 23.2655C193.531 23.1263 193.08 22.9047 192.787 22.6008C192.497 22.2968 192.352 21.9118 192.352 21.4459C192.352 21.0596 192.46 20.7215 192.676 20.4317C192.892 20.142 193.19 19.9161 193.571 19.7542C193.952 19.5894 194.388 19.507 194.879 19.507C195.587 19.507 196.143 19.6604 196.55 19.9672C196.956 20.2712 197.224 20.6789 197.355 21.1903ZM202.205 26.2698C201.56 26.2698 201.005 26.132 200.539 25.8564C200.076 25.578 199.718 25.1874 199.465 24.6846C199.215 24.1789 199.09 23.5866 199.09 22.9076C199.09 22.2371 199.215 21.6462 199.465 21.1349C199.718 20.6235 200.07 20.2243 200.522 19.9374C200.976 19.6505 201.507 19.507 202.115 19.507C202.485 19.507 202.843 19.5681 203.189 19.6903C203.536 19.8124 203.847 20.0042 204.123 20.2655C204.398 20.5269 204.615 20.8664 204.775 21.284C204.934 21.6988 205.013 22.203 205.013 22.7968V23.2485H199.81V22.2939H203.765C203.765 21.9587 203.696 21.6618 203.56 21.4033C203.424 21.142 203.232 20.936 202.985 20.7854C202.74 20.6349 202.453 20.5596 202.124 20.5596C201.766 20.5596 201.453 20.6476 201.186 20.8238C200.922 20.9971 200.718 21.2243 200.573 21.5056C200.431 21.784 200.36 22.0866 200.36 22.4133V23.159C200.36 23.5965 200.436 23.9687 200.59 24.2755C200.746 24.5823 200.963 24.8167 201.242 24.9786C201.52 25.1377 201.846 25.2172 202.218 25.2172C202.459 25.2172 202.679 25.1831 202.878 25.115C203.077 25.0439 203.249 24.9388 203.394 24.7996C203.539 24.6604 203.65 24.4885 203.726 24.284L204.932 24.5013C204.836 24.8564 204.662 25.1675 204.412 25.4346C204.165 25.6988 203.854 25.9047 203.479 26.0525C203.107 26.1974 202.682 26.2698 202.205 26.2698ZM206.927 26.1377V19.5922H208.158V20.632H208.227C208.346 20.2797 208.556 20.0028 208.857 19.801C209.161 19.5965 209.505 19.4942 209.888 19.4942C209.968 19.4942 210.062 19.4971 210.17 19.5028C210.281 19.5084 210.367 19.5155 210.43 19.5241V20.7428C210.379 20.7286 210.288 20.713 210.157 20.6959C210.026 20.676 209.896 20.6661 209.765 20.6661C209.464 20.6661 209.195 20.73 208.96 20.8579C208.727 20.9829 208.542 21.1576 208.406 21.382C208.269 21.6036 208.201 21.8564 208.201 22.1405V26.1377H206.927ZM216.937 21.1903L215.782 21.3948C215.734 21.2471 215.657 21.1064 215.552 20.9729C215.45 20.8394 215.311 20.73 215.135 20.6448C214.958 20.5596 214.738 20.517 214.474 20.517C214.113 20.517 213.812 20.5979 213.571 20.7599C213.329 20.9189 213.208 21.1249 213.208 21.3778C213.208 21.5965 213.289 21.7726 213.451 21.9062C213.613 22.0397 213.875 22.1491 214.235 22.2343L215.275 22.4729C215.877 22.6121 216.326 22.8266 216.622 23.1164C216.917 23.4062 217.065 23.7826 217.065 24.2456C217.065 24.6377 216.951 24.9871 216.724 25.2939C216.5 25.5979 216.186 25.8366 215.782 26.0099C215.382 26.1831 214.917 26.2698 214.389 26.2698C213.656 26.2698 213.058 26.1135 212.595 25.801C212.132 25.4857 211.848 25.0383 211.743 24.4587L212.974 24.2712C213.051 24.5922 213.208 24.8351 213.447 24.9999C213.686 25.1618 213.997 25.2428 214.38 25.2428C214.798 25.2428 215.132 25.1562 215.382 24.9829C215.632 24.8067 215.757 24.5922 215.757 24.3394C215.757 24.1349 215.68 23.963 215.527 23.8238C215.376 23.6846 215.145 23.5795 214.832 23.5084L213.724 23.2655C213.113 23.1263 212.662 22.9047 212.369 22.6008C212.079 22.2968 211.934 21.9118 211.934 21.4459C211.934 21.0596 212.042 20.7215 212.258 20.4317C212.474 20.142 212.772 19.9161 213.153 19.7542C213.534 19.5894 213.97 19.507 214.461 19.507C215.169 19.507 215.725 19.6604 216.132 19.9672C216.538 20.2712 216.806 20.6789 216.937 21.1903Z" fill="#0D0D0C"/>
</svg>
