<svg width="466" height="963" viewBox="0 0 466 963" fill="none" xmlns="http://www.w3.org/2000/svg">
<path opacity="0.0144928" d="M532.103 787.205C533.199 791.968 531.012 796.881 526.739 799.253L399.861 869.685C397.334 871.088 394.356 871.437 391.573 870.655L191.544 814.465C189.356 813.85 187.413 812.571 185.983 810.803L71.5615 669.327C68.9698 666.122 68.3936 661.735 70.0699 657.97L121.538 542.371C123.214 538.606 126.86 536.098 130.976 535.88L312.676 526.246C314.946 526.126 317.197 526.714 319.118 527.928L494.721 638.98C497.164 640.525 498.898 642.972 499.547 645.788L532.103 787.205Z" stroke="url(#paint0_linear_2028_95337)" stroke-width="0.447605"/>
<path opacity="0.0289855" d="M537.348 764.972C538.681 769.66 536.76 774.666 532.632 777.258L410.619 853.877C408.168 855.416 405.207 855.924 402.383 855.29L201.529 810.16C199.304 809.661 197.291 808.48 195.769 806.783L75.3289 672.491C72.5807 669.427 71.7799 665.082 73.2549 661.239L118.333 543.808C119.808 539.965 123.31 537.272 127.403 536.834L306.766 517.625C309.033 517.383 311.319 517.852 313.307 518.969L492.768 619.83C495.291 621.248 497.151 623.606 497.943 626.39L537.348 764.972Z" stroke="url(#paint1_linear_2028_95337)" stroke-width="0.447605"/>
<path opacity="0.0434783" d="M541.884 742.731C543.449 747.333 541.797 752.417 537.826 755.22L420.975 837.711C418.607 839.383 415.673 840.049 412.815 839.564L211.74 805.427C209.486 805.044 207.407 803.966 205.796 802.343L79.772 675.476C76.8751 672.56 75.8524 668.268 77.1227 664.359L115.76 545.445C117.03 541.535 120.38 538.664 124.438 538.008L300.964 509.445C303.222 509.079 305.537 509.429 307.586 510.444L490.324 601.016C492.921 602.303 494.903 604.566 495.836 607.311L541.884 742.731Z" stroke="url(#paint2_linear_2028_95337)" stroke-width="0.447605"/>
<path opacity="0.057971" d="M545.712 720.52C547.503 725.025 546.124 730.171 542.32 733.176L430.908 821.21C428.63 823.01 425.731 823.833 422.847 823.499L222.147 800.252C219.869 799.988 217.73 799.016 216.033 797.473L84.869 678.244C81.8314 675.483 80.5903 671.256 81.6528 667.291L113.819 547.245C114.882 543.279 118.07 540.24 122.081 539.367L295.287 501.693C297.528 501.206 299.866 501.433 301.972 502.344L487.406 582.562C490.071 583.714 492.169 585.877 493.242 588.574L545.712 720.52Z" stroke="url(#paint3_linear_2028_95337)" stroke-width="0.447605"/>
<path opacity="0.0724638" d="M548.839 698.38C550.85 702.776 549.746 707.97 546.121 711.168L440.404 804.402C438.223 806.325 435.368 807.304 432.466 807.122L232.725 794.632C230.428 794.488 228.235 793.626 226.455 792.167L90.6019 680.764C87.4319 678.165 85.9765 674.014 86.8288 670.004L112.512 549.174C113.364 545.164 116.382 541.965 120.335 540.879L289.755 494.364C291.974 493.755 294.329 493.859 296.485 494.662L484.038 564.494C486.763 565.508 488.973 567.563 490.183 570.207L548.839 698.38Z" stroke="url(#paint4_linear_2028_95337)" stroke-width="0.447605"/>
<path opacity="0.0869565" d="M551.282 676.348C553.507 680.624 552.679 685.852 549.241 689.232L449.456 787.313C447.379 789.354 444.576 790.486 441.664 790.458L243.452 788.559C241.144 788.537 238.901 787.787 237.044 786.416L96.9567 683.002C93.6631 680.57 91.998 676.507 92.6384 672.464L111.845 551.198C112.485 547.154 115.325 543.804 119.208 542.509L284.396 487.446C286.586 486.716 288.951 486.696 291.153 487.388L480.25 546.833C483.028 547.706 485.345 549.649 486.689 552.232L551.282 676.348Z" stroke="url(#paint5_linear_2028_95337)" stroke-width="0.447605"/>
<path opacity="0.101449" d="M553.038 654.459C555.47 658.605 554.918 663.852 551.677 667.402L458.039 769.967C456.072 772.121 453.329 773.403 450.415 773.529L254.289 782.027C251.975 782.127 249.689 781.492 247.758 780.214L103.896 684.924C100.488 682.666 98.6187 678.7 99.0461 674.635L111.801 553.277C112.229 549.211 114.882 545.721 118.685 544.221L279.215 480.924C281.369 480.075 283.737 479.929 285.98 480.508L476.053 529.598C478.877 530.327 481.294 532.151 482.77 534.667L553.038 654.459Z" stroke="url(#paint6_linear_2028_95337)" stroke-width="0.447605"/>
<path opacity="0.115942" d="M554.138 632.752C556.769 636.758 556.494 642.008 553.459 645.717L466.16 752.393C464.31 754.653 461.634 756.083 458.726 756.363L265.226 775.035C262.913 775.258 260.59 774.741 258.59 773.558L111.416 686.502C107.903 684.424 105.835 680.566 106.048 676.49L112.395 555.381C112.609 551.304 115.069 547.683 118.781 545.984L274.248 474.789C276.36 473.822 278.725 473.551 281.002 474.014L471.49 512.81C474.353 513.393 476.864 515.094 478.468 517.535L554.138 632.752Z" stroke="url(#paint7_linear_2028_95337)" stroke-width="0.447605"/>
<path opacity="0.130435" d="M554.597 611.258C557.419 615.114 557.419 620.354 554.597 624.21L473.809 734.616C472.081 736.977 469.481 738.55 466.587 738.984L276.236 767.577C273.93 767.924 271.575 767.526 269.51 766.443L119.488 687.707C115.879 685.812 113.618 682.072 113.618 677.996L113.618 557.471C113.618 553.395 115.879 549.655 119.488 547.761L269.51 469.025C271.575 467.941 273.93 467.544 276.236 467.89L466.588 496.483C469.481 496.918 472.081 498.491 473.809 500.852L554.597 611.258Z" stroke="url(#paint8_linear_2028_95337)" stroke-width="0.447605"/>
<path opacity="0.144928" d="M554.42 590.012C557.424 593.709 557.697 598.923 555.096 602.914L480.966 716.663C479.366 719.118 476.85 720.831 473.979 721.419L287.279 759.656C284.987 760.125 282.606 759.849 280.482 758.869L128.075 688.51C124.379 686.804 121.933 683.192 121.72 679.127L115.451 559.516C115.238 555.452 117.294 551.604 120.791 549.521L265.008 463.616C267.018 462.419 269.358 461.896 271.686 462.123L461.36 480.635C464.277 480.92 466.958 482.36 468.806 484.635L554.42 590.012Z" stroke="url(#paint9_linear_2028_95337)" stroke-width="0.447605"/>
<path opacity="0.15942" d="M553.636 569.049C556.813 572.579 557.357 577.753 554.983 581.866L487.638 698.566C486.171 701.108 483.746 702.956 480.906 703.696L298.339 751.274C296.068 751.865 293.667 751.713 291.489 750.839L137.158 688.89C133.386 687.376 130.761 683.901 130.337 679.859L117.895 561.486C117.47 557.444 119.315 553.499 122.69 551.234L260.768 458.552C262.717 457.244 265.034 456.595 267.379 456.702L455.847 465.282C458.78 465.415 461.536 466.719 463.5 468.901L553.636 569.049Z" stroke="url(#paint10_linear_2028_95337)" stroke-width="0.447605"/>
<path opacity="0.173913" d="M552.267 548.394C555.608 551.749 556.419 556.869 554.278 561.091L493.822 680.346C492.493 682.968 490.166 684.947 487.364 685.838L309.393 742.428C307.148 743.142 304.734 743.114 302.506 742.349L146.71 688.818C142.872 687.499 140.077 684.17 139.442 680.162L120.94 563.343C120.305 559.335 121.935 555.304 125.177 552.865L256.806 453.81C258.688 452.394 260.976 451.621 263.331 451.606L450.079 450.431C453.019 450.412 455.844 451.575 457.918 453.658L552.267 548.394Z" stroke="url(#paint11_linear_2028_95337)" stroke-width="0.447605"/>
<path opacity="0.188406" d="M550.338 528.08C553.832 531.252 554.906 536.303 553.003 540.622L499.516 662.032C498.329 664.727 496.107 666.832 493.352 667.871L320.414 733.126C318.203 733.96 315.781 734.058 313.51 733.404L156.702 688.274C152.808 687.154 149.85 683.978 149.008 680.016L124.573 565.057C123.73 561.095 125.141 556.99 128.242 554.383L253.138 449.376C254.947 447.855 257.199 446.959 259.559 446.822L444.086 436.094C447.026 435.923 449.912 436.942 452.092 438.921L550.338 528.08Z" stroke="url(#paint12_linear_2028_95337)" stroke-width="0.447605"/>
<path opacity="0.202899" d="M547.862 508.135C551.5 511.116 552.832 516.086 551.172 520.488L504.711 643.654C503.67 646.414 501.561 648.638 498.86 649.824L331.37 723.372C329.198 724.326 326.776 724.549 324.466 724.01L167.094 687.24C163.155 686.32 160.043 683.307 158.996 679.4L128.771 566.601C127.725 562.694 128.913 558.528 131.864 555.762L249.768 445.233C251.498 443.61 253.708 442.593 256.066 442.333L437.89 422.282C440.822 421.959 443.761 422.83 446.043 424.7L547.862 508.135Z" stroke="url(#paint13_linear_2028_95337)" stroke-width="0.447605"/>
<path opacity="0.217391" d="M544.884 488.584C548.656 491.369 550.24 496.244 548.825 500.714L509.427 625.236C508.535 628.053 506.545 630.391 503.906 631.721L342.253 713.172C340.127 714.243 337.71 714.594 335.368 714.17L177.873 685.696C173.899 684.978 170.642 682.134 169.394 678.294L133.539 567.943C132.291 564.102 133.254 559.887 136.047 556.97L246.727 441.361C248.373 439.641 250.534 438.504 252.884 438.121L431.539 409C434.456 408.524 437.441 409.246 439.818 411.001L544.884 488.584Z" stroke="url(#paint14_linear_2028_95337)" stroke-width="0.447605"/>
<path opacity="0.231884" d="M541.413 469.451C545.307 472.034 547.137 476.801 545.971 481.326L513.647 606.805C512.909 609.671 511.043 612.117 508.474 613.587L353.023 702.534C350.949 703.721 348.544 704.198 346.174 703.892L188.989 683.627C184.991 683.111 181.598 680.444 180.153 676.68L138.839 569.055C137.395 565.291 138.131 561.039 140.758 557.98L244.009 437.743C245.566 435.93 247.672 434.675 250.007 434.169L425.047 396.252C427.94 395.626 430.963 396.195 433.43 397.831L541.413 469.451Z" stroke="url(#paint15_linear_2028_95337)" stroke-width="0.447605"/>
<path opacity="0.246377" d="M537.487 450.76C541.493 453.135 543.561 457.781 542.646 462.347L517.387 588.387C516.805 591.294 515.07 593.841 512.578 595.448L363.664 691.467C361.648 692.767 359.262 693.37 356.871 693.184L200.418 681.017C196.406 680.705 192.887 678.22 191.25 674.544L144.665 569.911C143.028 566.234 143.536 561.957 145.989 558.766L241.634 434.358C243.096 432.456 245.141 431.087 247.455 430.458L418.454 384.043C421.316 383.267 424.37 383.682 426.92 385.194L537.487 450.76Z" stroke="url(#paint16_linear_2028_95337)" stroke-width="0.447605"/>
<path opacity="0.26087" d="M533.132 432.53C537.238 434.693 539.537 439.206 538.874 443.799L520.649 570.006C520.224 572.946 518.625 575.588 516.218 577.328L374.152 679.98C372.201 681.391 369.84 682.119 367.433 682.054L212.126 677.853C208.11 677.745 204.475 675.449 202.651 671.87L150.992 570.483C149.168 566.904 149.448 562.614 151.72 559.301L239.609 431.186C240.971 429.2 242.948 427.718 245.236 426.969L411.788 372.373C414.611 371.448 417.688 371.707 420.316 373.092L533.132 432.53Z" stroke="url(#paint17_linear_2028_95337)" stroke-width="0.447605"/>
<path opacity="0.275362" d="M528.379 414.78C532.573 416.727 535.096 421.096 534.685 425.702L523.44 551.689C523.176 554.653 521.718 557.382 519.402 559.25L384.466 668.085C382.585 669.603 380.255 670.456 377.839 670.513L224.078 674.127C220.069 674.221 216.328 672.119 214.323 668.647L157.802 570.749C155.797 567.276 155.847 562.986 157.933 559.561L237.944 428.207C239.201 426.143 241.105 424.552 243.36 423.681L405.081 361.241C407.857 360.17 410.95 360.272 413.649 361.525L528.379 414.78Z" stroke="url(#paint18_linear_2028_95337)" stroke-width="0.447605"/>
<path opacity="0.289855" d="M523.257 397.528C527.528 399.256 530.264 403.469 530.105 408.074L525.767 533.46C525.664 536.439 524.352 539.248 522.135 541.239L394.583 655.795C392.777 657.416 390.485 658.393 388.066 658.572L236.239 669.829C232.247 670.124 228.411 668.222 226.231 664.865L165.07 570.685C162.89 567.328 162.712 563.05 164.606 559.523L236.642 425.401C237.79 423.263 239.615 421.567 241.83 420.577L398.362 350.646C401.084 349.431 404.183 349.375 406.947 350.493L523.257 397.528Z" stroke="url(#paint19_linear_2028_95337)" stroke-width="0.447605"/>
<path opacity="0.304348" d="M517.798 380.79C522.135 382.295 525.075 386.343 525.167 390.932L527.64 515.342C527.699 518.328 526.538 521.209 524.425 523.319L404.482 643.123C402.758 644.845 400.511 645.943 398.094 646.246L248.575 664.953C244.611 665.449 240.69 663.75 238.342 660.518L172.773 570.271C170.425 567.038 170.02 562.784 171.717 559.167L235.713 422.748C236.747 420.542 238.487 418.744 240.657 417.637L391.662 340.585C394.322 339.228 397.42 339.014 400.241 339.993L517.798 380.79Z" stroke="url(#paint20_linear_2028_95337)" stroke-width="0.447605"/>
<path opacity="0.318841" d="M512.041 364.578C516.431 365.858 519.566 369.73 519.906 374.291L529.075 497.358C529.298 500.342 528.292 503.287 526.29 505.51L414.151 630.083C412.515 631.901 410.317 633.12 407.909 633.546L261.059 659.495C257.132 660.189 253.138 658.697 250.628 655.598L180.895 569.484C178.385 566.385 177.756 562.168 179.251 558.471L235.166 420.225C236.083 417.958 237.732 416.062 239.85 414.839L385.016 331.051C387.607 329.556 390.697 329.184 393.569 330.021L512.041 364.578Z" stroke="url(#paint21_linear_2028_95337)" stroke-width="0.447605"/>
<path opacity="0.333333" d="M506.008 348.904C510.441 349.959 513.759 353.645 514.345 358.163L530.076 479.532C530.462 482.504 529.614 485.505 527.729 487.836L423.562 616.693C422.018 618.603 419.877 619.939 417.484 620.488L273.646 653.454C269.766 654.343 265.71 653.06 263.047 650.103L189.4 568.31C186.737 565.352 185.885 561.184 187.175 557.418L234.996 417.815C235.791 415.491 237.344 413.502 239.405 412.166L378.445 322.039C380.96 320.409 384.033 319.879 386.949 320.573L506.008 348.904Z" stroke="url(#paint22_linear_2028_95337)" stroke-width="0.447605"/>
<path opacity="0.347826" d="M499.741 333.776C504.203 334.604 507.695 338.095 508.522 342.558L530.663 461.882C531.21 464.834 530.524 467.882 528.762 470.314L432.704 602.966C431.257 604.963 429.18 606.415 426.807 607.086L286.31 646.826C282.488 647.907 278.38 646.837 275.571 644.028L198.27 566.728C195.462 563.919 194.391 559.811 195.472 555.989L235.212 415.492C235.884 413.118 237.335 411.041 239.333 409.594L371.984 313.536C374.416 311.775 377.464 311.088 380.417 311.636L499.741 333.776Z" stroke="url(#paint23_linear_2028_95337)" stroke-width="0.447605"/>
<path opacity="0.362319" d="M493.263 319.203C497.744 319.804 501.397 323.093 502.463 327.486L530.84 444.43C531.55 447.354 531.027 450.44 529.394 452.967L441.553 588.921C440.209 591.002 438.2 592.566 435.854 593.359L299.009 639.616C295.253 640.885 291.105 640.029 288.159 637.376L207.471 564.725C204.525 562.072 203.24 558.036 204.11 554.169L235.809 413.238C236.353 410.822 237.698 408.66 239.627 407.106L365.654 305.535C367.997 303.647 371.012 302.805 373.994 303.205L493.263 319.203Z" stroke="url(#paint24_linear_2028_95337)" stroke-width="0.447605"/>
<path opacity="0.376812" d="M486.618 305.19C491.105 305.564 494.907 308.643 496.206 312.954L530.632 427.196C531.502 430.082 531.146 433.199 529.647 435.814L450.102 574.578C448.865 576.736 446.931 578.409 444.618 579.323L311.718 631.826C308.039 633.28 303.862 632.639 300.787 630.149L216.985 562.287C213.91 559.798 212.415 555.845 213.072 551.944L236.796 411.033C237.209 408.58 238.444 406.34 240.298 404.681L359.49 298.025C361.737 296.015 364.711 295.018 367.715 295.268L486.618 305.19Z" stroke="url(#paint25_linear_2028_95337)" stroke-width="0.447605"/>
<path opacity="0.391304" d="M479.837 291.74C484.318 291.889 488.258 294.751 489.784 298.967L530.054 410.198C531.082 413.037 530.893 416.175 529.533 418.872L458.336 559.952C457.21 562.183 455.356 563.962 453.082 564.996L324.402 623.462C320.808 625.095 316.614 624.67 313.42 622.349L226.781 559.402C223.587 557.082 221.887 553.224 222.33 549.301L238.17 408.853C238.45 406.37 239.569 404.058 241.343 402.298L353.518 290.989C355.661 288.862 358.587 287.713 361.606 287.813L479.837 291.74Z" stroke="url(#paint26_linear_2028_95337)" stroke-width="0.447605"/>
<path opacity="0.405797" d="M472.947 278.854C477.412 278.779 481.476 281.418 483.223 285.527L529.116 393.452C530.3 396.236 530.281 399.387 529.063 402.157L466.235 545.065C465.225 547.363 463.458 549.244 461.228 550.396L337.025 614.53C333.525 616.337 329.325 616.128 326.021 613.983L236.828 556.06C233.525 553.915 231.625 550.162 231.853 546.23L239.924 406.68C240.069 404.174 241.069 401.794 242.757 399.937L347.756 284.415C349.792 282.176 352.662 280.877 355.687 280.826L472.947 278.854Z" stroke="url(#paint27_linear_2028_95337)" stroke-width="0.447605"/>
<path opacity="0.42029" d="M465.983 266.533C470.42 266.237 474.596 268.648 476.557 272.638L527.837 376.976C529.174 379.697 529.325 382.85 528.254 385.686L473.789 529.938C472.899 532.297 471.223 534.276 469.044 535.544L349.556 605.04C346.159 607.016 341.963 607.023 338.559 605.058L247.098 552.253C243.695 550.287 241.603 546.651 241.615 542.721L242.057 404.493C242.065 401.972 242.942 399.531 244.539 397.58L342.232 278.286C344.153 275.941 346.959 274.495 349.984 274.293L465.983 266.533Z" stroke="url(#paint28_linear_2028_95337)" stroke-width="0.447605"/>
<path opacity="0.434783" d="M458.984 254.774C463.381 254.259 467.656 256.437 469.823 260.297L526.241 360.783C527.728 363.432 528.05 366.579 527.13 369.475L480.994 514.589C480.226 517.003 478.647 519.077 476.524 520.458L361.969 595.003C358.682 597.142 354.504 597.363 351.009 595.582L257.569 547.972C254.075 546.192 251.798 542.681 251.596 538.765L244.57 402.272C244.44 399.742 245.189 397.246 246.691 395.206L336.973 272.585C338.775 270.139 341.51 268.549 344.527 268.195L458.984 254.774Z" stroke="url(#paint29_linear_2028_95337)" stroke-width="0.447605"/>
<path opacity="0.449275" d="M451.976 243.572C456.322 242.842 460.684 244.783 463.049 248.502L524.343 344.888C525.977 347.457 526.469 350.589 525.702 353.535L487.834 499.041C487.193 501.504 485.716 503.667 483.655 505.16L374.231 584.43C371.062 586.725 366.911 587.159 363.337 585.568L268.208 543.214C264.634 541.622 262.179 538.247 261.764 534.357L247.454 399.997C247.185 397.466 247.804 394.921 249.205 392.797L331.999 267.293C333.675 264.752 336.332 263.022 339.334 262.517L451.976 243.572Z" stroke="url(#paint30_linear_2028_95337)" stroke-width="0.447605"/>
<path opacity="0.463768" d="M444.99 232.923C449.275 231.981 453.709 233.683 456.263 237.25L522.159 329.305C523.935 331.785 524.597 334.893 523.987 337.881L494.3 483.315C493.789 485.82 492.418 488.068 490.425 489.67L386.309 573.337C383.267 575.782 379.154 576.425 375.51 575.026L278.985 537.974C275.341 536.575 272.715 533.345 272.09 529.492L250.701 397.649C250.291 395.125 250.777 392.537 252.073 390.333L327.326 262.39C328.872 259.761 331.444 257.894 334.423 257.239L444.99 232.923Z" stroke="url(#paint31_linear_2028_95337)" stroke-width="0.447605"/>
<path opacity="0.478261" d="M438.063 222.819C442.276 221.669 446.769 223.129 449.502 226.535L519.717 314.044C521.63 316.428 522.461 319.502 522.01 322.525L500.391 467.434C500.011 469.975 498.752 472.303 496.832 474.011L398.183 561.739C395.274 564.327 391.21 565.177 387.507 563.974L289.876 532.252C286.173 531.049 283.386 527.972 282.553 524.169L254.31 395.21C253.76 392.7 254.109 390.077 255.296 387.798L322.981 257.857C324.393 255.146 326.873 253.148 329.821 252.343L438.063 222.819Z" stroke="url(#paint32_linear_2028_95337)" stroke-width="0.447605"/>
<path opacity="0.492754" d="M431.214 213.248C435.345 211.897 439.884 213.113 442.786 216.349L517.025 299.115C519.07 301.395 520.069 304.427 519.779 307.476L506.09 451.418C505.845 453.989 504.701 456.391 502.86 458.201L409.815 549.652C407.045 552.375 403.042 553.429 399.29 552.424L300.845 526.046C297.094 525.041 294.153 522.126 293.116 518.383L258.263 392.661C257.573 390.173 257.783 387.521 258.857 385.172L318.973 253.67C320.246 250.885 322.627 248.759 325.538 247.807L431.214 213.248Z" stroke="url(#paint33_linear_2028_95337)" stroke-width="0.447605"/>
<path opacity="0.507246" d="M424.488 204.201C428.527 202.654 433.098 203.626 436.159 206.682L514.12 284.528C516.291 286.697 517.455 289.677 517.328 292.744L511.407 435.291C511.3 437.884 510.276 440.355 508.518 442.264L421.195 537.096C418.571 539.946 414.637 541.2 410.848 540.395L311.878 519.358C308.088 518.552 305.005 515.807 303.767 512.136L262.565 389.985C261.736 387.526 261.805 384.852 262.762 382.439L315.332 249.808C316.463 246.955 318.738 244.706 321.605 243.608L424.488 204.201Z" stroke="url(#paint34_linear_2028_95337)" stroke-width="0.447605"/>
<path opacity="0.521739" d="M417.898 195.667C421.836 193.929 426.426 194.656 429.634 197.525L511.006 270.292C513.299 272.342 514.625 275.261 514.662 278.337L516.326 419.075C516.356 421.684 515.456 424.218 513.787 426.222L432.283 524.091C429.81 527.06 425.957 528.509 422.141 527.905L322.932 512.191C319.115 511.587 315.898 509.018 314.464 505.43L267.193 387.166C266.224 384.743 266.151 382.055 266.987 379.584L312.06 246.248C313.045 243.334 315.208 240.968 318.022 239.726L417.898 195.667Z" stroke="url(#paint35_linear_2028_95337)" stroke-width="0.447605"/>
<path opacity="0.536232" d="M411.482 187.628C415.31 185.707 419.905 186.19 423.25 188.864L507.717 256.411C510.124 258.336 511.61 261.185 511.811 264.261L520.853 402.791C521.024 405.408 520.251 408 518.675 410.096L443.067 510.656C440.751 513.736 436.988 515.375 433.156 514.972L333.991 504.55C330.158 504.147 326.818 501.762 325.193 498.267L272.146 384.185C271.04 381.807 270.823 379.111 271.534 376.587L309.181 242.964C310.016 239.997 312.062 237.518 314.817 236.136L411.482 187.628Z" stroke="url(#paint36_linear_2028_95337)" stroke-width="0.447605"/>
<path opacity="0.550725" d="M405.261 180.07C408.969 177.973 413.557 178.213 417.026 180.687L504.266 242.891C506.782 244.684 508.424 247.455 508.789 250.523L524.982 386.464C525.294 389.082 524.652 391.725 523.174 393.908L453.52 496.815C451.365 499.998 447.702 501.82 443.864 501.619L345.023 496.439C341.185 496.238 337.732 494.042 335.922 490.652L277.406 381.028C276.164 378.702 275.802 376.006 276.386 373.435L306.7 239.932C307.384 236.919 309.307 234.335 311.996 232.814L405.261 180.07Z" stroke="url(#paint37_linear_2028_95337)" stroke-width="0.447605"/>
<path opacity="0.565217" d="M399.262 172.977C402.843 170.711 407.41 170.711 410.991 172.977L500.679 229.737C503.295 231.393 505.09 234.077 505.619 237.127L528.717 370.114C529.171 372.726 528.663 375.414 527.288 377.68L463.623 482.591C461.635 485.867 458.081 487.868 454.248 487.868L356.004 487.868C352.172 487.868 348.617 485.867 346.629 482.591L282.965 377.68C281.59 375.414 281.082 372.726 281.535 370.114L304.633 237.127C305.163 234.077 306.957 231.393 309.573 229.737L399.262 172.977Z" stroke="url(#paint38_linear_2028_95337)" stroke-width="0.447605"/>
<path opacity="0.57971" d="M393.507 166.33C396.953 163.902 401.486 163.664 405.167 165.719L496.975 216.951C499.684 218.463 501.626 221.052 502.32 224.076L532.057 353.765C532.653 356.363 532.282 359.089 531.014 361.434L473.358 468.007C471.54 471.369 468.103 473.541 464.287 473.741L366.908 478.844C363.092 479.044 359.447 477.243 357.287 474.09L288.808 374.127C287.301 371.928 286.647 369.255 286.968 366.609L302.987 234.523C303.36 231.443 305.021 228.665 307.558 226.878L393.507 166.33Z" stroke="url(#paint39_linear_2028_95337)" stroke-width="0.447605"/>
<path opacity="0.594203" d="M388.027 160.109C391.331 157.528 395.817 157.057 399.585 158.894L493.182 204.536C495.977 205.899 498.062 208.385 498.918 211.374L535.014 337.437C535.752 340.014 535.52 342.773 534.362 345.191L482.714 453.091C481.069 456.527 477.758 458.864 473.969 459.262L377.719 469.378C373.929 469.777 370.205 468.18 367.881 465.16L294.928 370.356C293.293 368.232 292.493 365.582 292.679 362.908L301.776 232.095C301.992 228.992 303.515 226.128 305.965 224.213L388.027 160.109Z" stroke="url(#paint40_linear_2028_95337)" stroke-width="0.447605"/>
<path opacity="0.608696" d="M382.834 154.295C385.988 151.57 390.415 150.869 394.257 152.486L489.312 192.493C492.185 193.702 494.407 196.076 495.424 199.022L537.58 321.154C538.46 323.703 538.37 326.487 537.328 328.973L491.668 437.867C490.199 441.37 487.022 443.863 483.27 444.457L388.402 459.483C384.65 460.077 380.858 458.688 378.379 455.81L301.304 366.356C299.544 364.313 298.598 361.694 298.647 358.998L300.999 229.816C301.056 226.7 302.436 223.755 304.794 221.717L382.834 154.295Z" stroke="url(#paint41_linear_2028_95337)" stroke-width="0.447605"/>
<path opacity="0.623188" d="M377.947 148.863C380.946 146.002 385.302 145.076 389.205 146.47L485.387 180.817C488.329 181.868 490.683 184.123 491.859 187.017L539.764 304.934C540.785 307.447 540.838 310.249 539.914 312.799L500.205 422.359C498.915 425.92 495.879 428.562 492.175 429.349L398.937 449.168C395.233 449.955 391.385 448.776 388.758 446.048L307.919 362.111C306.038 360.157 304.947 357.576 304.858 354.865L300.66 227.658C300.557 224.536 301.79 221.518 304.05 219.361L377.947 148.863Z" stroke="url(#paint42_linear_2028_95337)" stroke-width="0.447605"/>
<path opacity="0.637681" d="M373.385 143.795C376.222 140.807 380.495 139.663 384.446 140.831L481.426 169.512C484.429 170.4 486.909 172.529 488.241 175.362L541.57 288.802C542.73 291.271 542.929 294.084 542.127 296.692L508.313 406.6C507.203 410.208 504.316 412.991 500.67 413.968L409.3 438.451C405.654 439.428 401.762 438.461 398.997 435.891L314.76 357.615C312.761 355.758 311.526 353.222 311.297 350.503L300.762 225.597C300.498 222.477 301.581 219.394 303.738 217.123L373.385 143.795Z" stroke="url(#paint43_linear_2028_95337)" stroke-width="0.447605"/>
<path opacity="0.652174" d="M369.172 139.064C371.843 135.959 376.022 134.601 380.007 135.543L477.459 158.571C480.514 159.292 483.112 161.288 484.598 164.053L543.014 272.775C544.314 275.193 544.659 278.01 543.981 280.671L515.992 390.613C515.063 394.259 512.331 397.175 508.753 398.337L419.482 427.344C415.903 428.506 411.979 427.753 409.085 425.349L321.818 352.856C319.707 351.102 318.33 348.619 317.96 345.899L301.314 223.605C300.891 220.495 301.821 217.353 303.867 214.974L369.172 139.064Z" stroke="url(#paint44_linear_2028_95337)" stroke-width="0.447605"/>
<path opacity="0.666667" d="M365.317 134.647C367.817 131.435 371.89 129.871 375.897 130.586L473.498 147.991C476.595 148.544 479.305 150.399 480.941 153.086L544.098 256.873C545.534 259.233 546.027 262.048 545.478 264.755L523.223 374.428C522.478 378.103 519.906 381.142 516.406 382.486L429.453 415.864C425.952 417.207 422.008 416.67 418.995 414.438L329.071 347.826C326.851 346.181 325.334 343.76 324.822 341.045L302.311 221.656C301.728 218.565 302.501 215.372 304.432 212.889L365.317 134.647Z" stroke="url(#paint45_linear_2028_95337)" stroke-width="0.447605"/>
<path opacity="0.681159" d="M361.839 130.518C364.163 127.208 368.121 125.446 372.136 125.934L469.567 137.767C472.697 138.147 475.512 139.856 477.294 142.458L544.838 241.116C546.408 243.409 547.049 246.214 546.63 248.962L530.007 358.072C529.445 361.766 527.04 364.919 523.627 366.439L439.202 404.027C435.789 405.547 431.836 405.224 428.715 403.171L336.508 342.515C334.185 340.987 332.53 338.634 331.876 335.932L303.755 219.723C303.013 216.658 303.627 213.422 305.439 210.842L361.839 130.518Z" stroke="url(#paint46_linear_2028_95337)" stroke-width="0.447605"/>
<path opacity="0.695652" d="M358.742 126.654C360.887 123.256 364.719 121.303 368.729 121.565L465.678 127.893C468.833 128.099 471.744 129.655 473.667 132.164L545.236 225.522C546.938 227.742 547.727 230.53 547.441 233.313L536.332 341.574C535.952 345.278 533.719 348.536 530.401 350.226L448.705 391.853C445.387 393.543 441.439 393.435 438.219 391.565L344.104 336.919C341.684 335.514 339.893 333.237 339.097 330.554L305.636 217.78C304.737 214.75 305.189 211.479 306.876 208.806L358.742 126.654Z" stroke="url(#paint47_linear_2028_95337)" stroke-width="0.447605"/>
<path opacity="0.710145" d="M356.044 123.028C358.007 119.552 361.704 117.418 365.696 117.456L461.857 118.363C465.025 118.393 468.026 119.791 470.086 122.199L545.31 210.11C547.142 212.25 548.079 215.013 547.929 217.825L542.199 324.964C542.001 328.668 539.944 332.021 536.732 333.876L457.951 379.36C454.739 381.215 450.807 381.32 447.5 379.639L351.85 331.031C349.339 329.755 347.415 327.562 346.478 324.906L307.957 215.804C306.902 212.816 307.191 209.519 308.749 206.76L356.044 123.028Z" stroke="url(#paint48_linear_2028_95337)" stroke-width="0.447605"/>
<path opacity="0.724638" d="M353.746 119.611C355.525 116.068 359.078 113.761 363.038 113.577L458.113 109.164C461.286 109.017 464.367 110.253 466.559 112.552L545.068 194.893C547.025 196.946 548.11 199.676 548.097 202.512L547.602 308.266C547.584 311.962 545.707 315.4 542.608 317.412L466.921 366.564C463.822 368.577 459.918 368.893 456.535 367.406L359.722 324.844C357.126 323.703 355.073 321.6 353.994 318.978L310.704 213.765C309.495 210.828 309.619 207.511 311.045 204.672L353.746 119.611Z" stroke="url(#paint49_linear_2028_95337)" stroke-width="0.447605"/>
<path opacity="0.73913" d="M351.863 116.382C353.455 112.781 356.856 110.31 360.772 109.909L454.472 100.294C457.639 99.9688 460.792 101.036 463.11 103.219L544.528 179.892C546.607 181.85 547.84 184.541 547.966 187.394L552.546 291.514C552.708 295.191 551.014 298.704 548.036 300.867L475.608 353.49C472.63 355.653 468.765 356.178 465.318 354.888L367.71 318.357C365.036 317.357 362.857 315.352 361.638 312.77L313.877 211.643C312.517 208.764 312.476 205.436 313.764 202.524L351.863 116.382Z" stroke="url(#paint50_linear_2028_95337)" stroke-width="0.447605"/>
<path opacity="0.753623" d="M350.397 113.311C351.802 109.663 355.042 107.039 358.903 106.423L450.946 91.7391C454.098 91.2362 457.313 92.1317 459.751 94.1917L543.703 165.121C545.9 166.977 547.28 169.621 547.545 172.485L557.031 274.732C557.37 278.382 555.862 281.96 553.013 284.267L483.997 340.156C481.148 342.463 477.334 343.194 473.834 342.103L375.794 311.567C373.048 310.711 370.748 308.812 369.39 306.277L317.465 209.413C315.957 206.599 315.749 203.269 316.897 200.29L350.397 113.311Z" stroke="url(#paint51_linear_2028_95337)" stroke-width="0.447605"/>
<path opacity="0.768116" d="M349.351 110.37C350.568 106.685 353.642 103.918 357.433 103.093L447.551 83.4873C450.677 82.807 453.945 83.5264 456.497 85.4568L542.608 150.591C544.918 152.338 546.443 154.929 546.85 157.796L561.06 257.947C561.573 261.561 560.254 265.194 557.541 267.637L492.077 326.581C489.364 329.023 485.613 329.956 482.072 329.068L383.956 304.467C381.146 303.762 378.73 301.975 377.233 299.495L321.457 207.048C319.804 204.308 319.43 200.983 320.433 197.944L349.351 110.37Z" stroke="url(#paint52_linear_2028_95337)" stroke-width="0.447605"/>
<path opacity="0.782609" d="M348.73 107.535C349.759 103.824 352.659 100.924 356.37 99.8952L444.302 75.5302C447.394 74.6736 450.705 75.2136 453.365 77.008L541.259 136.319C543.678 137.951 545.347 140.48 545.896 143.346L564.64 241.188C565.324 244.759 564.195 248.436 561.624 251.006L499.841 312.789C497.271 315.359 493.594 316.489 490.024 315.805L392.181 297.061C389.315 296.512 386.786 294.843 385.154 292.424L325.843 204.53C324.049 201.87 323.509 198.559 324.365 195.467L348.73 107.535Z" stroke="url(#paint53_linear_2028_95337)" stroke-width="0.447605"/>
<path opacity="0.797101" d="M348.53 104.779C349.37 101.051 352.091 98.0289 355.711 96.8033L441.21 67.8543C444.257 66.8228 447.602 67.1807 450.362 68.8331L539.67 122.316C542.192 123.826 544.002 126.286 544.694 129.144L567.773 224.482C568.624 228 567.685 231.711 565.264 234.4L507.277 298.801C504.856 301.49 501.263 302.812 497.676 302.333L400.447 289.346C397.533 288.957 394.897 287.413 393.131 285.063L330.607 201.834C328.675 199.263 327.969 195.973 328.677 192.836L348.53 104.779Z" stroke="url(#paint54_linear_2028_95337)" stroke-width="0.447605"/>
<path opacity="0.811594" d="M348.754 102.073C349.408 98.3388 351.944 95.2068 355.461 93.791L438.293 60.4459C441.285 59.2418 444.654 59.4151 447.506 60.9197L537.861 108.592C540.481 109.974 542.431 112.358 543.266 115.201L570.471 207.853C571.486 211.31 570.739 215.044 568.472 217.844L514.384 284.637C512.117 287.437 508.619 288.944 505.027 288.67L408.743 281.322C405.789 281.097 403.052 279.686 401.155 277.41L335.739 198.941C333.674 196.464 332.804 193.204 333.36 190.028L348.754 102.073Z" stroke="url(#paint55_linear_2028_95337)" stroke-width="0.447605"/>
<path opacity="0.826087" d="M349.392 99.3963C349.861 95.6652 352.208 92.4342 355.612 90.8358L435.555 53.2946C438.481 51.9205 441.864 51.9075 444.801 53.2591L535.842 95.1605C538.555 96.4091 540.641 98.7099 541.619 101.532L572.737 191.329C573.911 194.717 573.355 198.465 571.248 201.366L521.148 270.322C519.04 273.223 515.647 274.911 512.063 274.841L417.044 272.995C414.058 272.937 411.225 271.663 409.2 269.469L341.216 195.832C339.023 193.457 337.99 190.235 338.392 187.027L349.392 99.3963Z" stroke="url(#paint56_linear_2028_95337)" stroke-width="0.447605"/>
<path opacity="0.84058" d="M350.452 96.7186C350.738 93.0007 352.892 89.6824 356.173 87.9096L433.018 46.3831C435.87 44.8422 439.257 44.6416 442.27 45.8352L533.644 82.0279C536.443 83.1366 538.664 85.3471 539.784 88.1413L574.595 174.932C575.923 178.243 575.557 181.994 573.613 184.987L527.578 255.876C525.634 258.868 522.356 260.728 518.791 260.862L425.345 264.362C422.337 264.474 419.415 263.345 417.263 261.239L347.034 192.486C344.718 190.218 343.524 187.042 343.772 183.811L350.452 96.7186Z" stroke="url(#paint57_linear_2028_95337)" stroke-width="0.447605"/>
<path opacity="0.855072" d="M351.924 94.0184C352.028 90.3231 353.988 86.9292 357.136 84.9909L430.689 39.7C433.456 37.9961 436.837 37.6073 439.919 38.6384L531.281 69.2051C534.159 70.1682 536.51 72.2814 537.773 75.0416L576.05 158.687C577.527 161.915 577.35 165.659 575.575 168.733L533.666 241.321C531.891 244.396 528.738 246.421 525.203 246.756L433.626 255.43C430.604 255.716 427.599 254.737 425.325 252.725L353.173 188.887C350.739 186.734 349.385 183.612 349.477 180.363L351.924 94.0184Z" stroke="url(#paint58_linear_2028_95337)" stroke-width="0.447605"/>
<path opacity="0.869565" d="M353.791 91.2697C353.719 87.6064 355.48 84.1488 358.487 82.0543L428.569 33.2291C431.243 31.3666 434.606 30.7893 437.748 31.6537L528.762 56.6976C531.714 57.5097 534.192 59.5187 535.596 62.2386L577.11 142.616C578.73 145.754 578.741 149.48 577.137 152.627L539.405 226.68C537.802 229.827 534.781 232.009 531.29 232.542L441.863 246.202C438.836 246.664 435.755 245.84 433.363 243.93L359.605 185.018C357.059 182.984 355.549 179.924 355.484 176.666L353.791 91.2697Z" stroke="url(#paint59_linear_2028_95337)" stroke-width="0.447605"/>
<path opacity="0.884058" d="M356.06 88.4486C355.814 84.8264 357.376 81.317 360.233 79.0763L426.68 26.9551C429.251 24.9388 432.586 24.1735 435.779 24.8676L526.122 44.5113C529.139 45.1673 531.74 47.0652 533.285 49.7385L577.802 126.741C579.56 129.782 579.755 133.481 578.327 136.69L544.809 211.973C543.38 215.182 540.5 217.512 537.064 218.24L450.053 236.682C447.032 237.323 443.881 236.66 441.374 234.856L366.325 180.863C363.673 178.955 362.01 175.964 361.789 172.704L356.06 88.4486Z" stroke="url(#paint60_linear_2028_95337)" stroke-width="0.447605"/>
<path opacity="0.898551" d="M358.712 85.5325C358.296 81.96 359.658 78.4108 362.358 76.0342L425.021 20.8625C427.479 18.698 430.777 17.7457 434.01 18.2663L523.369 32.6511C526.445 33.1462 529.165 34.9263 530.85 37.5467L578.135 111.081C580.024 114.019 580.401 117.682 579.149 120.943L549.869 197.221C548.617 200.482 545.887 202.951 542.517 203.871L458.173 226.877C455.167 227.697 451.954 227.2 449.337 225.51L373.306 176.407C370.554 174.63 368.741 171.716 368.362 168.463L358.712 85.5325Z" stroke="url(#paint61_linear_2028_95337)" stroke-width="0.447605"/>
<path opacity="0.913043" d="M361.731 82.4995C361.15 78.9853 362.313 75.4081 364.848 72.9064L423.593 14.9362C425.931 12.6294 429.179 11.4917 432.446 11.836L520.52 21.1211C523.646 21.4508 526.481 23.1064 528.304 25.6678L578.122 95.6575C580.136 98.4867 580.69 102.103 579.617 105.405L554.585 182.445C553.512 185.748 550.938 188.348 547.646 189.453L466.204 216.794C463.223 217.794 459.957 217.467 457.233 215.896L380.522 171.639C377.677 169.998 375.718 167.168 375.183 163.928L361.731 82.4995Z" stroke="url(#paint62_linear_2028_95337)" stroke-width="0.447605"/>
<path opacity="0.927536" d="M365.114 79.3298C364.374 75.8821 365.337 72.2888 367.702 69.6731L422.412 9.16173C424.621 6.71906 427.81 5.39814 431.099 5.56397L517.603 9.92544C520.773 10.0852 523.717 11.6101 525.677 14.1062L577.79 80.4885C579.921 83.2037 580.65 86.7641 579.757 90.0984L558.972 167.669C558.078 171.003 555.667 173.722 552.463 175.008L474.141 206.44C471.196 207.622 467.884 207.47 465.059 206.024L387.963 166.549C385.032 165.048 382.93 162.309 382.239 159.089L365.114 79.3298Z" stroke="url(#paint63_linear_2028_95337)" stroke-width="0.447605"/>
<path opacity="0.942029" d="M368.846 76.0001C367.952 72.6266 368.717 69.0288 370.906 66.3107L421.48 3.51974C423.551 0.948249 426.671 -0.553137 429.973 -0.567569L514.637 -0.937879C517.841 -0.951897 520.891 0.435881 522.985 2.86067L577.156 65.5878C579.399 68.1841 580.297 71.6801 579.583 75.0356L563.031 152.906C562.318 156.262 560.076 159.09 556.972 160.55L481.97 195.821C479.07 197.184 475.72 197.211 472.799 195.896L395.605 161.121C392.594 159.765 390.355 157.125 389.509 153.933L368.846 76.0001Z" stroke="url(#paint64_linear_2028_95337)" stroke-width="0.447605"/>
<path opacity="0.956522" d="M372.916 72.4946C371.873 69.2027 372.442 65.612 374.451 62.8034L420.804 -2.00219C422.73 -4.69497 425.77 -6.3735 429.075 -6.56946L511.644 -11.4649C514.874 -11.6564 518.023 -10.4119 520.25 -8.0644L576.245 50.9745C578.591 53.4475 579.653 56.8703 579.12 60.2366L566.775 138.182C566.241 141.548 564.173 144.475 561.179 146.102L489.679 184.948C486.836 186.493 483.456 186.703 480.444 185.523L403.429 155.352C400.346 154.144 397.974 151.609 396.975 148.452L372.916 72.4946Z" stroke="url(#paint65_linear_2028_95337)" stroke-width="0.447605"/>
<path opacity="0.971014" d="M377.291 68.793C376.107 65.5897 376.482 62.0174 378.307 59.1304L420.371 -7.42242C422.144 -10.2285 425.094 -12.0802 428.392 -12.4584L508.627 -21.6588C511.874 -22.0311 515.118 -20.9359 517.474 -18.6715L575.061 36.6602C577.503 39.0058 578.724 42.3474 578.37 45.7142L570.193 123.511C569.839 126.878 567.95 129.893 565.075 131.68L497.242 173.829C494.466 175.554 491.065 175.951 487.967 174.912L411.397 149.23C408.25 148.175 405.75 145.75 404.599 142.637L377.291 68.793Z" stroke="url(#paint66_linear_2028_95337)" stroke-width="0.447605"/>
<path opacity="0.985507" d="M381.972 64.8799C380.653 61.7718 380.838 58.229 382.476 55.2758L420.198 -12.7553C421.812 -15.6662 424.661 -17.6865 427.941 -18.2471L505.623 -31.5198C508.878 -32.0759 512.21 -31.1358 514.694 -28.9604L573.643 22.6592C576.172 24.8739 577.546 28.1262 577.37 31.4834L573.312 108.914C573.136 112.271 571.43 115.362 568.683 117.3L504.662 162.475C501.963 164.379 498.551 164.966 495.372 164.072L419.504 142.753C416.3 141.852 413.678 139.545 412.377 136.481L381.972 64.8799Z" stroke="url(#paint67_linear_2028_95337)" stroke-width="0.447605"/>
<path d="M386.938 60.7393C385.49 57.7325 385.49 54.2299 386.938 51.2231L420.283 -18.0171C421.731 -21.0239 424.469 -23.2078 427.723 -23.9504L502.647 -41.0513C505.9 -41.7939 509.315 -41.0145 511.924 -38.9337L572.009 8.98197C574.618 11.0628 576.138 14.2185 576.138 17.5558L576.138 94.4066C576.138 97.744 574.618 100.9 572.009 102.98L511.924 150.896C509.315 152.977 505.9 153.756 502.647 153.014L427.723 135.913C424.469 135.17 421.731 132.986 420.283 129.98L386.938 60.7393Z" stroke="url(#paint68_linear_2028_95337)" stroke-width="0.447605"/>
<defs>
<linearGradient id="paint0_linear_2028_95337" x1="534.21" y1="795.362" x2="55.4453" y2="582.202" gradientUnits="userSpaceOnUse">
<stop stop-color="#8CF9B0"/>
<stop offset="1" stop-color="#18A0FB"/>
</linearGradient>
<linearGradient id="paint1_linear_2028_95337" x1="539.859" y1="772.984" x2="54.9122" y2="586.83" gradientUnits="userSpaceOnUse">
<stop stop-color="#8CF9B0"/>
<stop offset="1" stop-color="#18A0FB"/>
</linearGradient>
<linearGradient id="paint2_linear_2028_95337" x1="544.789" y1="750.579" x2="55.1635" y2="591.49" gradientUnits="userSpaceOnUse">
<stop stop-color="#8CF9B0"/>
<stop offset="1" stop-color="#18A0FB"/>
</linearGradient>
<linearGradient id="paint3_linear_2028_95337" x1="549" y1="728.184" x2="56.1874" y2="596.135" gradientUnits="userSpaceOnUse">
<stop stop-color="#8CF9B0"/>
<stop offset="1" stop-color="#18A0FB"/>
</linearGradient>
<linearGradient id="paint4_linear_2028_95337" x1="552.499" y1="705.841" x2="57.9756" y2="600.727" gradientUnits="userSpaceOnUse">
<stop stop-color="#8CF9B0"/>
<stop offset="1" stop-color="#18A0FB"/>
</linearGradient>
<linearGradient id="paint5_linear_2028_95337" x1="555.302" y1="683.588" x2="60.5234" y2="605.223" gradientUnits="userSpaceOnUse">
<stop stop-color="#8CF9B0"/>
<stop offset="1" stop-color="#18A0FB"/>
</linearGradient>
<linearGradient id="paint6_linear_2028_95337" x1="557.404" y1="661.461" x2="63.8025" y2="609.581" gradientUnits="userSpaceOnUse">
<stop stop-color="#8CF9B0"/>
<stop offset="1" stop-color="#18A0FB"/>
</linearGradient>
<linearGradient id="paint7_linear_2028_95337" x1="558.837" y1="639.499" x2="67.8161" y2="613.765" gradientUnits="userSpaceOnUse">
<stop stop-color="#8CF9B0"/>
<stop offset="1" stop-color="#18A0FB"/>
</linearGradient>
<linearGradient id="paint8_linear_2028_95337" x1="559.613" y1="617.734" x2="72.5439" y2="617.734" gradientUnits="userSpaceOnUse">
<stop stop-color="#8CF9B0"/>
<stop offset="1" stop-color="#18A0FB"/>
</linearGradient>
<linearGradient id="paint9_linear_2028_95337" x1="559.738" y1="596.202" x2="77.9549" y2="621.451" gradientUnits="userSpaceOnUse">
<stop stop-color="#8CF9B0"/>
<stop offset="1" stop-color="#18A0FB"/>
</linearGradient>
<linearGradient id="paint10_linear_2028_95337" x1="559.239" y1="574.939" x2="84.0379" y2="624.885" gradientUnits="userSpaceOnUse">
<stop stop-color="#8CF9B0"/>
<stop offset="1" stop-color="#18A0FB"/>
</linearGradient>
<linearGradient id="paint11_linear_2028_95337" x1="558.138" y1="553.972" x2="90.7715" y2="627.996" gradientUnits="userSpaceOnUse">
<stop stop-color="#8CF9B0"/>
<stop offset="1" stop-color="#18A0FB"/>
</linearGradient>
<linearGradient id="paint12_linear_2028_95337" x1="556.459" y1="533.333" x2="98.1312" y2="630.754" gradientUnits="userSpaceOnUse">
<stop stop-color="#8CF9B0"/>
<stop offset="1" stop-color="#18A0FB"/>
</linearGradient>
<linearGradient id="paint13_linear_2028_95337" x1="554.216" y1="513.052" x2="106.082" y2="633.129" gradientUnits="userSpaceOnUse">
<stop stop-color="#8CF9B0"/>
<stop offset="1" stop-color="#18A0FB"/>
</linearGradient>
<linearGradient id="paint14_linear_2028_95337" x1="551.451" y1="493.155" x2="114.616" y2="635.092" gradientUnits="userSpaceOnUse">
<stop stop-color="#8CF9B0"/>
<stop offset="1" stop-color="#18A0FB"/>
</linearGradient>
<linearGradient id="paint15_linear_2028_95337" x1="548.175" y1="473.668" x2="123.685" y2="636.614" gradientUnits="userSpaceOnUse">
<stop stop-color="#8CF9B0"/>
<stop offset="1" stop-color="#18A0FB"/>
</linearGradient>
<linearGradient id="paint16_linear_2028_95337" x1="544.424" y1="454.613" x2="133.269" y2="637.671" gradientUnits="userSpaceOnUse">
<stop stop-color="#8CF9B0"/>
<stop offset="1" stop-color="#18A0FB"/>
</linearGradient>
<linearGradient id="paint17_linear_2028_95337" x1="540.224" y1="436.014" x2="143.335" y2="638.239" gradientUnits="userSpaceOnUse">
<stop stop-color="#8CF9B0"/>
<stop offset="1" stop-color="#18A0FB"/>
</linearGradient>
<linearGradient id="paint18_linear_2028_95337" x1="535.607" y1="417.888" x2="153.851" y2="638.295" gradientUnits="userSpaceOnUse">
<stop stop-color="#8CF9B0"/>
<stop offset="1" stop-color="#18A0FB"/>
</linearGradient>
<linearGradient id="paint19_linear_2028_95337" x1="530.6" y1="400.256" x2="164.781" y2="637.822" gradientUnits="userSpaceOnUse">
<stop stop-color="#8CF9B0"/>
<stop offset="1" stop-color="#18A0FB"/>
</linearGradient>
<linearGradient id="paint20_linear_2028_95337" x1="525.235" y1="383.134" x2="176.094" y2="636.801" gradientUnits="userSpaceOnUse">
<stop stop-color="#8CF9B0"/>
<stop offset="1" stop-color="#18A0FB"/>
</linearGradient>
<linearGradient id="paint21_linear_2028_95337" x1="519.553" y1="366.536" x2="187.76" y2="635.216" gradientUnits="userSpaceOnUse">
<stop stop-color="#8CF9B0"/>
<stop offset="1" stop-color="#18A0FB"/>
</linearGradient>
<linearGradient id="paint22_linear_2028_95337" x1="513.574" y1="350.475" x2="199.735" y2="633.056" gradientUnits="userSpaceOnUse">
<stop stop-color="#8CF9B0"/>
<stop offset="1" stop-color="#18A0FB"/>
</linearGradient>
<linearGradient id="paint23_linear_2028_95337" x1="507.34" y1="334.958" x2="211.991" y2="630.307" gradientUnits="userSpaceOnUse">
<stop stop-color="#8CF9B0"/>
<stop offset="1" stop-color="#18A0FB"/>
</linearGradient>
<linearGradient id="paint24_linear_2028_95337" x1="500.876" y1="319.998" x2="224.484" y2="626.962" gradientUnits="userSpaceOnUse">
<stop stop-color="#8CF9B0"/>
<stop offset="1" stop-color="#18A0FB"/>
</linearGradient>
<linearGradient id="paint25_linear_2028_95337" x1="494.224" y1="305.6" x2="237.187" y2="623.014" gradientUnits="userSpaceOnUse">
<stop stop-color="#8CF9B0"/>
<stop offset="1" stop-color="#18A0FB"/>
</linearGradient>
<linearGradient id="paint26_linear_2028_95337" x1="487.416" y1="291.768" x2="250.062" y2="618.457" gradientUnits="userSpaceOnUse">
<stop stop-color="#8CF9B0"/>
<stop offset="1" stop-color="#18A0FB"/>
</linearGradient>
<linearGradient id="paint27_linear_2028_95337" x1="480.48" y1="278.504" x2="263.069" y2="613.287" gradientUnits="userSpaceOnUse">
<stop stop-color="#8CF9B0"/>
<stop offset="1" stop-color="#18A0FB"/>
</linearGradient>
<linearGradient id="paint28_linear_2028_95337" x1="473.45" y1="265.81" x2="276.171" y2="607.507" gradientUnits="userSpaceOnUse">
<stop stop-color="#8CF9B0"/>
<stop offset="1" stop-color="#18A0FB"/>
</linearGradient>
<linearGradient id="paint29_linear_2028_95337" x1="466.366" y1="253.683" x2="289.341" y2="601.116" gradientUnits="userSpaceOnUse">
<stop stop-color="#8CF9B0"/>
<stop offset="1" stop-color="#18A0FB"/>
</linearGradient>
<linearGradient id="paint30_linear_2028_95337" x1="459.256" y1="242.121" x2="302.538" y2="594.117" gradientUnits="userSpaceOnUse">
<stop stop-color="#8CF9B0"/>
<stop offset="1" stop-color="#18A0FB"/>
</linearGradient>
<linearGradient id="paint31_linear_2028_95337" x1="452.149" y1="231.119" x2="315.725" y2="586.516" gradientUnits="userSpaceOnUse">
<stop stop-color="#8CF9B0"/>
<stop offset="1" stop-color="#18A0FB"/>
</linearGradient>
<linearGradient id="paint32_linear_2028_95337" x1="445.084" y1="220.671" x2="328.876" y2="578.322" gradientUnits="userSpaceOnUse">
<stop stop-color="#8CF9B0"/>
<stop offset="1" stop-color="#18A0FB"/>
</linearGradient>
<linearGradient id="paint33_linear_2028_95337" x1="438.08" y1="210.767" x2="341.947" y2="569.542" gradientUnits="userSpaceOnUse">
<stop stop-color="#8CF9B0"/>
<stop offset="1" stop-color="#18A0FB"/>
</linearGradient>
<linearGradient id="paint34_linear_2028_95337" x1="431.183" y1="201.397" x2="354.92" y2="560.187" gradientUnits="userSpaceOnUse">
<stop stop-color="#8CF9B0"/>
<stop offset="1" stop-color="#18A0FB"/>
</linearGradient>
<linearGradient id="paint35_linear_2028_95337" x1="424.407" y1="192.551" x2="367.749" y2="550.271" gradientUnits="userSpaceOnUse">
<stop stop-color="#8CF9B0"/>
<stop offset="1" stop-color="#18A0FB"/>
</linearGradient>
<linearGradient id="paint36_linear_2028_95337" x1="417.79" y1="184.212" x2="380.415" y2="539.807" gradientUnits="userSpaceOnUse">
<stop stop-color="#8CF9B0"/>
<stop offset="1" stop-color="#18A0FB"/>
</linearGradient>
<linearGradient id="paint37_linear_2028_95337" x1="411.353" y1="176.367" x2="392.883" y2="528.812" gradientUnits="userSpaceOnUse">
<stop stop-color="#8CF9B0"/>
<stop offset="1" stop-color="#18A0FB"/>
</linearGradient>
<linearGradient id="paint38_linear_2028_95337" x1="405.126" y1="169.001" x2="405.126" y2="517.304" gradientUnits="userSpaceOnUse">
<stop stop-color="#8CF9B0"/>
<stop offset="1" stop-color="#18A0FB"/>
</linearGradient>
<linearGradient id="paint39_linear_2028_95337" x1="399.131" y1="162.094" x2="417.118" y2="505.301" gradientUnits="userSpaceOnUse">
<stop stop-color="#8CF9B0"/>
<stop offset="1" stop-color="#18A0FB"/>
</linearGradient>
<linearGradient id="paint40_linear_2028_95337" x1="393.399" y1="155.629" x2="428.84" y2="492.823" gradientUnits="userSpaceOnUse">
<stop stop-color="#8CF9B0"/>
<stop offset="1" stop-color="#18A0FB"/>
</linearGradient>
<linearGradient id="paint41_linear_2028_95337" x1="387.943" y1="149.585" x2="440.259" y2="479.894" gradientUnits="userSpaceOnUse">
<stop stop-color="#8CF9B0"/>
<stop offset="1" stop-color="#18A0FB"/>
</linearGradient>
<linearGradient id="paint42_linear_2028_95337" x1="382.784" y1="143.94" x2="451.353" y2="466.534" gradientUnits="userSpaceOnUse">
<stop stop-color="#8CF9B0"/>
<stop offset="1" stop-color="#18A0FB"/>
</linearGradient>
<linearGradient id="paint43_linear_2028_95337" x1="377.94" y1="138.674" x2="462.102" y2="452.769" gradientUnits="userSpaceOnUse">
<stop stop-color="#8CF9B0"/>
<stop offset="1" stop-color="#18A0FB"/>
</linearGradient>
<linearGradient id="paint44_linear_2028_95337" x1="373.439" y1="133.761" x2="472.494" y2="438.622" gradientUnits="userSpaceOnUse">
<stop stop-color="#8CF9B0"/>
<stop offset="1" stop-color="#18A0FB"/>
</linearGradient>
<linearGradient id="paint45_linear_2028_95337" x1="369.288" y1="129.18" x2="482.505" y2="424.12" gradientUnits="userSpaceOnUse">
<stop stop-color="#8CF9B0"/>
<stop offset="1" stop-color="#18A0FB"/>
</linearGradient>
<linearGradient id="paint46_linear_2028_95337" x1="365.508" y1="124.903" x2="492.125" y2="409.289" gradientUnits="userSpaceOnUse">
<stop stop-color="#8CF9B0"/>
<stop offset="1" stop-color="#18A0FB"/>
</linearGradient>
<linearGradient id="paint47_linear_2028_95337" x1="362.105" y1="120.908" x2="501.332" y2="394.156" gradientUnits="userSpaceOnUse">
<stop stop-color="#8CF9B0"/>
<stop offset="1" stop-color="#18A0FB"/>
</linearGradient>
<linearGradient id="paint48_linear_2028_95337" x1="359.096" y1="117.17" x2="510.12" y2="378.751" gradientUnits="userSpaceOnUse">
<stop stop-color="#8CF9B0"/>
<stop offset="1" stop-color="#18A0FB"/>
</linearGradient>
<linearGradient id="paint49_linear_2028_95337" x1="356.485" y1="113.657" x2="518.473" y2="363.096" gradientUnits="userSpaceOnUse">
<stop stop-color="#8CF9B0"/>
<stop offset="1" stop-color="#18A0FB"/>
</linearGradient>
<linearGradient id="paint50_linear_2028_95337" x1="354.286" y1="110.349" x2="526.388" y2="347.227" gradientUnits="userSpaceOnUse">
<stop stop-color="#8CF9B0"/>
<stop offset="1" stop-color="#18A0FB"/>
</linearGradient>
<linearGradient id="paint51_linear_2028_95337" x1="352.504" y1="107.217" x2="533.856" y2="331.168" gradientUnits="userSpaceOnUse">
<stop stop-color="#8CF9B0"/>
<stop offset="1" stop-color="#18A0FB"/>
</linearGradient>
<linearGradient id="paint52_linear_2028_95337" x1="351.142" y1="104.232" x2="540.871" y2="314.948" gradientUnits="userSpaceOnUse">
<stop stop-color="#8CF9B0"/>
<stop offset="1" stop-color="#18A0FB"/>
</linearGradient>
<linearGradient id="paint53_linear_2028_95337" x1="350.206" y1="101.371" x2="547.432" y2="298.597" gradientUnits="userSpaceOnUse">
<stop stop-color="#8CF9B0"/>
<stop offset="1" stop-color="#18A0FB"/>
</linearGradient>
<linearGradient id="paint54_linear_2028_95337" x1="349.692" y1="98.6048" x2="553.533" y2="282.144" gradientUnits="userSpaceOnUse">
<stop stop-color="#8CF9B0"/>
<stop offset="1" stop-color="#18A0FB"/>
</linearGradient>
<linearGradient id="paint55_linear_2028_95337" x1="349.606" y1="95.9066" x2="559.179" y2="265.615" gradientUnits="userSpaceOnUse">
<stop stop-color="#8CF9B0"/>
<stop offset="1" stop-color="#18A0FB"/>
</linearGradient>
<linearGradient id="paint56_linear_2028_95337" x1="349.938" y1="93.2531" x2="564.363" y2="249.042" gradientUnits="userSpaceOnUse">
<stop stop-color="#8CF9B0"/>
<stop offset="1" stop-color="#18A0FB"/>
</linearGradient>
<linearGradient id="paint57_linear_2028_95337" x1="350.696" y1="90.6149" x2="569.101" y2="232.449" gradientUnits="userSpaceOnUse">
<stop stop-color="#8CF9B0"/>
<stop offset="1" stop-color="#18A0FB"/>
</linearGradient>
<linearGradient id="paint58_linear_2028_95337" x1="351.871" y1="87.9697" x2="573.394" y2="215.866" gradientUnits="userSpaceOnUse">
<stop stop-color="#8CF9B0"/>
<stop offset="1" stop-color="#18A0FB"/>
</linearGradient>
<linearGradient id="paint59_linear_2028_95337" x1="353.449" y1="85.2913" x2="577.24" y2="199.319" gradientUnits="userSpaceOnUse">
<stop stop-color="#8CF9B0"/>
<stop offset="1" stop-color="#18A0FB"/>
</linearGradient>
<linearGradient id="paint60_linear_2028_95337" x1="355.435" y1="82.5552" x2="580.662" y2="182.833" gradientUnits="userSpaceOnUse">
<stop stop-color="#8CF9B0"/>
<stop offset="1" stop-color="#18A0FB"/>
</linearGradient>
<linearGradient id="paint61_linear_2028_95337" x1="357.812" y1="79.7382" x2="583.66" y2="166.433" gradientUnits="userSpaceOnUse">
<stop stop-color="#8CF9B0"/>
<stop offset="1" stop-color="#18A0FB"/>
</linearGradient>
<linearGradient id="paint62_linear_2028_95337" x1="360.565" y1="76.8179" x2="586.242" y2="150.145" gradientUnits="userSpaceOnUse">
<stop stop-color="#8CF9B0"/>
<stop offset="1" stop-color="#18A0FB"/>
</linearGradient>
<linearGradient id="paint63_linear_2028_95337" x1="363.692" y1="73.7738" x2="588.429" y2="133.992" gradientUnits="userSpaceOnUse">
<stop stop-color="#8CF9B0"/>
<stop offset="1" stop-color="#18A0FB"/>
</linearGradient>
<linearGradient id="paint64_linear_2028_95337" x1="367.178" y1="70.582" x2="590.234" y2="117.994" gradientUnits="userSpaceOnUse">
<stop stop-color="#8CF9B0"/>
<stop offset="1" stop-color="#18A0FB"/>
</linearGradient>
<linearGradient id="paint65_linear_2028_95337" x1="371.012" y1="67.2259" x2="591.675" y2="102.176" gradientUnits="userSpaceOnUse">
<stop stop-color="#8CF9B0"/>
<stop offset="1" stop-color="#18A0FB"/>
</linearGradient>
<linearGradient id="paint66_linear_2028_95337" x1="375.164" y1="63.6847" x2="592.753" y2="86.5542" gradientUnits="userSpaceOnUse">
<stop stop-color="#8CF9B0"/>
<stop offset="1" stop-color="#18A0FB"/>
</linearGradient>
<linearGradient id="paint67_linear_2028_95337" x1="379.632" y1="59.9421" x2="593.501" y2="71.1505" gradientUnits="userSpaceOnUse">
<stop stop-color="#8CF9B0"/>
<stop offset="1" stop-color="#18A0FB"/>
</linearGradient>
<linearGradient id="paint68_linear_2028_95337" x1="384.398" y1="55.9812" x2="593.935" y2="55.9812" gradientUnits="userSpaceOnUse">
<stop stop-color="#8CF9B0"/>
<stop offset="1" stop-color="#18A0FB"/>
</linearGradient>
</defs>
</svg>
